<svg viewBox="0 0 330 200" xmlns="http://www.w3.org/2000/svg"><g><g><g><g><g><line x1="41.171875" y1="176.921875" x2="36.171875" y2="176.921875" style="visibility: inherit;" fill="rgb(0, 0, 0)" stroke="rgb(204, 204, 204)" stroke-width="1px"></line><line x1="41.171875" y1="162.17838541666666" x2="36.171875" y2="162.17838541666666" style="visibility: inherit;" fill="rgb(0, 0, 0)" stroke="rgb(204, 204, 204)" stroke-width="1px"></line><line x1="41.171875" y1="147.43489583333331" x2="36.171875" y2="147.43489583333331" style="visibility: inherit;" fill="rgb(0, 0, 0)" stroke="rgb(204, 204, 204)" stroke-width="1px"></line><line x1="41.171875" y1="132.69140625" x2="36.171875" y2="132.69140625" style="visibility: inherit;" fill="rgb(0, 0, 0)" stroke="rgb(204, 204, 204)" stroke-width="1px"></line><line x1="41.171875" y1="117.94791666666666" x2="36.171875" y2="117.94791666666666" style="visibility: inherit;" fill="rgb(0, 0, 0)" stroke="rgb(204, 204, 204)" stroke-width="1px"></line><line x1="41.171875" y1="103.20442708333331" x2="36.171875" y2="103.20442708333331" style="visibility: inherit;" fill="rgb(0, 0, 0)" stroke="rgb(204, 204, 204)" stroke-width="1px"></line><line x1="41.171875" y1="88.4609375" x2="36.171875" y2="88.4609375" style="visibility: inherit;" fill="rgb(0, 0, 0)" stroke="rgb(204, 204, 204)" stroke-width="1px"></line><line x1="41.171875" y1="73.71744791666666" x2="36.171875" y2="73.71744791666666" style="visibility: inherit;" fill="rgb(0, 0, 0)" stroke="rgb(204, 204, 204)" stroke-width="1px"></line><line x1="41.171875" y1="58.97395833333332" x2="36.171875" y2="58.97395833333332" style="visibility: inherit;" fill="rgb(0, 0, 0)" stroke="rgb(204, 204, 204)" stroke-width="1px"></line><line x1="41.171875" y1="44.23046875" x2="36.171875" y2="44.23046875" style="visibility: inherit;" fill="rgb(0, 0, 0)" stroke="rgb(204, 204, 204)" stroke-width="1px"></line><line x1="41.171875" y1="29.48697916666666" x2="36.171875" y2="29.48697916666666" style="visibility: inherit;" fill="rgb(0, 0, 0)" stroke="rgb(204, 204, 204)" stroke-width="1px"></line><line x1="41.171875" y1="14.74348958333332" x2="36.171875" y2="14.74348958333332" style="visibility: inherit;" fill="rgb(0, 0, 0)" stroke="rgb(204, 204, 204)" stroke-width="1px"></line><line x1="41.171875" y1="0" x2="36.171875" y2="0" style="visibility: inherit;" fill="rgb(0, 0, 0)" stroke="rgb(204, 204, 204)" stroke-width="1px"></line></g><g transform="translate(31.171875, 0)"><text style="text-anchor: end; visibility: hidden; font-family: Roboto, sans-serif; font-size: 12px; font-weight: 200;" x="0" y="176.921875" dx="0em" dy="0.3em" fill="rgb(255, 255, 255)" stroke="none" stroke-width="1px">0</text><text style="text-anchor: end; visibility: inherit; font-family: Roboto, sans-serif; font-size: 12px; font-weight: 200;" x="0" y="162.17838541666666" dx="0em" dy="0.3em" fill="rgb(255, 255, 255)" stroke="none" stroke-width="1px">0.1</text><text style="text-anchor: end; visibility: hidden; font-family: Roboto, sans-serif; font-size: 12px; font-weight: 200;" x="0" y="147.43489583333331" dx="0em" dy="0.3em" fill="rgb(255, 255, 255)" stroke="none" stroke-width="1px">0.2</text><text style="text-anchor: end; visibility: inherit; font-family: Roboto, sans-serif; font-size: 12px; font-weight: 200;" x="0" y="132.69140625" dx="0em" dy="0.3em" fill="rgb(255, 255, 255)" stroke="none" stroke-width="1px">0.3</text><text style="text-anchor: end; visibility: hidden; font-family: Roboto, sans-serif; font-size: 12px; font-weight: 200;" x="0" y="117.94791666666666" dx="0em" dy="0.3em" fill="rgb(255, 255, 255)" stroke="none" stroke-width="1px">0.4</text><text style="text-anchor: end; visibility: inherit; font-family: Roboto, sans-serif; font-size: 12px; font-weight: 200;" x="0" y="103.20442708333331" dx="0em" dy="0.3em" fill="rgb(255, 255, 255)" stroke="none" stroke-width="1px">0.5</text><text style="text-anchor: end; visibility: hidden; font-family: Roboto, sans-serif; font-size: 12px; font-weight: 200;" x="0" y="88.4609375" dx="0em" dy="0.3em" fill="rgb(255, 255, 255)" stroke="none" stroke-width="1px">0.6</text><text style="text-anchor: end; visibility: inherit; font-family: Roboto, sans-serif; font-size: 12px; font-weight: 200;" x="0" y="73.71744791666666" dx="0em" dy="0.3em" fill="rgb(255, 255, 255)" stroke="none" stroke-width="1px">0.7</text><text style="text-anchor: end; visibility: hidden; font-family: Roboto, sans-serif; font-size: 12px; font-weight: 200;" x="0" y="58.97395833333332" dx="0em" dy="0.3em" fill="rgb(255, 255, 255)" stroke="none" stroke-width="1px">0.8</text><text style="text-anchor: end; visibility: inherit; font-family: Roboto, sans-serif; font-size: 12px; font-weight: 200;" x="0" y="44.23046875" dx="0em" dy="0.3em" fill="rgb(255, 255, 255)" stroke="none" stroke-width="1px">0.9</text><text style="text-anchor: end; visibility: hidden; font-family: Roboto, sans-serif; font-size: 12px; font-weight: 200;" x="0" y="29.48697916666666" dx="0em" dy="0.3em" fill="rgb(255, 255, 255)" stroke="none" stroke-width="1px">1</text><text style="text-anchor: end; visibility: inherit; font-family: Roboto, sans-serif; font-size: 12px; font-weight: 200;" x="0" y="14.74348958333332" dx="0em" dy="0.3em" fill="rgb(255, 255, 255)" stroke="none" stroke-width="1px">1.1</text><text style="text-anchor: end; visibility: hidden; font-family: Roboto, sans-serif; font-size: 12px; font-weight: 200;" x="0" y="0" dx="0em" dy="0.3em" fill="rgb(255, 255, 255)" stroke="none" stroke-width="1px">1.2</text></g><line x1="41.171875" y1="0" x2="41.171875" y2="176.921875" fill="rgb(0, 0, 0)" stroke="rgb(204, 204, 204)" stroke-width="1px"></line></g></g><g transform="translate(41, 0)" clip-path="url(#clip_0)"><clipPath id="clip_0"><rect width="288" height="176"></rect></clipPath><g><g><g><line x1="0" y1="0" x2="0" y2="176.921875" fill="rgb(0, 0, 0)" stroke="rgb(189, 189, 189)" stroke-width="1px" opacity="0.25"></line><line x1="26.257102272727273" y1="0" x2="26.257102272727273" y2="176.921875" fill="rgb(0, 0, 0)" stroke="rgb(189, 189, 189)" stroke-width="1px" opacity="0.25"></line><line x1="52.51420454545455" y1="0" x2="52.51420454545455" y2="176.921875" fill="rgb(0, 0, 0)" stroke="rgb(189, 189, 189)" stroke-width="1px" opacity="0.25"></line><line x1="78.77130681818181" y1="0" x2="78.77130681818181" y2="176.921875" fill="rgb(0, 0, 0)" stroke="rgb(189, 189, 189)" stroke-width="1px" opacity="0.25"></line><line x1="105.0284090909091" y1="0" x2="105.0284090909091" y2="176.921875" fill="rgb(0, 0, 0)" stroke="rgb(189, 189, 189)" stroke-width="1px" opacity="0.25"></line><line x1="131.28551136363635" y1="0" x2="131.28551136363635" y2="176.921875" fill="rgb(0, 0, 0)" stroke="rgb(189, 189, 189)" stroke-width="1px" opacity="0.25"></line><line x1="157.54261363636363" y1="0" x2="157.54261363636363" y2="176.921875" fill="rgb(0, 0, 0)" stroke="rgb(189, 189, 189)" stroke-width="1px" opacity="0.25"></line><line x1="183.7997159090909" y1="0" x2="183.7997159090909" y2="176.921875" fill="rgb(0, 0, 0)" stroke="rgb(189, 189, 189)" stroke-width="1px" opacity="0.25"></line><line x1="210.0568181818182" y1="0" x2="210.0568181818182" y2="176.921875" fill="rgb(0, 0, 0)" stroke="rgb(189, 189, 189)" stroke-width="1px" opacity="0.25"></line><line x1="236.31392045454547" y1="0" x2="236.31392045454547" y2="176.921875" fill="rgb(0, 0, 0)" stroke="rgb(189, 189, 189)" stroke-width="1px" opacity="0.25"></line><line x1="262.5710227272727" y1="0" x2="262.5710227272727" y2="176.921875" fill="rgb(0, 0, 0)" stroke="rgb(189, 189, 189)" stroke-width="1px" opacity="0.25"></line><line x1="288.828125" y1="0" x2="288.828125" y2="176.921875" fill="rgb(0, 0, 0)" stroke="rgb(189, 189, 189)" stroke-width="1px" opacity="0.25"></line></g><g><line x1="0" y1="176.921875" x2="288.828125" y2="176.921875" fill="rgb(0, 0, 0)" stroke="rgb(189, 189, 189)" stroke-width="1px" opacity="0.25"></line><line x1="0" y1="162.17838541666666" x2="288.828125" y2="162.17838541666666" fill="rgb(0, 0, 0)" stroke="rgb(189, 189, 189)" stroke-width="1px" opacity="0.25"></line><line x1="0" y1="147.43489583333331" x2="288.828125" y2="147.43489583333331" fill="rgb(0, 0, 0)" stroke="rgb(189, 189, 189)" stroke-width="1px" opacity="0.25"></line><line x1="0" y1="132.69140625" x2="288.828125" y2="132.69140625" fill="rgb(0, 0, 0)" stroke="rgb(189, 189, 189)" stroke-width="1px" opacity="0.25"></line><line x1="0" y1="117.94791666666666" x2="288.828125" y2="117.94791666666666" fill="rgb(0, 0, 0)" stroke="rgb(189, 189, 189)" stroke-width="1px" opacity="0.25"></line><line x1="0" y1="103.20442708333331" x2="288.828125" y2="103.20442708333331" fill="rgb(0, 0, 0)" stroke="rgb(189, 189, 189)" stroke-width="1px" opacity="0.25"></line><line x1="0" y1="88.4609375" x2="288.828125" y2="88.4609375" fill="rgb(0, 0, 0)" stroke="rgb(189, 189, 189)" stroke-width="1px" opacity="0.25"></line><line x1="0" y1="73.71744791666666" x2="288.828125" y2="73.71744791666666" fill="rgb(0, 0, 0)" stroke="rgb(189, 189, 189)" stroke-width="1px" opacity="0.25"></line><line x1="0" y1="58.97395833333332" x2="288.828125" y2="58.97395833333332" fill="rgb(0, 0, 0)" stroke="rgb(189, 189, 189)" stroke-width="1px" opacity="0.25"></line><line x1="0" y1="44.23046875" x2="288.828125" y2="44.23046875" fill="rgb(0, 0, 0)" stroke="rgb(189, 189, 189)" stroke-width="1px" opacity="0.25"></line><line x1="0" y1="29.48697916666666" x2="288.828125" y2="29.48697916666666" fill="rgb(0, 0, 0)" stroke="rgb(189, 189, 189)" stroke-width="1px" opacity="0.25"></line><line x1="0" y1="14.74348958333332" x2="288.828125" y2="14.74348958333332" fill="rgb(0, 0, 0)" stroke="rgb(189, 189, 189)" stroke-width="1px" opacity="0.25"></line><line x1="0" y1="0" x2="288.828125" y2="0" fill="rgb(0, 0, 0)" stroke="rgb(189, 189, 189)" stroke-width="1px" opacity="0.25"></line></g></g></g><g><g><line x1="0" y1="176.921875" x2="288.828125" y2="176.921875" fill="rgb(0, 0, 0)" stroke="rgb(153, 153, 153)" stroke-width="1.5px"></line></g></g><g><g><line x1="26.257102272727273" y1="0" x2="26.257102272727273" y2="176.921875" fill="rgb(0, 0, 0)" stroke="rgb(153, 153, 153)" stroke-width="1.5px"></line></g></g><g><g><g><g><g><path style="fill: none;" stroke="rgb(0, 119, 187)" stroke-width="2px" d="M34.13423295454545,-5.570826404098973L35.44708806818182,3.1484370758222737L36.75994318181818,-6.9625081508207005L38.07279829545454,10.477891182812982L39.38565340909091,15.149484404226532L40.69850852272727,19.298210287711136L42.01136363636363,23.241919450372183L43.32421875,25.97149325618607L44.63707386363636,40.42099985950723L45.94992897727273,51.2563029898172L47.26278409090909,49.18929054507977L48.57563920454545,49.232277519607905L49.88849431818182,59.411893618210286L51.20134943181818,63.85737190055016L52.51420454545455,66.57882951787641L53.827059659090914,52.66531820672045L55.13991477272727,55.01782715200699L56.45276988636364,51.696193677646484L57.765625,68.02138060306221L59.07848011363637,71.63663983913781L60.39133522727273,77.81251419142848L61.704190340909086,75.19979973651785L63.01704545454545,75.00385046948166L64.32990056818181,81.7955145734563L65.64275568181817,84.12806946407592L66.95561079545455,88.00776339755186L68.2684659090909,75.19828663928251L69.58132102272727,82.35587474800522L70.89417613636364,83.13728108261401L72.20703125,88.37332261454685L73.51988636363636,86.47643158322094L74.83274147727273,88.73177100056724L76.14559659090908,92.52618107058416L77.45845170454545,93.89473404560329L78.77130681818181,94.64714871258838L80.08416193181819,91.3516850240493L81.39701704545455,89.2527484451113L82.7098721590909,94.72250023176676L84.02272727272727,96.90581597176283L85.33558238636364,92.28607608520241L86.6484375,95.90682921216724L87.96129261363637,92.6109782865748L89.27414772727272,95.78823221036237L90.5870028409091,97.29536514728059L91.89985795454545,98.77523204982279L93.21271306818183,92.57999538738959L94.52556818181819,92.62729930421382L95.83842329545455,99.19934634644011L97.1512784090909,97.11923930475413L98.46413352272727,90.11947612539991L99.77698863636364,91.34903322646434L101.08984375,96.581613537731L102.40269886363636,96.84411183321212L103.71555397727272,93.71871549723521L105.0284090909091,91.04724987263756L106.34126420454545,93.0321639642037L107.65411931818183,100.32966292297604L108.96697443181817,92.56808794674727L110.27982954545455,100.31536290053872L111.5926846590909,91.8993329009921L112.90553977272728,91.94131967111491L114.21839488636364,94.9906378372678L115.53125,97.68132813348137L116.84410511363636,95.2898637686596L118.15696022727273,96.6018735945255L119.4698153409091,91.60270034365536L120.78267045454545,95.89223036796459L122.09552556818181,99.777858639604L123.40838068181817,99.59332932888984L124.72123579545455,95.61073667459897L126.0340909090909,90.04811223544853L127.34694602272728,93.43149973688183L128.65980113636363,97.43882342252972L129.97265625,98.48904858213469L131.28551136363635,97.87053155343068L132.59836647727272,97.10261680758694L133.9112215909091,98.449691605963L135.22407670454547,102.43914459617919L136.5369318181818,101.87267077635418L137.8497869318182,101.46749661145026L139.16264204545453,100.40154075669945L140.4754971590909,95.48272822136549L141.78835227272728,94.53897950836442L143.10120738636365,94.56515133943957L144.4140625,97.56176563429418L145.72691761363635,106.51033917295733L147.03977272727272,109.89243061802468L148.3526278409091,111.44870650866511L149.66548295454547,112.0449922256788L150.9783380681818,111.28810621830296L152.29119318181816,112.46268171141031L153.60404829545456,110.46916148533238L154.9169034090909,112.09452340715268L156.22975852272728,111.4390245705819L157.54261363636363,112.03988784475729L158.85546875,108.60660511253192L160.16832386363637,109.11000292194386L161.48117897727272,109.16162257032964L162.7940340909091,111.11522891469845L164.10688920454547,109.36943032697543L165.4197443181818,108.36197083646105L166.7325994318182,109.12536789641956L168.04545454545453,107.16546454674585L169.3583096590909,106.71621070464279L170.67116477272728,107.69900140177725L171.98401988636363,108.30570131267767L173.296875,108.51457959936083L174.60973011363635,108.8092721717431L175.92258522727275,107.78619736083465L177.2354403409091,105.57801448052247L178.54829545454544,105.88695095799437L179.8611505681818,105.08436676132919L181.1740056818182,105.40937325186106L182.48686079545456,106.11047032784987L183.7997159090909,105.58113174565202L185.11257102272725,104.9249749092414L186.42542613636365,106.00643156501948L187.73828125,105.27260953543066L189.05113636363637,105.08061046378798L190.36399147727272,104.65126633974977L191.6768465909091,106.1337049319393L192.98970170454547,104.79156662532965L194.3025568181818,105.18431273868872L195.6154119318182,106.10486783624532L196.92826704545453,105.54762632337216L198.2411221590909,105.69667218293078L199.55397727272728,104.17800351802701L200.86683238636363,103.85147780699175L202.1796875,103.78218234163856L203.49254261363637,104.32534733764852L204.80539772727272,102.37963927169906L206.1182528409091,103.2545863401769L207.43110795454544,104.00804804606383L208.74396306818184,103.66333658465135L210.0568181818182,104.05818432491677L211.36967329545453,102.31791251062596L212.6825284090909,103.20978186427227L213.99538352272728,102.15600689129735L215.30823863636365,102.49720217356852L216.62109375,101.57254936289651L217.93394886363635,102.3998367956665L219.24680397727272,103.47689332238903L220.5596590909091,103.26575035592658L221.87251420454547,100.9393470267524L223.1853693181818,102.8125296717427L224.49822443181816,103.47162942548717L225.81107954545456,103.73654116781253L227.1239346590909,101.4621609392764L228.43678977272728,100.19774892574064L229.74964488636363,102.6367219326688L231.0625,102.28795321840056L232.37535511363637,103.95544541739356L233.68821022727272,103.35776422997573L235.0010653409091,102.91281709495343L236.31392045454547,102.73955844700478L237.6267755681818,103.52604689185654L238.9396306818182,102.06745613636724L240.25248579545453,102.7772314532428L241.5653409090909,102.25222806536134L242.87819602272728,102.07232271021141L244.19105113636363,101.33833278274855L245.50390625,102.24623059434238L246.81676136363635,101.86066416604098L248.12961647727275,100.4505071101379L249.4424715909091,100.23111691875256L250.75532670454544,102.28210983084438L252.0681818181818,102.1879756717044L253.3810369318182,99.7740365344678L254.69389204545456,100.62664368595054L256.0067471590909,102.99812748591448L257.31960227272725,101.9375753999249L258.6324573863636,100.86129501427685L259.9453125,101.20892833512808L261.2581676136364,102.13845630137942L262.5710227272727,102.07782799870316L263.8838778409091,101.9868049330123" fill="none"></path></g><g><path style="fill: none;" stroke="rgb(255, 112, 67)" stroke-width="2px" d="M34.13423295454545,-2.9643046250786407L35.44708806818182,10.064639037572126L36.75994318181818,20.22576485750063L38.07279829545454,30.004575310960924L39.38565340909091,38.37795346009114L40.69850852272727,46.06978229343791L42.01136363636363,52.94680759322125L43.32421875,59.588100755564454L44.63707386363636,65.062331017046L45.94992897727273,70.40996428994166L47.26278409090909,75.10410103365602L48.57563920454545,79.57038794086843L49.88849431818182,83.53242254651583L51.20134943181818,87.14744044725853L52.51420454545455,90.46441651288842L53.827059659090914,93.24069129257849L55.13991477272727,95.7638234572678L56.45276988636364,98.04441552676701L57.765625,100.15828640489273L59.07848011363637,102.37040987856437L60.39133522727273,104.32343187476575L61.704190340909086,105.82483060687227L63.01704545454545,107.39538281821481L64.32990056818181,109.08233450103612L65.64275568181817,110.68816900523812L66.95561079545455,111.94267247103183L68.2684659090909,113.50776136350082L69.58132102272727,114.80510927274777L70.89417613636364,115.97447512467234L72.20703125,117.52449740815739L73.51988636363636,118.83135292205493L74.83274147727273,119.61077177998598L76.14559659090908,120.73897424469344L77.45845170454545,122.06658519879348L78.77130681818181,123.33947011264527L80.08416193181819,124.11537216967102L81.39701704545455,125.01695547990532L82.7098721590909,125.86220780583977L84.02272727272727,126.70736628698805L85.33558238636364,127.86662368772578L86.6484375,128.6010008912574L87.96129261363637,129.44048633070307L89.27414772727272,130.0378837123026L90.5870028409091,130.4032750522517L91.89985795454545,131.1962181639962L93.21271306818183,131.85963178008993L94.52556818181819,132.30290726486663L95.83842329545455,133.5149078412135L97.1512784090909,134.00163518699839L98.46413352272727,134.75375886153034L99.77698863636364,135.15618166051328L101.08984375,135.8499453998988L102.40269886363636,136.53432659192572L103.71555397727272,137.28740902191245L105.0284090909091,137.53518808163088L106.34126420454545,138.49704380333927L107.65411931818183,138.99254665266403L108.96697443181817,139.44122356906715L110.27982954545455,139.80924418766222L111.5926846590909,140.33629309451808L112.90553977272728,140.90944181495087L114.21839488636364,140.88301208285395L115.53125,141.4792301062258L116.84410511363636,141.98540627300562L118.15696022727273,142.22253205035025L119.4698153409091,142.32026916551553L120.78267045454545,143.09438636365437L122.09552556818181,143.55272191615083L123.40838068181817,144.09202877372894L124.72123579545455,144.23762030013387L126.0340909090909,144.80732726475637L127.34694602272728,145.3835054952136L128.65980113636363,145.8820402643955L129.97265625,145.989559743569L131.28551136363635,146.3580459858695L132.59836647727272,146.68039872480185L133.9112215909091,147.17964090728785L135.22407670454547,147.26329534254697L136.5369318181818,148.04442155980283L137.8497869318182,148.2626756165536L139.16264204545453,148.1826425288957L140.4754971590909,148.4065437138421L141.78835227272728,148.93465891840737L143.10120738636365,149.18254025996458L144.4140625,149.67051347343192L145.72691761363635,151.1016124878429L147.03977272727272,153.9007158166163L148.3526278409091,156.22509414166697L149.66548295454547,157.84592318144982L150.9783380681818,159.10970864601427L152.29119318181816,159.86521747837895L153.60404829545456,160.72931705194193L154.9169034090909,161.08088672026142L156.22975852272728,161.6649903403957L157.54261363636363,162.05229582262533L158.85546875,162.44087706593237L160.16832386363637,162.58623828036747L161.48117897727272,162.61122109506704L162.7940340909091,162.8774936623397L164.10688920454547,162.90285959497973L165.4197443181818,163.27304011222222L166.7325994318182,163.35231408304404L168.04545454545453,163.5846174512656L169.3583096590909,163.55091135780032L170.67116477272728,163.8775673942753L171.98401988636363,164.0452247402481L173.296875,164.08300875388895L174.60973011363635,164.28252845683775L175.92258522727275,164.26600514094295L177.2354403409091,164.37701222139503L178.54829545454544,164.51286656681535L179.8611505681818,164.6359591108926L181.1740056818182,164.61851022639146L182.48686079545456,164.7103269866487L183.7997159090909,164.83503842469617L185.11257102272725,164.971756477107L186.42542613636365,165.20108761037167L187.73828125,165.14235750851367L189.05113636363637,165.12208112410977L190.36399147727272,165.4832335355318L191.6768465909091,165.50920194111853L192.98970170454547,165.73218791519716L194.3025568181818,165.60087648029725L195.6154119318182,165.7129827046427L196.92826704545453,165.76784508940742L198.2411221590909,165.63741041457735L199.55397727272728,165.92506939905624L200.86683238636363,166.0593644615929L202.1796875,166.1667526515399L203.49254261363637,166.2061451557087L204.80539772727272,166.1903537335104L206.1182528409091,166.26449396211945L207.43110795454544,166.4229616369374L208.74396306818184,166.53718998925729L210.0568181818182,166.68666136278597L211.36967329545453,166.85579253128316L212.6825284090909,166.76104570726864L213.99538352272728,166.83948850092042L215.30823863636365,166.79008517340432L216.62109375,167.03374785426905L217.93394886363635,167.17719531934026L219.24680397727272,167.37889109488478L220.5596590909091,167.29056679735243L221.87251420454547,167.18331894961324L223.1853693181818,167.00813141919102L224.49822443181816,167.0873123449733L225.81107954545456,167.09288505753153L227.1239346590909,167.19177057538906L228.43678977272728,167.08736048067112L229.74964488636363,167.2036468676836L231.0625,167.31294272983143L232.37535511363637,167.34996471548334L233.68821022727272,167.3868170711568L235.0010653409091,167.3873618939174L236.31392045454547,167.40081952519753L237.6267755681818,167.32016935305663L238.9396306818182,167.3028898355945L240.25248579545453,167.26063513675894L241.5653409090909,167.44031915454138L242.87819602272728,167.41442289862343L244.19105113636363,167.32035380810206L245.50390625,167.38023344746367L246.81676136363635,167.4301703097736L248.12961647727275,167.3735804609363L249.4424715909091,167.4073480101739L250.75532670454544,167.36315702326579L252.0681818181818,167.4763847815983L253.3810369318182,167.37470670196524L254.69389204545456,167.1986033410811L256.0067471590909,167.28093047980803L257.31960227272725,167.3638175257408L258.6324573863636,167.3550805348269L259.9453125,167.20590508579042L261.2581676136364,167.4245958127966L262.5710227272727,167.45300545787623L263.8838778409091,167.49816343181908" fill="none"></path></g></g></g></g><g opacity="0.2"><g><g><g><path style="fill: none;" stroke="rgb(0, 119, 187)" stroke-width="2px" d="M31.508522727272727,-22.59310112831496L32.821377840909086,11.007561852534598L34.13423295454545,13.357227469173557L35.44708806818182,15.861206934476886L36.75994318181818,-21.874188410118222L38.07279829545454,36.374851619359106L39.38565340909091,22.114503229657803L40.69850852272727,25.498721929887925L42.01136363636363,29.144606299698353L43.32421875,30.060506445666142L44.63707386363636,62.07827491189042L45.94992897727273,67.50161579002935L47.26278409090909,46.089646568366625L48.57563920454545,49.29674706701189L49.88849431818182,74.67976700405899L51.20134943181818,70.52518298973638L52.51420454545455,70.66086669266224L53.827059659090914,31.795509070002772L55.13991477272727,58.54654412375141L56.45276988636364,46.7137828140209L57.765625,92.5090449587442L59.07848011363637,77.05951327582198L60.39133522727273,87.07630991749465L61.704190340909086,71.28073206528398L63.01704545454545,74.70992674942437L64.32990056818181,91.98300697576875L65.64275568181817,87.62690102650473L66.95561079545455,93.8273035258365L68.2684659090909,55.9840730310728L69.58132102272727,93.09225639840588L70.89417613636364,84.30939055094495L72.20703125,96.2273847774292L73.51988636363636,83.63109506558004L74.83274147727273,92.11478010565042L76.14559659090908,98.21779615447545L77.45845170454545,95.94756350355843L78.77130681818181,95.7757707115573L80.08416193181819,86.40848949520537L81.39701704545455,86.10434357821941L82.7098721590909,102.92712790938094L84.02272727272727,100.18078958118954L85.33558238636364,85.35646625608206L86.6484375,101.3379589022758L87.96129261363637,87.66720189837116L89.27414772727272,100.55411309593666L90.5870028409091,99.5560645526275L91.89985795454545,100.9950324036181L93.21271306818183,83.28714039378488L94.52556818181819,92.69825517944992L95.83842329545455,109.05741690976234L97.1512784090909,93.99907874222845L98.46413352272727,79.61983135637516L99.77698863636364,93.19336887806031L101.08984375,104.43048400462914L102.40269886363636,97.23785927643377L103.71555397727272,89.03062099327022L105.0284090909091,87.04005143574128L106.34126420454545,96.00953510155279L107.65411931818183,111.27591136113429L108.96697443181817,80.92572548240423L110.27982954545455,111.93627533122586L111.5926846590909,79.27528790167221L112.90553977272728,92.00429982629913L114.21839488636364,99.5646150864971L115.53125,101.71736357780173L116.84410511363636,91.70266722142696L118.15696022727273,98.56988833332434L119.4698153409091,84.10394046735018L120.78267045454545,102.32652540442842L122.09552556818181,105.60630104706311L123.40838068181817,99.31653536281857L124.72123579545455,89.63684769316265L126.0340909090909,81.70417557672286L127.34694602272728,98.50658098903173L128.65980113636363,103.44980895100161L129.97265625,100.06438632154214L131.28551136363635,96.94275601037467L132.59836647727272,95.95074468882132L133.9112215909091,100.47030380352709L135.22407670454547,108.42332408150347L136.5369318181818,101.02296004661667L137.8497869318182,100.85973536409438L139.16264204545453,98.80260697457317L140.4754971590909,88.10450941836461L141.78835227272728,93.12335643886277L143.10120738636365,94.60440908605233L144.4140625,102.05668707657605L145.72691761363635,119.93319948095206L147.03977272727272,114.96556778562564L148.3526278409091,113.78312034462579L149.66548295454547,112.93942080119933L150.9783380681818,110.15277720723921L152.29119318181816,114.22454495107132L153.60404829545456,107.47888114621551L154.9169034090909,114.5325662898831L156.22975852272728,110.4557763157257L157.54261363636363,112.94118275602037L158.85546875,103.45668101419383L160.16832386363637,109.86509963606173L161.48117897727272,109.23905204290833L162.7940340909091,114.04563843125166L164.10688920454547,106.7507324453909L165.4197443181818,106.85078160068952L166.7325994318182,110.27046348635727L168.04545454545453,104.22560952223526L169.3583096590909,106.04232994148816L170.67116477272728,109.173187447479L171.98401988636363,109.2157511790283L173.296875,108.82789702938558L174.60973011363635,109.25131103031646L175.92258522727275,106.25158514447199L177.2354403409091,102.26574016005421L178.54829545454544,106.35035567420223L179.8611505681818,103.88049046633142L181.1740056818182,105.89688298765878L182.48686079545456,107.16211594183306L183.7997159090909,104.78712387235524L185.11257102272725,103.94073965462545L186.42542613636365,107.62861654868658L187.73828125,104.17187649104744L189.05113636363637,104.79261185632396L190.36399147727272,104.00725015369244L191.6768465909091,108.35736282022359L192.98970170454547,102.77835916541517L194.3025568181818,105.7734319087273L195.6154119318182,107.48570048258017L196.92826704545453,104.71176405406246L198.2411221590909,105.92024097226869L199.55397727272728,101.9000005206714L200.86683238636363,103.36168924043886L202.1796875,103.67823914360875L203.49254261363637,105.14009483166348L204.80539772727272,99.46107717277482L206.1182528409091,104.56700694289367L207.43110795454544,105.13824060489424L208.74396306818184,103.14626939253259L210.0568181818182,104.65045593531491L211.36967329545453,99.70750478918973L212.6825284090909,104.54758589474173L213.99538352272728,100.5753444318349L215.30823863636365,103.0089950969753L216.62109375,100.1855701468885L217.93394886363635,103.64076794482145L219.24680397727272,105.09247811247283L220.5596590909091,102.9490359062329L221.87251420454547,97.44974203299108L223.1853693181818,105.62230363922814L224.49822443181816,104.4602790561039L225.81107954545456,104.13390878130059L227.1239346590909,98.0505905964722L228.43678977272728,98.30113090543696L229.74964488636363,106.29518144306104L231.0625,101.7648001469982L232.37535511363637,106.456683715883L233.68821022727272,102.46124244884896L235.0010653409091,102.24539639241993L236.31392045454547,102.47967047508183L237.6267755681818,104.70577955913419L238.9396306818182,99.87957000313327L240.25248579545453,103.84189442855615L241.5653409090909,101.4647229835391L242.87819602272728,101.80246467748657L244.19105113636363,100.23734789155424L245.50390625,103.6080773117331L246.81676136363635,101.28231452358887L248.12961647727275,98.33527152628326L249.4424715909091,99.90203163167462L250.75532670454544,105.35859919898212L252.0681818181818,102.04677443299443L253.3810369318182,96.15312782861292L254.69389204545456,101.90555441317457L256.0067471590909,106.55535318586044L257.31960227272725,100.34674727094048L258.6324573863636,99.24687443580478L259.9453125,101.73037831640491L261.2581676136364,103.53274825075641L262.5710227272727,101.98688554468873L263.8838778409091,101.85027033447597" fill="none"></path></g><g><path style="fill: none;" stroke="rgb(255, 112, 67)" stroke-width="2px" d="M31.508522727272727,-8.94416424321633L32.821377840909086,6.448993673237655L34.13423295454545,17.923265282375105L35.44708806818182,29.06096397557605L36.75994318181818,35.211451744815946L38.07279829545454,44.52496917266399L39.38565340909091,50.86207476025447L40.69850852272727,57.565666950618215L42.01136363636363,63.239890862101056L43.32421875,69.53702951439965L44.63707386363636,73.26724165709066L45.94992897727273,78.42764263398323L47.26278409090909,82.14331974787638L48.57563920454545,86.26868431192511L49.88849431818182,89.47487087889263L51.20134943181818,92.56963687141734L52.51420454545455,95.43969870048264L53.827059659090914,97.40501210760945L55.13991477272727,99.5484718894586L56.45276988636364,101.4652766152285L57.765625,103.32907769759186L59.07848011363637,105.68858565537568L60.39133522727273,107.25295987181985L61.704190340909086,108.07692640003125L63.01704545454545,109.75120968852812L64.32990056818181,111.61276109291549L65.64275568181817,113.09692022902891L66.95561079545455,113.82442742011818L68.2684659090909,115.85539451536411L69.58132102272727,116.7511310436918L70.89417613636364,117.72852385230362L72.20703125,119.849530793416L73.51988636363636,120.79163617268205L74.83274147727273,120.77990005964722L76.14559659090908,122.43127793547075L77.45845170454545,124.05800162550682L78.77130681818181,125.24879748087065L80.08416193181819,125.27922525427613L81.39701704545455,126.36933044460602L82.7098721590909,127.13008629437536L84.02272727272727,127.97510400849083L85.33558238636364,129.60550978865163L86.6484375,129.70256669648612L87.96129261363637,130.69971448982443L89.27414772727272,130.93397978468175L90.5870028409091,130.951362062168L91.89985795454545,132.3856328316033L93.21271306818183,132.8547522042257L94.52556818181819,132.9678204920298L95.83842329545455,135.3329087057306L97.1512784090909,134.73172620567493L98.46413352272727,135.8819443733276L99.77698863636364,135.75981585898745L101.08984375,136.8905910089767L102.40269886363636,137.56089837996598L103.71555397727272,138.41703266689242L105.0284090909091,137.90685667120852L106.34126420454545,139.93982738590176L107.65411931818183,139.73580092665117L108.96697443181817,140.1142389436718L110.27982954545455,140.36127511555483L111.5926846590909,141.1268664548018L112.90553977272728,141.7691648956L114.21839488636364,140.8433674847086L115.53125,142.37355714128353L116.84410511363636,142.74467052317533L118.15696022727273,142.57822071636716L119.4698153409091,142.4668748382634L120.78267045454545,144.2555621608626L122.09552556818181,144.24022524489556L123.40838068181817,144.90098906009612L124.72123579545455,144.4560075897413L126.0340909090909,145.6618877116901L127.34694602272728,146.24777284089942L128.65980113636363,146.62984241816835L129.97265625,146.15083896232923L131.28551136363635,146.9107753493202L132.59836647727272,147.16392783320043L133.9112215909091,147.92850418101685L135.22407670454547,147.38877699543565L136.5369318181818,149.21611088568653L137.8497869318182,148.5900567016797L139.16264204545453,148.06259289740893L140.4754971590909,148.74239549126165L141.78835227272728,149.72683172525527L143.10120738636365,149.55436227230044L144.4140625,150.40247329363288L145.72691761363635,153.24826100945938L147.03977272727272,158.0993708097764L148.3526278409091,159.71166162924297L149.66548295454547,160.27716674112403L150.9783380681818,161.005386842861L152.29119318181816,160.99848072692598L153.60404829545456,162.02546641228642L154.9169034090909,161.60824122274062L156.22975852272728,162.54114577059713L157.54261363636363,162.6332540459698L158.85546875,163.0237489308929L160.16832386363637,162.80428010202013L161.48117897727272,162.64869531711642L162.7940340909091,163.2769025132487L164.10688920454547,162.9409084939398L165.4197443181818,163.82831088808598L166.7325994318182,163.47122503927676L168.04545454545453,163.93307250359794L169.3583096590909,163.5003522176024L170.67116477272728,164.3675514489878L171.98401988636363,164.2967107592073L173.296875,164.13968477435023L174.60973011363635,164.58180801126096L175.92258522727275,164.24122016710075L177.2354403409091,164.5435228420732L178.54829545454544,164.71664808494583L179.8611505681818,164.82059792700844L181.1740056818182,164.59233689963972L182.48686079545456,164.84805212703455L183.7997159090909,165.0221055817674L185.11257102272725,165.17683355572322L186.42542613636365,165.54508431026866L187.73828125,165.05426235572668L189.05113636363637,165.09166654750393L190.36399147727272,166.02496215266487L191.6768465909091,165.54815454949858L192.98970170454547,166.06666687631514L194.3025568181818,165.4039093279474L195.6154119318182,165.88114204116087L196.92826704545453,165.8501386665545L198.2411221590909,165.4417584023322L199.55397727272728,166.35655787577466L200.86683238636363,166.2608070553979L202.1796875,166.32783493646033L203.49254261363637,166.26523391196193L204.80539772727272,166.16666660021292L206.1182528409091,166.37570430503305L207.43110795454544,166.66066314916438L208.74396306818184,166.7085325177371L210.0568181818182,166.910868423079L211.36967329545453,167.1094892840289L212.6825284090909,166.61892547124685L213.99538352272728,166.95715269139814L215.30823863636365,166.7159801821302L216.62109375,167.39924187556608L217.93394886363635,167.39236651694713L219.24680397727272,167.68143475820156L220.5596590909091,167.15808035105388L221.87251420454547,167.02244717800446L223.1853693181818,166.74535012355773L224.49822443181816,167.20608373364666L225.81107954545456,167.10124412636893L227.1239346590909,167.3400988521753L228.43678977272728,166.93074533859422L229.74964488636363,167.37807644820228L231.0625,167.4768865230532L232.37535511363637,167.40549769396117L233.68821022727272,167.44209560466697L235.0010653409091,167.38817912805825L236.31392045454547,167.4210059721178L237.6267755681818,167.19919409484524L238.9396306818182,167.2769705594013L240.25248579545453,167.19725308850562L241.5653409090909,167.709845181215L242.87819602272728,167.37557851474654L244.19105113636363,167.17925017231997L245.50390625,167.47005290650608L246.81676136363635,167.50507560323845L248.12961647727275,167.28869568768036L249.4424715909091,167.45799933403032L250.75532670454544,167.29687054290358L252.0681818181818,167.64622641909713L253.3810369318182,167.22218958251565L254.69389204545456,166.93444829975488L256.0067471590909,167.40442118789846L257.31960227272725,167.48814809463997L258.6324573863636,167.34197504845602L259.9453125,166.98214191223573L261.2581676136364,167.75263190330588L262.5710227272727,167.4956199254957L263.8838778409091,167.56590039273337" fill="none"></path></g></g></g></g></g></g><g transform="translate(41, 176)" clip-path="url(#clip_1)"><clipPath id="clip_1"><rect width="288" height="23"></rect></clipPath><g><g><line x1="0" y1="0" x2="0" y2="5" style="visibility: inherit;" fill="rgb(0, 0, 0)" stroke="rgb(204, 204, 204)" stroke-width="1px"></line><line x1="26.257102272727273" y1="0" x2="26.257102272727273" y2="5" style="visibility: inherit;" fill="rgb(0, 0, 0)" stroke="rgb(204, 204, 204)" stroke-width="1px"></line><line x1="52.51420454545455" y1="0" x2="52.51420454545455" y2="5" style="visibility: inherit;" fill="rgb(0, 0, 0)" stroke="rgb(204, 204, 204)" stroke-width="1px"></line><line x1="78.77130681818181" y1="0" x2="78.77130681818181" y2="5" style="visibility: inherit;" fill="rgb(0, 0, 0)" stroke="rgb(204, 204, 204)" stroke-width="1px"></line><line x1="105.0284090909091" y1="0" x2="105.0284090909091" y2="5" style="visibility: inherit;" fill="rgb(0, 0, 0)" stroke="rgb(204, 204, 204)" stroke-width="1px"></line><line x1="131.28551136363635" y1="0" x2="131.28551136363635" y2="5" style="visibility: inherit;" fill="rgb(0, 0, 0)" stroke="rgb(204, 204, 204)" stroke-width="1px"></line><line x1="157.54261363636363" y1="0" x2="157.54261363636363" y2="5" style="visibility: inherit;" fill="rgb(0, 0, 0)" stroke="rgb(204, 204, 204)" stroke-width="1px"></line><line x1="183.7997159090909" y1="0" x2="183.7997159090909" y2="5" style="visibility: inherit;" fill="rgb(0, 0, 0)" stroke="rgb(204, 204, 204)" stroke-width="1px"></line><line x1="210.0568181818182" y1="0" x2="210.0568181818182" y2="5" style="visibility: inherit;" fill="rgb(0, 0, 0)" stroke="rgb(204, 204, 204)" stroke-width="1px"></line><line x1="236.31392045454547" y1="0" x2="236.31392045454547" y2="5" style="visibility: inherit;" fill="rgb(0, 0, 0)" stroke="rgb(204, 204, 204)" stroke-width="1px"></line><line x1="262.5710227272727" y1="0" x2="262.5710227272727" y2="5" style="visibility: inherit;" fill="rgb(0, 0, 0)" stroke="rgb(204, 204, 204)" stroke-width="1px"></line><line x1="288.828125" y1="0" x2="288.828125" y2="5" style="visibility: inherit;" fill="rgb(0, 0, 0)" stroke="rgb(204, 204, 204)" stroke-width="1px"></line></g><g transform="translate(0, 8)"><text style="text-anchor: middle; visibility: hidden; font-family: Roboto, sans-serif; font-size: 12px; font-weight: 200;" x="0" y="0" dx="0em" dy="0.95em" fill="rgb(255, 255, 255)" stroke="none" stroke-width="1px">-20</text><text style="text-anchor: middle; visibility: inherit; font-family: Roboto, sans-serif; font-size: 12px; font-weight: 200;" x="26.257102272727273" y="0" dx="0em" dy="0.95em" fill="rgb(255, 255, 255)" stroke="none" stroke-width="1px">0</text><text style="text-anchor: middle; visibility: inherit; font-family: Roboto, sans-serif; font-size: 12px; font-weight: 200;" x="52.51420454545455" y="0" dx="0em" dy="0.95em" fill="rgb(255, 255, 255)" stroke="none" stroke-width="1px">20</text><text style="text-anchor: middle; visibility: inherit; font-family: Roboto, sans-serif; font-size: 12px; font-weight: 200;" x="78.77130681818181" y="0" dx="0em" dy="0.95em" fill="rgb(255, 255, 255)" stroke="none" stroke-width="1px">40</text><text style="text-anchor: middle; visibility: inherit; font-family: Roboto, sans-serif; font-size: 12px; font-weight: 200;" x="105.0284090909091" y="0" dx="0em" dy="0.95em" fill="rgb(255, 255, 255)" stroke="none" stroke-width="1px">60</text><text style="text-anchor: middle; visibility: inherit; font-family: Roboto, sans-serif; font-size: 12px; font-weight: 200;" x="131.28551136363635" y="0" dx="0em" dy="0.95em" fill="rgb(255, 255, 255)" stroke="none" stroke-width="1px">80</text><text style="text-anchor: middle; visibility: inherit; font-family: Roboto, sans-serif; font-size: 12px; font-weight: 200;" x="157.54261363636363" y="0" dx="0em" dy="0.95em" fill="rgb(255, 255, 255)" stroke="none" stroke-width="1px">100</text><text style="text-anchor: middle; visibility: inherit; font-family: Roboto, sans-serif; font-size: 12px; font-weight: 200;" x="183.7997159090909" y="0" dx="0em" dy="0.95em" fill="rgb(255, 255, 255)" stroke="none" stroke-width="1px">120</text><text style="text-anchor: middle; visibility: inherit; font-family: Roboto, sans-serif; font-size: 12px; font-weight: 200;" x="210.0568181818182" y="0" dx="0em" dy="0.95em" fill="rgb(255, 255, 255)" stroke="none" stroke-width="1px">140</text><text style="text-anchor: middle; visibility: inherit; font-family: Roboto, sans-serif; font-size: 12px; font-weight: 200;" x="236.31392045454547" y="0" dx="0em" dy="0.95em" fill="rgb(255, 255, 255)" stroke="none" stroke-width="1px">160</text><text style="text-anchor: middle; visibility: inherit; font-family: Roboto, sans-serif; font-size: 12px; font-weight: 200;" x="262.5710227272727" y="0" dx="0em" dy="0.95em" fill="rgb(255, 255, 255)" stroke="none" stroke-width="1px">180</text><text style="text-anchor: middle; visibility: hidden; font-family: Roboto, sans-serif; font-size: 12px; font-weight: 200;" x="288.828125" y="0" dx="0em" dy="0.95em" fill="rgb(255, 255, 255)" stroke="none" stroke-width="1px">200</text></g><line x1="0" y1="0" x2="288.828125" y2="0" fill="rgb(0, 0, 0)" stroke="rgb(204, 204, 204)" stroke-width="1px"></line></g></g></g></g></svg>