<svg viewBox="0 0 330 200" xmlns="http://www.w3.org/2000/svg"><g><g><g><g><g><line x1="50" y1="176.984375" x2="45" y2="176.984375" style="visibility: inherit;" fill="rgb(0, 0, 0)" stroke="rgb(204, 204, 204)" stroke-width="1px"></line><line x1="50" y1="157.31944444444449" x2="45" y2="157.31944444444449" style="visibility: inherit;" fill="rgb(0, 0, 0)" stroke="rgb(204, 204, 204)" stroke-width="1px"></line><line x1="50" y1="137.65451388888889" x2="45" y2="137.65451388888889" style="visibility: inherit;" fill="rgb(0, 0, 0)" stroke="rgb(204, 204, 204)" stroke-width="1px"></line><line x1="50" y1="117.98958333333337" x2="45" y2="117.98958333333337" style="visibility: inherit;" fill="rgb(0, 0, 0)" stroke="rgb(204, 204, 204)" stroke-width="1px"></line><line x1="50" y1="98.32465277777779" x2="45" y2="98.32465277777779" style="visibility: inherit;" fill="rgb(0, 0, 0)" stroke="rgb(204, 204, 204)" stroke-width="1px"></line><line x1="50" y1="78.65972222222221" x2="45" y2="78.65972222222221" style="visibility: inherit;" fill="rgb(0, 0, 0)" stroke="rgb(204, 204, 204)" stroke-width="1px"></line><line x1="50" y1="58.99479166666667" x2="45" y2="58.99479166666667" style="visibility: inherit;" fill="rgb(0, 0, 0)" stroke="rgb(204, 204, 204)" stroke-width="1px"></line><line x1="50" y1="39.32986111111111" x2="45" y2="39.32986111111111" style="visibility: inherit;" fill="rgb(0, 0, 0)" stroke="rgb(204, 204, 204)" stroke-width="1px"></line><line x1="50" y1="19.664930555555586" x2="45" y2="19.664930555555586" style="visibility: inherit;" fill="rgb(0, 0, 0)" stroke="rgb(204, 204, 204)" stroke-width="1px"></line><line x1="50" y1="0" x2="45" y2="0" style="visibility: inherit;" fill="rgb(0, 0, 0)" stroke="rgb(204, 204, 204)" stroke-width="1px"></line></g><g transform="translate(40, 0)"><text style="text-anchor: end; visibility: hidden; font-family: Roboto, sans-serif; font-size: 12px; font-weight: 200;" x="0" y="176.984375" dx="0em" dy="0.3em" fill="rgb(255, 255, 255)" stroke="none" stroke-width="1px">0.55</text><text style="text-anchor: end; visibility: inherit; font-family: Roboto, sans-serif; font-size: 12px; font-weight: 200;" x="0" y="157.31944444444449" dx="0em" dy="0.3em" fill="rgb(255, 255, 255)" stroke="none" stroke-width="1px">0.6</text><text style="text-anchor: end; visibility: hidden; font-family: Roboto, sans-serif; font-size: 12px; font-weight: 200;" x="0" y="137.65451388888889" dx="0em" dy="0.3em" fill="rgb(255, 255, 255)" stroke="none" stroke-width="1px">0.65</text><text style="text-anchor: end; visibility: inherit; font-family: Roboto, sans-serif; font-size: 12px; font-weight: 200;" x="0" y="117.98958333333337" dx="0em" dy="0.3em" fill="rgb(255, 255, 255)" stroke="none" stroke-width="1px">0.7</text><text style="text-anchor: end; visibility: hidden; font-family: Roboto, sans-serif; font-size: 12px; font-weight: 200;" x="0" y="98.32465277777779" dx="0em" dy="0.3em" fill="rgb(255, 255, 255)" stroke="none" stroke-width="1px">0.75</text><text style="text-anchor: end; visibility: inherit; font-family: Roboto, sans-serif; font-size: 12px; font-weight: 200;" x="0" y="78.65972222222221" dx="0em" dy="0.3em" fill="rgb(255, 255, 255)" stroke="none" stroke-width="1px">0.8</text><text style="text-anchor: end; visibility: hidden; font-family: Roboto, sans-serif; font-size: 12px; font-weight: 200;" x="0" y="58.99479166666667" dx="0em" dy="0.3em" fill="rgb(255, 255, 255)" stroke="none" stroke-width="1px">0.85</text><text style="text-anchor: end; visibility: inherit; font-family: Roboto, sans-serif; font-size: 12px; font-weight: 200;" x="0" y="39.32986111111111" dx="0em" dy="0.3em" fill="rgb(255, 255, 255)" stroke="none" stroke-width="1px">0.9</text><text style="text-anchor: end; visibility: hidden; font-family: Roboto, sans-serif; font-size: 12px; font-weight: 200;" x="0" y="19.664930555555586" dx="0em" dy="0.3em" fill="rgb(255, 255, 255)" stroke="none" stroke-width="1px">0.95</text><text style="text-anchor: end; visibility: hidden; font-family: Roboto, sans-serif; font-size: 12px; font-weight: 200;" x="0" y="0" dx="0em" dy="0.3em" fill="rgb(255, 255, 255)" stroke="none" stroke-width="1px">1</text></g><line x1="50" y1="0" x2="50" y2="176.984375" fill="rgb(0, 0, 0)" stroke="rgb(204, 204, 204)" stroke-width="1px"></line></g></g><g transform="translate(50, 0)" clip-path="url(#clip_0)"><clipPath id="clip_0"><rect width="280" height="176"></rect></clipPath><g><g><g><line x1="0" y1="0" x2="0" y2="176.984375" fill="rgb(0, 0, 0)" stroke="rgb(189, 189, 189)" stroke-width="1px" opacity="0.25"></line><line x1="25.454545454545457" y1="0" x2="25.454545454545457" y2="176.984375" fill="rgb(0, 0, 0)" stroke="rgb(189, 189, 189)" stroke-width="1px" opacity="0.25"></line><line x1="50.909090909090914" y1="0" x2="50.909090909090914" y2="176.984375" fill="rgb(0, 0, 0)" stroke="rgb(189, 189, 189)" stroke-width="1px" opacity="0.25"></line><line x1="76.36363636363636" y1="0" x2="76.36363636363636" y2="176.984375" fill="rgb(0, 0, 0)" stroke="rgb(189, 189, 189)" stroke-width="1px" opacity="0.25"></line><line x1="101.81818181818183" y1="0" x2="101.81818181818183" y2="176.984375" fill="rgb(0, 0, 0)" stroke="rgb(189, 189, 189)" stroke-width="1px" opacity="0.25"></line><line x1="127.27272727272727" y1="0" x2="127.27272727272727" y2="176.984375" fill="rgb(0, 0, 0)" stroke="rgb(189, 189, 189)" stroke-width="1px" opacity="0.25"></line><line x1="152.72727272727272" y1="0" x2="152.72727272727272" y2="176.984375" fill="rgb(0, 0, 0)" stroke="rgb(189, 189, 189)" stroke-width="1px" opacity="0.25"></line><line x1="178.1818181818182" y1="0" x2="178.1818181818182" y2="176.984375" fill="rgb(0, 0, 0)" stroke="rgb(189, 189, 189)" stroke-width="1px" opacity="0.25"></line><line x1="203.63636363636365" y1="0" x2="203.63636363636365" y2="176.984375" fill="rgb(0, 0, 0)" stroke="rgb(189, 189, 189)" stroke-width="1px" opacity="0.25"></line><line x1="229.0909090909091" y1="0" x2="229.0909090909091" y2="176.984375" fill="rgb(0, 0, 0)" stroke="rgb(189, 189, 189)" stroke-width="1px" opacity="0.25"></line><line x1="254.54545454545453" y1="0" x2="254.54545454545453" y2="176.984375" fill="rgb(0, 0, 0)" stroke="rgb(189, 189, 189)" stroke-width="1px" opacity="0.25"></line><line x1="280" y1="0" x2="280" y2="176.984375" fill="rgb(0, 0, 0)" stroke="rgb(189, 189, 189)" stroke-width="1px" opacity="0.25"></line></g><g><line x1="0" y1="176.984375" x2="280" y2="176.984375" fill="rgb(0, 0, 0)" stroke="rgb(189, 189, 189)" stroke-width="1px" opacity="0.25"></line><line x1="0" y1="157.31944444444449" x2="280" y2="157.31944444444449" fill="rgb(0, 0, 0)" stroke="rgb(189, 189, 189)" stroke-width="1px" opacity="0.25"></line><line x1="0" y1="137.65451388888889" x2="280" y2="137.65451388888889" fill="rgb(0, 0, 0)" stroke="rgb(189, 189, 189)" stroke-width="1px" opacity="0.25"></line><line x1="0" y1="117.98958333333337" x2="280" y2="117.98958333333337" fill="rgb(0, 0, 0)" stroke="rgb(189, 189, 189)" stroke-width="1px" opacity="0.25"></line><line x1="0" y1="98.32465277777779" x2="280" y2="98.32465277777779" fill="rgb(0, 0, 0)" stroke="rgb(189, 189, 189)" stroke-width="1px" opacity="0.25"></line><line x1="0" y1="78.65972222222221" x2="280" y2="78.65972222222221" fill="rgb(0, 0, 0)" stroke="rgb(189, 189, 189)" stroke-width="1px" opacity="0.25"></line><line x1="0" y1="58.99479166666667" x2="280" y2="58.99479166666667" fill="rgb(0, 0, 0)" stroke="rgb(189, 189, 189)" stroke-width="1px" opacity="0.25"></line><line x1="0" y1="39.32986111111111" x2="280" y2="39.32986111111111" fill="rgb(0, 0, 0)" stroke="rgb(189, 189, 189)" stroke-width="1px" opacity="0.25"></line><line x1="0" y1="19.664930555555586" x2="280" y2="19.664930555555586" fill="rgb(0, 0, 0)" stroke="rgb(189, 189, 189)" stroke-width="1px" opacity="0.25"></line><line x1="0" y1="0" x2="280" y2="0" fill="rgb(0, 0, 0)" stroke="rgb(189, 189, 189)" stroke-width="1px" opacity="0.25"></line></g></g></g><g><g><line x1="0" y1="393.29861111111114" x2="280" y2="393.29861111111114" fill="rgb(0, 0, 0)" stroke="rgb(153, 153, 153)" stroke-width="1.5px"></line></g></g><g><g><line x1="25.454545454545457" y1="0" x2="25.454545454545457" y2="176.984375" fill="rgb(0, 0, 0)" stroke="rgb(153, 153, 153)" stroke-width="1.5px"></line></g></g><g><g><g><g><g><path style="fill: none;" stroke="rgb(0, 119, 187)" stroke-width="2px" d="M31.818181818181817,187.9267135477871L33.09090909090909,173.54395262614247L34.36363636363637,164.35532434544032L35.63636363636363,170.88056976459987L36.90909090909091,155.06627751600047L38.18181818181818,148.0049174879408L39.45454545454545,144.6906328101179L40.72727272727273,139.24708171971383L42,135.72698546837765L43.27272727272727,122.40661026117354L44.54545454545455,113.06180203662542L45.81818181818182,112.17182423059737L47.09090909090909,110.28159572840734L48.36363636363637,104.0776608251272L49.63636363636364,98.96699629811128L50.909090909090914,97.0309106023734L52.18181818181819,97.48383424434172L53.45454545454545,99.85448580379402L54.72727272727273,96.8207482791774L56,88.28406322924914L57.27272727272727,87.97337091141812L58.54545454545454,84.26727858639451L59.81818181818181,87.21011399534542L61.090909090909086,89.16956110143308L62.36363636363636,83.85482668030853L63.63636363636363,81.69929145896648L64.9090909090909,78.4362441177115L66.18181818181819,83.25942803274344L67.45454545454545,79.59835806904383L68.72727272727273,78.33814724339508L70,75.28938917832174L71.27272727272727,77.81935627694973L72.54545454545455,75.07498809267251L73.81818181818181,72.65338878017411L75.0909090909091,71.84623984744584L76.36363636363636,71.43911357141926L77.63636363636364,73.7655058928311L78.9090909090909,75.4842466102822L80.18181818181819,71.28441726927088L81.45454545454545,70.50821404772026L82.72727272727273,72.49656696054039L84,70.3313670764512L85.27272727272728,71.80923669385467L86.54545454545455,69.59606359126371L87.81818181818183,67.91296012118737L89.0909090909091,67.64578216257068L90.36363636363637,71.13430743787464L91.63636363636364,70.64418000122753L92.90909090909092,66.15233431128036L94.18181818181819,68.84974395322064L95.45454545454545,72.53478944602108L96.72727272727273,71.3553108268129L98,66.96649732151448L99.27272727272728,66.14148279039674L100.54545454545455,68.03596972762061L101.81818181818183,70.65803013678838L103.0909090909091,67.96891796468229L104.36363636363637,62.48058675869088L105.63636363636363,67.51853792438517L106.9090909090909,62.43639058677785L108.18181818181817,67.36286184193422L109.45454545454545,66.34700721933815L110.72727272727272,65.76978872909106L112,64.6484792282155L113.27272727272727,65.52564096417512L114.54545454545455,64.43741137961439L115.81818181818181,67.46559996265113L117.09090909090908,64.66496508632862L118.36363636363636,62.048162468163795L119.63636363636363,61.57595525224988L120.9090909090909,64.78001031055048L122.18181818181817,65.992044128455L123.45454545454545,63.361052787621546L124.72727272727272,61.233520805628906L126,60.958011875425875L127.27272727272727,60.77779713563627L128.54545454545456,61.1366413779607L129.8181818181818,61.99775857380996L131.0909090909091,59.67286015392523L132.36363636363637,59.11747869837324L133.63636363636365,59.49463966514821L134.9090909090909,59.68864196190261L136.1818181818182,61.58102262870547L137.45454545454547,62.19980813460527L138.72727272727275,62.21587982960729L140,59.480827582176296L141.27272727272725,54.41700541249L142.54545454545453,52.05680766747375L143.8181818181818,50.99588862900194L145.0909090909091,49.455200419888406L146.36363636363635,49.919282268291724L147.63636363636363,48.61548965753806L148.9090909090909,49.12483539199515L150.1818181818182,47.073241460085626L151.45454545454544,47.45681172707651L152.72727272727272,47.39633346838472L154,48.070436353275774L155.27272727272728,47.34472944591483L156.54545454545453,46.68327344923305L157.8181818181818,45.8343361466936L159.0909090909091,46.74575344538228L160.36363636363637,47.26031891825455L161.63636363636363,46.503468753333806L162.9090909090909,47.018074630063346L164.18181818181816,47.03621773721466L165.45454545454547,47.56375587265706L166.72727272727272,47.23446810346785L168,46.940021968992205L169.27272727272725,46.02067016489009L170.54545454545456,46.179458299504574L171.8181818181818,46.759089168114244L173.0909090909091,46.8162472703937L174.36363636363635,46.97970988803407L175.63636363636365,47.62672463611084L176.9090909090909,47.821186539032645L178.1818181818182,47.34918690611835L179.45454545454544,47.299473669468846L180.72727272727275,46.042603616221456L182,46.354071032917055L183.27272727272728,46.702404145548094L184.54545454545453,46.8468154465056L185.81818181818184,45.964746251398125L187.0909090909091,45.69383086990941L188.36363636363637,45.95106043920559L189.63636363636363,45.71791366590448L190.9090909090909,45.41657293931012L192.1818181818182,45.526379545270224L193.45454545454547,46.01204230703577L194.72727272727272,46.529471816360264L196,45.58060250435631L197.27272727272728,45.721670757260064L198.54545454545456,47.35625914548735L199.8181818181818,47.01309659420393L201.0909090909091,46.77491415709289L202.36363636363637,46.825742263780896L203.63636363636365,47.46976487190736L204.9090909090909,47.242652692669566L206.1818181818182,46.65432168059652L207.45454545454547,46.91483944049672L208.72727272727275,46.845118244171616L210,46.67412714707351L211.27272727272725,46.76527005776927L212.54545454545453,46.819955804186705L213.8181818181818,46.852767252037204L215.0909090909091,47.90574928608096L216.36363636363635,47.43966415152217L217.63636363636363,46.38504404102918L218.9090909090909,46.62411447745323L220.1818181818182,47.60710495871691L221.45454545454544,47.7448355429447L222.72727272727272,46.40669421326905L224,46.12045230964564L225.27272727272728,45.5612226525927L226.54545454545453,45.61316937323976L227.8181818181818,46.29014805608266L229.0909090909091,46.74570501074487L230.36363636363637,47.03424862823731L231.63636363636363,47.465700934308515L232.9090909090909,46.14233997512525L234.18181818181816,46.51077694425183L235.45454545454547,46.44122808381106L236.72727272727272,47.239056363925464L238,47.52400638606984L239.27272727272725,47.27519760116705L240.54545454545456,47.54569112841486L241.8181818181818,46.64239779611944L243.0909090909091,46.58477978458314L244.36363636363635,46.58250326097196L245.63636363636365,47.42068556621449L246.9090909090909,47.503825528140176L248.1818181818182,46.77873109856825L249.45454545454544,47.24781122685553L250.72727272727275,47.69071196644158L252,46.374220067367204L253.27272727272728,46.004094349142406L254.54545454545453,46.653870797896914L255.81818181818184,47.91557916986951" fill="none"></path></g><g><path style="fill: none;" stroke="rgb(255, 112, 67)" stroke-width="2px" d="M31.818181818181817,186.06199853903627L33.09090909090909,171.20837080741728L34.36363636363637,158.3983748196377L35.63636363636363,148.20941157965927L36.90909090909091,138.34561927697985L38.18181818181818,129.65067735047708L39.45454545454545,122.25442115080462L40.72727272727273,115.2081213989157L42,108.50908432484762L43.27272727272727,103.2723744796315L44.54545454545455,98.5573030954423L45.81818181818182,93.73388935145279L47.09090909090909,89.71834220100669L48.36363636363637,85.82616055122084L49.63636363636364,82.43216412269038L50.909090909090914,79.3861114475683L52.18181818181819,76.89588095284277L53.45454545454545,74.79522831856663L54.72727272727273,72.50059083838931L56,70.75217681610805L57.27272727272727,68.66886882658542L58.54545454545454,66.64407589298405L59.81818181818181,65.46775958181524L61.090909090909086,64.1905000114213L62.36363636363636,62.596739343686494L63.63636363636363,60.679850013235324L64.9090909090909,59.68047012998925L66.18181818181819,58.48483265758839L67.45454545454545,57.371273233636856L68.72727272727273,56.07557452128836L70,54.7722573395308L71.27272727272727,53.597606434550315L72.54545454545455,53.099662469441334L73.81818181818181,52.03309106486717L75.0909090909091,50.62183621099962L76.36363636363636,49.515641304719914L77.63636363636364,48.971133776132206L78.9090909090909,47.9782893384024L80.18181818181819,47.34752218659867L81.45454545454545,46.948029352766L82.72727272727273,45.93351465420063L84,45.28274074946404L85.27272727272728,44.28223889520243L86.54545454545455,43.66089586287186L87.81818181818183,43.18992254871075L89.0909090909091,42.46909650887797L90.36363636363637,41.6649728256982L91.63636363636364,41.347280102614576L92.90909090909092,40.34678498117661L94.18181818181819,40.00943688990443L95.45454545454545,39.256590542512114L96.72727272727273,38.94511531448046L98,38.316481139693614L99.27272727272728,37.56416558890902L100.54545454545455,36.70959469644509L101.81818181818183,36.736768693701784L103.0909090909091,35.85204008296378L104.36363636363637,35.398328491500514L105.63636363636363,35.045468975011715L106.9090909090909,34.68650671145238L108.18181818181817,34.27830135041358L109.45454545454545,33.75990819230673L110.72727272727272,33.978277247253395L112,33.334479681977264L113.27272727272727,32.64317769861598L114.54545454545455,32.49835946345158L115.81818181818181,32.35537549019159L117.09090909090908,31.70161268045023L118.36363636363636,31.400508516110126L119.63636363636363,30.8657528913812L120.9090909090909,30.425690101988838L122.18181818181817,30.042452390768094L123.45454545454545,29.426853758229296L124.72727272727272,29.169690019998406L126,29.148610384200758L127.27272727272727,28.613581003143594L128.54545454545456,28.404749438832035L129.8181818181818,27.995468975837248L131.0909090909091,27.89714725170644L132.36363636363637,27.34031214709876L133.63636363636365,27.160471611262807L134.9090909090909,27.375116290143676L136.1818181818182,26.911400519207003L137.45454545454547,26.370222075055324L138.72727272727275,26.024473088776578L140,25.68731207649967L141.27272727272725,24.39115445713833L142.54545454545453,21.562472832272963L143.8181818181818,19.41650084612333L145.0909090909091,18.051782702484427L146.36363636363635,16.749128315727496L147.63636363636363,16.174391633101646L148.9090909090909,15.436879644457159L150.1818181818182,15.31341446502165L151.45454545454544,14.61177228975191L152.72727272727272,14.057559000479568L154,13.774110085814936L155.27272727272728,13.653129172884608L156.54545454545453,13.552494109045718L157.8181818181818,13.358885086631858L159.0909090909091,13.386459240218302L160.36363636363637,12.982287237220522L161.63636363636363,13.051821452880045L162.9090909090909,12.707885976469333L164.18181818181816,12.739924765793646L165.45454545454547,12.496199057798457L166.72727272727272,12.265824084759297L168,12.295887574389544L169.27272727272725,12.08253018928999L170.54545454545456,12.077222782446903L171.8181818181818,12.186233779633426L173.0909090909091,11.939612337456783L174.36363636363635,11.760076592469188L175.63636363636365,11.768057573400336L176.9090909090909,11.71324614316632L178.1818181818182,11.52959636775899L179.45454545454544,11.300206464929214L180.72727272727275,11.001298023040098L182,11.112948455577087L183.27272727272728,11.211492217811253L184.54545454545453,10.867436913158567L185.81818181818184,10.973031770855487L187.0909090909091,10.706825711828662L188.36363636363637,10.880172036688842L189.63636363636363,10.83342629130757L190.9090909090909,10.777322951028575L192.1818181818182,10.792749382729564L193.45454545454547,10.496981797554522L194.72727272727272,10.38964222513608L196,10.283173396048763L197.27272727272728,10.1456641332785L198.54545454545456,10.168340043646232L199.8181818181818,10.252057191583782L201.0909090909091,10.211133958841645L202.36363636363637,10.119966027141105L203.63636363636365,9.865432668924614L204.9090909090909,9.639084688676888L206.1818181818182,9.71012247298699L207.45454545454547,9.654577648805859L208.72727272727275,9.61073917137293L210,9.43017555798447L211.27272727272725,9.398962964930943L212.54545454545453,9.180393432933059L213.8181818181818,9.259614649793926L215.0909090909091,9.4193334442333L216.36363636363635,9.420504212760909L217.63636363636363,9.375634601609985L218.9090909090909,9.401298880449533L220.1818181818182,9.265943907455906L221.45454545454544,9.479233407961468L222.72727272727272,9.36879765612445L224,9.260461742416364L225.27272727272728,9.25856719961554L226.54545454545453,9.218872374930083L227.8181818181818,9.191548493487462L229.0909090909091,9.073479683223376L230.36363636363637,9.234033875942707L231.63636363636363,9.316338445049126L232.9090909090909,9.404288662487605L234.18181818181816,9.27475174994132L235.45454545454547,9.288183123918227L236.72727272727272,9.418948972520969L238,9.311594452042007L239.27272727272725,9.142000271724841L240.54545454545456,9.124383311776603L241.8181818181818,9.124334095701522L243.0909090909091,9.141830122243315L244.36363636363635,8.994560224608481L245.63636363636365,9.130579791642788L246.9090909090909,9.296340457075074L248.1818181818182,9.167908364087927L249.45454545454544,9.073314175139211L250.72727272727275,9.118232143168491L252,9.208289929410032L253.27272727272728,9.04846405543364L254.54545454545453,9.176950036662996L255.81818181818184,9.071734582391285" fill="none"></path></g></g></g></g><g opacity="0.2"><g><g><g><path style="fill: none;" stroke="rgb(0, 119, 187)" stroke-width="2px" d="M30.545454545454543,188.89956837313042L31.818181818181817,157.01269094935725L33.09090909090909,152.97637438401583L34.36363636363637,150.9582161013451L35.63636363636363,180.5040392941899L36.90909090909091,131.5838965877063L38.18181818181818,137.47692346158956L39.45454545454545,139.73724198424156L40.72727272727273,131.0995292228957L42,130.4537373263803L43.27272727272727,102.44170505139564L44.54545454545455,99.05118038256964L45.81818181818182,110.8372341303362L47.09090909090909,107.4467329039342L48.36363636363637,94.77270357724694L49.63636363636364,91.30146664256851L50.909090909090914,94.12688823830752L52.18181818181819,98.16320480364894L53.45454545454545,103.41041633859277L54.72727272727273,92.27017792976567L56,75.47909632946055L57.27272727272727,87.50733375963239L58.54545454545454,78.7081495817337L59.81818181818181,91.62436259082624L61.090909090909086,92.10872995563682L62.36363636363636,75.88272798599469L63.63636363636363,78.4659893417524L64.9090909090909,73.54167375506627L66.18181818181819,90.49420332950024L67.45454545454545,74.10675338572926L68.72727272727273,76.44783105908171L70,70.71625215932727L71.27272727272727,81.6143068857491L72.54545454545455,70.95843584173255L73.81818181818181,69.02098982491427L75.0909090909091,70.63551645105085L76.36363636363636,70.82842415819566L77.63636363636364,77.25509437214998L78.9090909090909,78.06235768521826L80.18181818181819,64.98467325957286L81.45454545454545,69.343909215596L82.72727272727273,75.47909632946055L84,67.08356725051999L85.27272727272728,74.02604111987685L86.54545454545455,66.27630393745171L87.81818181818183,65.38830491610699L89.0909090909091,67.24501522464887L90.36363636363637,76.36709535080527L91.63636363636364,69.90898884625899L92.90909090909092,59.4145657763713L94.18181818181819,72.89585841612684L95.45454545454545,78.06235768521826L96.72727272727273,69.58609289800128L98,60.38327706356845L99.27272727272728,64.90396099372045L100.54545454545455,70.87770013345614L101.81818181818183,74.59112075053983L103.0909090909091,63.935249706523294L104.36363636363637,54.248089949703875L105.63636363636363,75.07546467292642L106.9090909090909,54.81316958036689L108.18181818181817,74.75256872466869L109.45454545454545,64.82322528544401L110.72727272727272,64.90396099372045L112,62.966514976902154L113.27272727272727,66.84138356811471L114.54545454545455,62.805067002773285L115.81818181818181,72.00788283720613L117.09090909090908,60.464012771844864L118.36363636363636,58.12295854091644L119.63636363636363,60.867644428379L120.9090909090909,69.58609289800128L122.18181818181817,67.81009485531186L123.45454545454545,59.4145657763713L124.72727272727272,58.04222283264003L126,60.5447484801213L127.27272727272727,60.50747502595186L128.54545454545456,61.674907741447306L129.8181818181818,63.289434367583866L131.0909090909091,56.18551252409816L132.36363636363637,58.28440651504531L133.63636363636365,60.060381115310726L134.9090909090909,59.979645407034305L136.1818181818182,64.41959362890987L137.45454545454547,63.12798639345501L138.72727272727275,62.23998737211029L140,55.37824921102988L141.27272727272725,46.82127215796047L142.54545454545453,48.516511049949465L143.8181818181818,49.40451007129418L145.0909090909091,47.144168106218196L146.36363636363635,50.6154050408966L147.63636363636363,46.659800741407615L148.9090909090909,49.888853993680755L150.1818181818182,43.99585056222147L151.45454545454544,48.032167127562886L152.72727272727272,47.30561608034704L154,49.08159068061245L155.27272727272728,46.25616908487348L156.54545454545453,45.69108945421046L157.8181818181818,44.560930192884484L159.0909090909091,48.11287939341533L160.36363636363637,48.032167127562886L161.63636363636363,45.36819350595276L162.9090909090909,47.789983445157624L164.18181818181816,47.06343239794175L165.45454545454547,48.35506307582061L166.72727272727272,46.74053644968403L168,46.49835276727877L169.27272727272725,44.6416424587369L170.54545454545456,46.417640501426334L171.8181818181818,47.62853547102875L173.0909090909091,46.901984423812905L174.36363636363635,47.22490381449461L175.63636363636365,48.5972467582259L176.9090909090909,48.11287939341533L178.1818181818182,46.64118745674691L179.45454545454544,47.22490381449461L180.72727272727275,44.157298536350346L182,46.82127215796047L183.27272727272728,47.22490381449461L184.54545454545453,47.06343239794175L185.81818181818184,44.6416424587369L187.0909090909091,45.287457797676325L188.36363636363637,46.33690479314989L189.63636363636363,45.36819350595276L190.9090909090909,44.96456184941862L192.1818181818182,45.69108945421046L193.45454545454547,46.74053644968403L194.72727272727272,47.30561608034704L196,44.157298536350346L197.27272727272728,45.93327313661575L198.54545454545456,49.80814172782832L199.8181818181818,46.49835276727877L201.0909090909091,46.417640501426334L202.36363636363637,46.901984423812905L203.63636363636365,48.43579878409705L204.9090909090909,46.901984423812905L206.1818181818182,45.771825162486905L207.45454545454547,47.30561608034704L208.72727272727275,46.74053644968403L210,46.417640501426334L211.27272727272725,46.901984423812905L212.54545454545453,46.901984423812905L213.8181818181818,46.901984423812905L215.0909090909091,49.48522233714662L216.36363636363635,46.74053644968403L217.63636363636363,44.803113875289775L218.9090909090909,46.98272013208932L220.1818181818182,49.08159068061245L221.45454545454544,47.95143141928647L222.72727272727272,44.39948221875561L224,45.69108945421046L225.27272727272728,44.72237816701333L226.54545454545453,45.69108945421046L227.8181818181818,47.30561608034704L229.0909090909091,47.42904044273828L230.36363636363637,47.4670640544759L231.63636363636363,48.11287939341533L232.9090909090909,44.157298536350346L234.18181818181816,47.06343239794175L235.45454545454547,46.33690479314989L236.72727272727272,48.43579878409705L238,47.95143141928647L239.27272727272725,46.901984423812905L240.54545454545456,47.95143141928647L241.8181818181818,45.287457797676325L243.0909090909091,46.49835276727877L244.36363636363635,46.57908847555518L245.63636363636365,48.67795902407831L246.9090909090909,47.62853547102875L248.1818181818182,45.69108945421046L249.45454545454544,47.95143141928647L250.72727272727275,48.35506307582061L252,44.39948221875561L253.27272727272728,45.44890577180517L254.54545454545453,47.62853547102875L255.81818181818184,49.80814172782832" fill="none"></path></g><g><path style="fill: none;" stroke="rgb(255, 112, 67)" stroke-width="2px" d="M30.545454545454543,178.88285501963566L31.818181818181817,161.56340462466082L33.09090909090909,149.96744549315838L34.36363636363637,139.7212776934935L35.63636363636363,133.18266990491088L36.90909090909091,123.69903727331098L38.18181818181818,116.68712694404856L39.45454545454545,111.20028695091605L40.72727272727273,104.66167916233341L42,98.47365282475948L43.27272727272727,95.42346526765164L44.54545454545455,91.48802145280774L45.81818181818182,86.50080984251368L47.09090909090909,83.6960410223239L48.36363636363637,79.98848101124167L49.63636363636364,77.34147970461183L50.909090909090914,74.81719948765306L52.18181818181819,73.16061715284984L53.45454545454545,71.64429084087412L54.72727272727273,69.05866180029182L56,68.1295682096647L57.27272727272727,65.54391572665838L58.54545454545454,63.606891673472205L59.81818181818181,63.7032869209846L61.090909090909086,62.27461183236706L62.36363636363636,60.206099222931606L63.63636363636363,57.80451665321986L64.9090909090909,58.18140050396323L66.18181818181819,56.691376591722175L67.45454545454545,55.700934177471545L68.72727272727273,54.13202650845051L70,52.817281600501815L71.27272727272727,51.83563009525339L72.54545454545455,52.35274652640025L73.81818181818181,50.433233963946506L75.0909090909091,48.50495393491453L76.36363636363636,47.856348947518406L77.63636363636364,48.15437248390583L78.9090909090909,46.489022682524386L80.18181818181819,46.401371459166214L81.45454545454545,46.348790102120915L82.72727272727273,44.411742606510735L84,44.30657989242011L85.27272727272728,42.78148611386619L86.54545454545455,42.72888131439686L87.81818181818183,42.48346257747876L89.0909090909091,41.387857449137506L90.36363636363637,40.45878730093441L91.63636363636364,40.870741017990646L92.90909090909092,38.846042299022294L94.18181818181819,39.503414752996626L95.45454545454545,38.12732102142441L96.72727272727273,38.47790247243313L98,37.37352987751365L99.27272727272728,36.435692262732324L100.54545454545455,35.42773835774926L101.81818181818183,36.77752968958682L103.0909090909091,34.524947166856805L104.36363636363637,34.7177611043056L105.63636363636363,34.51617970027858L106.9090909090909,34.148063316113415L108.18181818181817,33.66599330885542L109.45454545454545,32.98231845514643L110.72727272727272,34.30583082967335L112,32.36878333406317L113.27272727272727,31.6062247235742L114.54545454545455,32.281132110704974L115.81818181818181,32.140899530301496L117.09090909090908,30.720968465838176L118.36363636363636,30.948852269599843L119.63636363636363,30.063619454287824L120.9090909090909,29.765595917900395L122.18181818181817,29.467595823936996L123.45454545454545,28.503455809421006L124.72727272727272,28.783944412651998L126,29.116990930504265L127.27272727272727,27.811036931557783L128.54545454545456,28.09150209236477L129.8181818181818,27.38154828134511L131.0909090909091,27.74966466551025L132.36363636363637,26.505059490187296L133.63636363636365,26.89071080750889L134.9090909090909,27.697083308464947L136.1818181818182,26.2158268628021L137.45454545454547,25.558454408827764L138.72727272727275,25.50584960935844L140,25.181570558084378L141.27272727272725,22.446918028096366L142.54545454545453,17.31945039497482L143.8181818181818,16.197542866898903L145.0909090909091,16.004705487026104L146.36363636363635,14.795146735592017L147.63636363636363,15.31228660916288L148.9090909090909,14.330611661490478L150.1818181818182,15.128216695868309L151.45454545454544,13.55930902684729L152.72727272727272,13.226239066570997L154,13.348936713818055L155.27272727272728,13.471657803489098L156.54545454545453,13.401541513287361L157.8181818181818,13.068471553011069L159.0909090909091,13.42782047059802L160.36363636363637,12.376029232723841L161.63636363636363,13.15612277636926L162.9090909090909,12.191982761853273L164.18181818181816,12.787982949780098L165.45454545454547,12.13061049580574L166.72727272727272,11.92026162520051L168,12.340982808834974L169.27272727272725,11.762494111640581L170.54545454545456,12.069261672182211L171.8181818181818,12.349750275413202L173.0909090909091,11.569680174191786L174.36363636363635,11.490772974987818L175.63636363636365,11.780029044797017L176.9090909090909,11.631028997815315L178.1818181818182,11.254121704647945L179.45454545454544,10.956121610684523L180.72727272727275,10.552935360206494L182,11.280424104382588L183.27272727272728,11.359307861162552L184.54545454545453,10.35135395617949L185.81818181818184,11.131424057400887L187.0909090909091,10.307516623288393L188.36363636363637,11.140191523979114L189.63636363636363,10.763307673235728L190.9090909090909,10.693167940609987L192.1818181818182,10.815889030281049L193.45454545454547,10.053330419792065L194.72727272727272,10.228632866508429L196,10.123470152417825L197.27272727272728,9.939400239123234L198.54545454545456,10.20235390919779L199.8181818181818,10.37763291349013L201.0909090909091,10.149749109728464L202.36363636363637,9.983214129590328L203.63636363636365,9.483632631599903L204.9090909090909,9.299562718305332L206.1818181818182,9.816679149452192L207.45454545454547,9.571260412534071L208.72727272727275,9.544981455223432L210,9.159330137901838L211.27272727272725,9.352144075350633L212.54545454545453,8.852539134936205L213.8181818181818,9.378446475085276L215.0909090909091,9.658911635892263L216.36363636363635,9.42226036555237L217.63636363636363,9.30833018488354L218.9090909090909,9.439795298708805L220.1818181818182,9.062911447965439L221.45454545454544,9.79916765871976L222.72727272727272,9.203144028368932L224,9.097957871854305L225.27272727272728,9.255725385414234L226.54545454545453,9.159330137901838L227.8181818181818,9.15056267132361L229.0909090909091,8.896376467827302L230.36363636363637,9.474865165021676L231.63636363636363,9.439795298708805L232.9090909090909,9.536213988645205L234.18181818181816,9.080446381121874L235.45454545454547,9.30833018488354L236.72727272727272,9.61509774542517L238,9.15056267132361L239.27272727272725,8.887609001249075L240.54545454545456,9.097957871854305L241.8181818181818,9.124260271588968L243.0909090909091,9.168074162056042L244.36363636363635,8.77365537815624L245.63636363636365,9.334609142194198L246.9090909090909,9.544981455223432L248.1818181818182,8.975260224607247L249.45454545454544,8.931422891716169L250.72727272727275,9.185609095212477L252,9.343376608772406L253.27272727272728,8.80872524446911L254.54545454545453,9.369679008507068L255.81818181818184,8.913911400983737" fill="none"></path></g></g></g></g></g></g><g transform="translate(50, 176)" clip-path="url(#clip_1)"><clipPath id="clip_1"><rect width="280" height="23"></rect></clipPath><g><g><line x1="0" y1="0" x2="0" y2="5" style="visibility: inherit;" fill="rgb(0, 0, 0)" stroke="rgb(204, 204, 204)" stroke-width="1px"></line><line x1="25.454545454545457" y1="0" x2="25.454545454545457" y2="5" style="visibility: inherit;" fill="rgb(0, 0, 0)" stroke="rgb(204, 204, 204)" stroke-width="1px"></line><line x1="50.909090909090914" y1="0" x2="50.909090909090914" y2="5" style="visibility: inherit;" fill="rgb(0, 0, 0)" stroke="rgb(204, 204, 204)" stroke-width="1px"></line><line x1="76.36363636363636" y1="0" x2="76.36363636363636" y2="5" style="visibility: inherit;" fill="rgb(0, 0, 0)" stroke="rgb(204, 204, 204)" stroke-width="1px"></line><line x1="101.81818181818183" y1="0" x2="101.81818181818183" y2="5" style="visibility: inherit;" fill="rgb(0, 0, 0)" stroke="rgb(204, 204, 204)" stroke-width="1px"></line><line x1="127.27272727272727" y1="0" x2="127.27272727272727" y2="5" style="visibility: inherit;" fill="rgb(0, 0, 0)" stroke="rgb(204, 204, 204)" stroke-width="1px"></line><line x1="152.72727272727272" y1="0" x2="152.72727272727272" y2="5" style="visibility: inherit;" fill="rgb(0, 0, 0)" stroke="rgb(204, 204, 204)" stroke-width="1px"></line><line x1="178.1818181818182" y1="0" x2="178.1818181818182" y2="5" style="visibility: inherit;" fill="rgb(0, 0, 0)" stroke="rgb(204, 204, 204)" stroke-width="1px"></line><line x1="203.63636363636365" y1="0" x2="203.63636363636365" y2="5" style="visibility: inherit;" fill="rgb(0, 0, 0)" stroke="rgb(204, 204, 204)" stroke-width="1px"></line><line x1="229.0909090909091" y1="0" x2="229.0909090909091" y2="5" style="visibility: inherit;" fill="rgb(0, 0, 0)" stroke="rgb(204, 204, 204)" stroke-width="1px"></line><line x1="254.54545454545453" y1="0" x2="254.54545454545453" y2="5" style="visibility: inherit;" fill="rgb(0, 0, 0)" stroke="rgb(204, 204, 204)" stroke-width="1px"></line><line x1="280" y1="0" x2="280" y2="5" style="visibility: inherit;" fill="rgb(0, 0, 0)" stroke="rgb(204, 204, 204)" stroke-width="1px"></line></g><g transform="translate(0, 8)"><text style="text-anchor: middle; visibility: hidden; font-family: Roboto, sans-serif; font-size: 12px; font-weight: 200;" x="0" y="0" dx="0em" dy="0.95em" fill="rgb(255, 255, 255)" stroke="none" stroke-width="1px">-20</text><text style="text-anchor: middle; visibility: inherit; font-family: Roboto, sans-serif; font-size: 12px; font-weight: 200;" x="25.454545454545457" y="0" dx="0em" dy="0.95em" fill="rgb(255, 255, 255)" stroke="none" stroke-width="1px">0</text><text style="text-anchor: middle; visibility: inherit; font-family: Roboto, sans-serif; font-size: 12px; font-weight: 200;" x="50.909090909090914" y="0" dx="0em" dy="0.95em" fill="rgb(255, 255, 255)" stroke="none" stroke-width="1px">20</text><text style="text-anchor: middle; visibility: inherit; font-family: Roboto, sans-serif; font-size: 12px; font-weight: 200;" x="76.36363636363636" y="0" dx="0em" dy="0.95em" fill="rgb(255, 255, 255)" stroke="none" stroke-width="1px">40</text><text style="text-anchor: middle; visibility: inherit; font-family: Roboto, sans-serif; font-size: 12px; font-weight: 200;" x="101.81818181818183" y="0" dx="0em" dy="0.95em" fill="rgb(255, 255, 255)" stroke="none" stroke-width="1px">60</text><text style="text-anchor: middle; visibility: inherit; font-family: Roboto, sans-serif; font-size: 12px; font-weight: 200;" x="127.27272727272727" y="0" dx="0em" dy="0.95em" fill="rgb(255, 255, 255)" stroke="none" stroke-width="1px">80</text><text style="text-anchor: middle; visibility: inherit; font-family: Roboto, sans-serif; font-size: 12px; font-weight: 200;" x="152.72727272727272" y="0" dx="0em" dy="0.95em" fill="rgb(255, 255, 255)" stroke="none" stroke-width="1px">100</text><text style="text-anchor: middle; visibility: inherit; font-family: Roboto, sans-serif; font-size: 12px; font-weight: 200;" x="178.1818181818182" y="0" dx="0em" dy="0.95em" fill="rgb(255, 255, 255)" stroke="none" stroke-width="1px">120</text><text style="text-anchor: middle; visibility: inherit; font-family: Roboto, sans-serif; font-size: 12px; font-weight: 200;" x="203.63636363636365" y="0" dx="0em" dy="0.95em" fill="rgb(255, 255, 255)" stroke="none" stroke-width="1px">140</text><text style="text-anchor: middle; visibility: inherit; font-family: Roboto, sans-serif; font-size: 12px; font-weight: 200;" x="229.0909090909091" y="0" dx="0em" dy="0.95em" fill="rgb(255, 255, 255)" stroke="none" stroke-width="1px">160</text><text style="text-anchor: middle; visibility: inherit; font-family: Roboto, sans-serif; font-size: 12px; font-weight: 200;" x="254.54545454545453" y="0" dx="0em" dy="0.95em" fill="rgb(255, 255, 255)" stroke="none" stroke-width="1px">180</text><text style="text-anchor: middle; visibility: hidden; font-family: Roboto, sans-serif; font-size: 12px; font-weight: 200;" x="280" y="0" dx="0em" dy="0.95em" fill="rgb(255, 255, 255)" stroke="none" stroke-width="1px">200</text></g><line x1="0" y1="0" x2="280" y2="0" fill="rgb(0, 0, 0)" stroke="rgb(204, 204, 204)" stroke-width="1px"></line></g></g></g></g></svg>