<svg viewBox="0 0 330 200" xmlns="http://www.w3.org/2000/svg"><g><g><g><g><g><line x1="41.171875" y1="176.921875" x2="36.171875" y2="176.921875" style="visibility: inherit;" fill="rgb(0, 0, 0)" stroke="rgb(204, 204, 204)" stroke-width="1px"></line><line x1="41.171875" y1="159.2296875" x2="36.171875" y2="159.2296875" style="visibility: inherit;" fill="rgb(0, 0, 0)" stroke="rgb(204, 204, 204)" stroke-width="1px"></line><line x1="41.171875" y1="141.5375" x2="36.171875" y2="141.5375" style="visibility: inherit;" fill="rgb(0, 0, 0)" stroke="rgb(204, 204, 204)" stroke-width="1px"></line><line x1="41.171875" y1="123.84531249999999" x2="36.171875" y2="123.84531249999999" style="visibility: inherit;" fill="rgb(0, 0, 0)" stroke="rgb(204, 204, 204)" stroke-width="1px"></line><line x1="41.171875" y1="106.153125" x2="36.171875" y2="106.153125" style="visibility: inherit;" fill="rgb(0, 0, 0)" stroke="rgb(204, 204, 204)" stroke-width="1px"></line><line x1="41.171875" y1="88.4609375" x2="36.171875" y2="88.4609375" style="visibility: inherit;" fill="rgb(0, 0, 0)" stroke="rgb(204, 204, 204)" stroke-width="1px"></line><line x1="41.171875" y1="70.76875" x2="36.171875" y2="70.76875" style="visibility: inherit;" fill="rgb(0, 0, 0)" stroke="rgb(204, 204, 204)" stroke-width="1px"></line><line x1="41.171875" y1="53.07656250000001" x2="36.171875" y2="53.07656250000001" style="visibility: inherit;" fill="rgb(0, 0, 0)" stroke="rgb(204, 204, 204)" stroke-width="1px"></line><line x1="41.171875" y1="35.38437499999999" x2="36.171875" y2="35.38437499999999" style="visibility: inherit;" fill="rgb(0, 0, 0)" stroke="rgb(204, 204, 204)" stroke-width="1px"></line><line x1="41.171875" y1="17.692187499999996" x2="36.171875" y2="17.692187499999996" style="visibility: inherit;" fill="rgb(0, 0, 0)" stroke="rgb(204, 204, 204)" stroke-width="1px"></line><line x1="41.171875" y1="0" x2="36.171875" y2="0" style="visibility: inherit;" fill="rgb(0, 0, 0)" stroke="rgb(204, 204, 204)" stroke-width="1px"></line></g><g transform="translate(31.171875, 0)"><text style="text-anchor: end; visibility: hidden; font-family: Roboto, sans-serif; font-size: 12px; font-weight: 200;" x="0" y="176.921875" dx="0em" dy="0.3em" fill="rgb(255, 255, 255)" stroke="none" stroke-width="1px">0</text><text style="text-anchor: end; visibility: inherit; font-family: Roboto, sans-serif; font-size: 12px; font-weight: 200;" x="0" y="159.2296875" dx="0em" dy="0.3em" fill="rgb(255, 255, 255)" stroke="none" stroke-width="1px">0.2</text><text style="text-anchor: end; visibility: hidden; font-family: Roboto, sans-serif; font-size: 12px; font-weight: 200;" x="0" y="141.5375" dx="0em" dy="0.3em" fill="rgb(255, 255, 255)" stroke="none" stroke-width="1px">0.4</text><text style="text-anchor: end; visibility: inherit; font-family: Roboto, sans-serif; font-size: 12px; font-weight: 200;" x="0" y="123.84531249999999" dx="0em" dy="0.3em" fill="rgb(255, 255, 255)" stroke="none" stroke-width="1px">0.6</text><text style="text-anchor: end; visibility: hidden; font-family: Roboto, sans-serif; font-size: 12px; font-weight: 200;" x="0" y="106.153125" dx="0em" dy="0.3em" fill="rgb(255, 255, 255)" stroke="none" stroke-width="1px">0.8</text><text style="text-anchor: end; visibility: inherit; font-family: Roboto, sans-serif; font-size: 12px; font-weight: 200;" x="0" y="88.4609375" dx="0em" dy="0.3em" fill="rgb(255, 255, 255)" stroke="none" stroke-width="1px">1</text><text style="text-anchor: end; visibility: hidden; font-family: Roboto, sans-serif; font-size: 12px; font-weight: 200;" x="0" y="70.76875" dx="0em" dy="0.3em" fill="rgb(255, 255, 255)" stroke="none" stroke-width="1px">1.2</text><text style="text-anchor: end; visibility: inherit; font-family: Roboto, sans-serif; font-size: 12px; font-weight: 200;" x="0" y="53.07656250000001" dx="0em" dy="0.3em" fill="rgb(255, 255, 255)" stroke="none" stroke-width="1px">1.4</text><text style="text-anchor: end; visibility: hidden; font-family: Roboto, sans-serif; font-size: 12px; font-weight: 200;" x="0" y="35.38437499999999" dx="0em" dy="0.3em" fill="rgb(255, 255, 255)" stroke="none" stroke-width="1px">1.6</text><text style="text-anchor: end; visibility: inherit; font-family: Roboto, sans-serif; font-size: 12px; font-weight: 200;" x="0" y="17.692187499999996" dx="0em" dy="0.3em" fill="rgb(255, 255, 255)" stroke="none" stroke-width="1px">1.8</text><text style="text-anchor: end; visibility: hidden; font-family: Roboto, sans-serif; font-size: 12px; font-weight: 200;" x="0" y="0" dx="0em" dy="0.3em" fill="rgb(255, 255, 255)" stroke="none" stroke-width="1px">2</text></g><line x1="41.171875" y1="0" x2="41.171875" y2="176.921875" fill="rgb(0, 0, 0)" stroke="rgb(204, 204, 204)" stroke-width="1px"></line></g></g><g transform="translate(41, 0)" clip-path="url(#clip_0)"><clipPath id="clip_0"><rect width="288" height="176"></rect></clipPath><g><g><g><line x1="0" y1="0" x2="0" y2="176.921875" fill="rgb(0, 0, 0)" stroke="rgb(189, 189, 189)" stroke-width="1px" opacity="0.25"></line><line x1="22.217548076923077" y1="0" x2="22.217548076923077" y2="176.921875" fill="rgb(0, 0, 0)" stroke="rgb(189, 189, 189)" stroke-width="1px" opacity="0.25"></line><line x1="44.43509615384615" y1="0" x2="44.43509615384615" y2="176.921875" fill="rgb(0, 0, 0)" stroke="rgb(189, 189, 189)" stroke-width="1px" opacity="0.25"></line><line x1="66.65264423076924" y1="0" x2="66.65264423076924" y2="176.921875" fill="rgb(0, 0, 0)" stroke="rgb(189, 189, 189)" stroke-width="1px" opacity="0.25"></line><line x1="88.8701923076923" y1="0" x2="88.8701923076923" y2="176.921875" fill="rgb(0, 0, 0)" stroke="rgb(189, 189, 189)" stroke-width="1px" opacity="0.25"></line><line x1="111.08774038461539" y1="0" x2="111.08774038461539" y2="176.921875" fill="rgb(0, 0, 0)" stroke="rgb(189, 189, 189)" stroke-width="1px" opacity="0.25"></line><line x1="133.30528846153848" y1="0" x2="133.30528846153848" y2="176.921875" fill="rgb(0, 0, 0)" stroke="rgb(189, 189, 189)" stroke-width="1px" opacity="0.25"></line><line x1="155.52283653846152" y1="0" x2="155.52283653846152" y2="176.921875" fill="rgb(0, 0, 0)" stroke="rgb(189, 189, 189)" stroke-width="1px" opacity="0.25"></line><line x1="177.7403846153846" y1="0" x2="177.7403846153846" y2="176.921875" fill="rgb(0, 0, 0)" stroke="rgb(189, 189, 189)" stroke-width="1px" opacity="0.25"></line><line x1="199.95793269230768" y1="0" x2="199.95793269230768" y2="176.921875" fill="rgb(0, 0, 0)" stroke="rgb(189, 189, 189)" stroke-width="1px" opacity="0.25"></line><line x1="222.17548076923077" y1="0" x2="222.17548076923077" y2="176.921875" fill="rgb(0, 0, 0)" stroke="rgb(189, 189, 189)" stroke-width="1px" opacity="0.25"></line><line x1="244.39302884615384" y1="0" x2="244.39302884615384" y2="176.921875" fill="rgb(0, 0, 0)" stroke="rgb(189, 189, 189)" stroke-width="1px" opacity="0.25"></line><line x1="266.61057692307696" y1="0" x2="266.61057692307696" y2="176.921875" fill="rgb(0, 0, 0)" stroke="rgb(189, 189, 189)" stroke-width="1px" opacity="0.25"></line><line x1="288.828125" y1="0" x2="288.828125" y2="176.921875" fill="rgb(0, 0, 0)" stroke="rgb(189, 189, 189)" stroke-width="1px" opacity="0.25"></line></g><g><line x1="0" y1="176.921875" x2="288.828125" y2="176.921875" fill="rgb(0, 0, 0)" stroke="rgb(189, 189, 189)" stroke-width="1px" opacity="0.25"></line><line x1="0" y1="159.2296875" x2="288.828125" y2="159.2296875" fill="rgb(0, 0, 0)" stroke="rgb(189, 189, 189)" stroke-width="1px" opacity="0.25"></line><line x1="0" y1="141.5375" x2="288.828125" y2="141.5375" fill="rgb(0, 0, 0)" stroke="rgb(189, 189, 189)" stroke-width="1px" opacity="0.25"></line><line x1="0" y1="123.84531249999999" x2="288.828125" y2="123.84531249999999" fill="rgb(0, 0, 0)" stroke="rgb(189, 189, 189)" stroke-width="1px" opacity="0.25"></line><line x1="0" y1="106.153125" x2="288.828125" y2="106.153125" fill="rgb(0, 0, 0)" stroke="rgb(189, 189, 189)" stroke-width="1px" opacity="0.25"></line><line x1="0" y1="88.4609375" x2="288.828125" y2="88.4609375" fill="rgb(0, 0, 0)" stroke="rgb(189, 189, 189)" stroke-width="1px" opacity="0.25"></line><line x1="0" y1="70.76875" x2="288.828125" y2="70.76875" fill="rgb(0, 0, 0)" stroke="rgb(189, 189, 189)" stroke-width="1px" opacity="0.25"></line><line x1="0" y1="53.07656250000001" x2="288.828125" y2="53.07656250000001" fill="rgb(0, 0, 0)" stroke="rgb(189, 189, 189)" stroke-width="1px" opacity="0.25"></line><line x1="0" y1="35.38437499999999" x2="288.828125" y2="35.38437499999999" fill="rgb(0, 0, 0)" stroke="rgb(189, 189, 189)" stroke-width="1px" opacity="0.25"></line><line x1="0" y1="17.692187499999996" x2="288.828125" y2="17.692187499999996" fill="rgb(0, 0, 0)" stroke="rgb(189, 189, 189)" stroke-width="1px" opacity="0.25"></line><line x1="0" y1="0" x2="288.828125" y2="0" fill="rgb(0, 0, 0)" stroke="rgb(189, 189, 189)" stroke-width="1px" opacity="0.25"></line></g></g></g><g><g><line x1="0" y1="176.921875" x2="288.828125" y2="176.921875" fill="rgb(0, 0, 0)" stroke="rgb(153, 153, 153)" stroke-width="1.5px"></line></g></g><g><g><line x1="22.217548076923077" y1="0" x2="22.217548076923077" y2="176.921875" fill="rgb(0, 0, 0)" stroke="rgb(153, 153, 153)" stroke-width="1.5px"></line></g></g><g><g><g><g><g><path style="fill: none;" stroke="rgb(0, 119, 187)" stroke-width="2px" d="M22.217548076923077,3.271204018034041L26.661057692307693,17.00166536634788L31.10456730769231,30.85137542956794L35.54807692307693,41.58647919049049L39.99158653846154,12.5909560120908L44.43509615384615,39.78716391522764L48.878605769230774,58.11643093180015L53.32211538461539,65.03605827374565L57.765625,71.89304611228623L62.20913461538462,80.91258887342096L66.65264423076924,-364.913860877115L75.53966346153847,-63.390308763969244L79.98317307692308,8.945158209503445L84.4266826923077,40.41813178456402L88.8701923076923,69.0485906850847L93.31370192307693,86.14815693711874L97.75721153846155,100.27609697405155L102.20072115384616,107.22076561556678L106.64423076923077,106.71233919094117L111.08774038461539,109.43239038203721L115.53125,101.4820796483733L119.97475961538463,110.46710191345005L124.41826923076924,115.29619746821822L128.86177884615384,118.77984603749019L133.30528846153848,118.4913720654969L137.7487980769231,121.19349117414497L142.1923076923077,125.26789279163445L146.6358173076923,126.18572928882828L151.07932692307693,129.15382578630914L155.52283653846152,131.1641188127356L159.96634615384616,132.3486891113517L164.40985576923077,130.20052766736197L168.8533653846154,128.80490332828322L173.296875,129.51895662405803L177.7403846153846,127.70018594331374L182.18389423076923,129.6791350263151L186.62740384615387,132.32458263606404L191.07091346153845,129.64060484766128L195.5144230769231,129.4845864831756L199.95793269230768,128.95231989504774L204.40144230769232,132.315395253917L208.8449519230769,131.6590665360257L213.28846153846155,128.74151446723846L217.73197115384616,128.16061400592343L222.17548076923077,131.08241091836595L226.6189903846154,133.2457649472814L231.0625,131.22473745943307L235.5060096153846,133.8417179067671L239.94951923076925,131.99103494797578L244.39302884615384,123.0152145610802L248.83653846153848,127.95146809299924L253.28004807692307,128.2744628908052L257.7235576923077,130.71173039181048L262.1670673076923,132.40221983907784L266.61057692307696,132.73202859554104L271.05408653846155,133.282784979267L275.4975961538462,134.13168588687006L279.9411057692308,131.48531842009865" fill="none"></path></g><g><path style="fill: none;" stroke="rgb(255, 112, 67)" stroke-width="2px" d="M22.217548076923077,-30.472605269402266L26.661057692307693,5.875654892646688L31.10456730769231,25.6996245577513L35.54807692307693,41.85642845145263L39.99158653846154,56.35483057518075L44.43509615384615,67.64135440120626L48.878605769230774,78.0328800118544L53.32211538461539,86.12875832367003L57.765625,93.69561481669885L62.20913461538462,100.07848707196356L66.65264423076924,105.50273557467591L71.09615384615385,109.47024045343456L75.53966346153847,113.735382347111L79.98317307692308,117.32092593096887L84.4266826923077,119.44349056194065L88.8701923076923,121.76944823241311L93.31370192307693,124.31460717735585L97.75721153846155,126.88372269048998L102.20072115384616,129.00293780933316L106.64423076923077,130.8169894878305L111.08774038461539,132.3815275624517L115.53125,133.76823415569697L119.97475961538463,135.1589390345551L124.41826923076924,136.35227025779827L128.86177884615384,137.57051725127405L133.30528846153848,138.48266244632728L137.7487980769231,139.41567101482363L142.1923076923077,140.49611532334825L146.6358173076923,141.51055678172446L151.07932692307693,142.24548954301912L155.52283653846152,142.9751633147159L159.96634615384616,143.7382108684174L164.40985576923077,144.3184826611198L168.8533653846154,145.32044679960447L173.296875,145.8593369527798L177.7403846153846,146.48560775695464L182.18389423076923,147.05871409767207L186.62740384615387,147.5576169187077L191.07091346153845,147.94217781811193L195.5144230769231,148.52420895537966L199.95793269230768,149.05507577648487L204.40144230769232,149.63015301201287L208.8449519230769,150.02928653288114L213.28846153846155,150.699569080924L217.73197115384616,150.87158073466122L222.17548076923077,151.47246359784089L226.6189903846154,151.98071174129097L231.0625,152.21381399757493L235.5060096153846,152.55752043030844L239.94951923076925,152.91834673011408L244.39302884615384,153.40345406032802L248.83653846153848,153.63747330371552L253.28004807692307,154.05147381260102L257.7235576923077,154.3152735151896L262.1670673076923,154.74293311695143L266.61057692307696,155.13279488013444L271.05408653846155,155.44441335474897L275.4975961538462,155.89111573755082L279.9411057692308,156.11047821441645" fill="none"></path></g></g></g></g><g opacity="0.2"><g><g><g><path style="fill: none;" stroke="rgb(0, 119, 187)" stroke-width="2px" d="M22.217548076923077,3.271204018034041L26.661057692307693,25.239942175336182L31.10456730769231,44.147097090259194L35.54807692307693,54.210961213335395L39.99158653846154,-25.26559904962778L44.43509615384615,77.40931008011103L48.878605769230774,84.32757603377104L53.32211538461539,75.12494136672467L57.765625,82.00577127281576L62.20913461538462,94.30555870011449L66.65264423076924,-1029.6099224165082L71.09615384615385,108.47828740533441L75.53966346153847,103.8752037230879L79.98317307692308,117.30664595961571L84.4266826923077,87.59059684816748L88.8701923076923,111.97408661805093L93.31370192307693,111.79027035180479L97.75721153846155,121.46441994700581L102.20072115384616,117.63671062747017L106.64423076923077,105.94974602619186L111.08774038461539,113.51231799460948L115.53125,89.55687515623868L119.97475961538463,123.94445791747421L124.41826923076924,122.53978359512985L128.86177884615384,124.00529413111508L133.30528846153848,118.05866233771667L137.7487980769231,125.24666292313486L142.1923076923077,131.37948896270245L146.6358173076923,127.56248318916187L151.07932692307693,133.60596889210865L155.52283653846152,134.1795576857403L159.96634615384616,134.12554432358593L164.40985576923077,126.97828575782478L168.8533653846154,126.71146691963077L173.296875,130.59003653703257L177.7403846153846,124.97202996909618L182.18389423076923,132.64755862019956L186.62740384615387,136.29275402612984L191.07091346153845,125.6146381800063L195.5144230769231,129.25055893696845L199.95793269230768,128.1539200139232L204.40144230769232,137.36000828817487L208.8449519230769,130.6745734596625L213.28846153846155,124.36518636532128L217.73197115384616,127.28926331410185L222.17548076923077,135.46510628657416L226.6189903846154,136.49079599045217L231.0625,128.19319622777402L235.5060096153846,137.76718857767992L239.94951923076925,129.21501050982624L244.39302884615384,109.55148398084566L248.83653846153848,135.35584839084186L253.28004807692307,128.75895508751273L257.7235576923077,134.36763164331205L262.1670673076923,134.93795400997624L266.61057692307696,133.22674173023552L271.05408653846155,134.10891955485567L275.4975961538462,135.4050372482743L279.9411057692308,127.51576721994206" fill="none"></path></g><g><path style="fill: none;" stroke="rgb(255, 112, 67)" stroke-width="2px" d="M22.217548076923077,-30.472605269402266L26.661057692307693,27.68461098987609L31.10456730769231,44.73063543625176L35.54807692307693,60.85682983044535L39.99158653846154,75.2839443879202L44.43509615384615,83.2546800011769L48.878605769230774,92.89292789949104L53.32211538461539,97.932626622729L57.765625,104.85525835771114L62.20913461538462,109.55630848556757L66.65264423076924,113.5899107940495L71.09615384615385,115.39990678522736L75.53966346153847,120.11916875932366L79.98317307692308,122.69221685361117L84.4266826923077,122.62484251335263L88.8701923076923,125.25674429256469L93.31370192307693,128.13126856880262L97.75721153846155,130.73674366204068L102.20072115384616,132.1814376465045L106.64423076923077,133.53790119406767L111.08774038461539,134.72824887139723L115.53125,135.84824841539375L119.97475961538463,137.2449688958004L124.41826923076924,138.14225295651704L128.86177884615384,139.39787908270955L133.30528846153848,139.85087634902447L137.7487980769231,140.81518148025498L142.1923076923077,142.11678012739867L146.6358173076923,143.03221803484485L151.07932692307693,143.34788827877492L155.52283653846152,144.0696737302933L159.96634615384616,144.8827820471488L164.40985576923077,145.18889028090052L168.8533653846154,146.82339293556288L173.296875,146.66767215938307L177.7403846153846,147.42501394706778L182.18389423076923,147.9183735998813L186.62740384615387,148.30597114562988L191.07091346153845,148.51901916507632L195.5144230769231,149.39725565933622L199.95793269230768,149.85137600707822L204.40144230769232,150.49276886461303L208.8449519230769,150.6279868138954L213.28846153846155,151.704992902698L217.73197115384616,151.12959821522236L222.17548076923077,152.3737878925167L226.6189903846154,152.74308395641856L231.0625,152.56346738198772L235.5060096153846,153.0730800793972L239.94951923076925,153.45958617981523L244.39302884615384,154.13111505564302L248.83653846153848,153.9885021687951L253.28004807692307,154.67247457592748L257.7235576923077,154.71097306907177L262.1670673076923,155.3844225195935L266.61057692307696,155.7175875249086L271.05408653846155,155.9118410666706L275.4975961538462,156.56116931175347L279.9411057692308,156.43952192971483" fill="none"></path></g></g></g></g></g></g><g transform="translate(41, 176)" clip-path="url(#clip_1)"><clipPath id="clip_1"><rect width="288" height="23"></rect></clipPath><g><g><line x1="0" y1="0" x2="0" y2="5" style="visibility: inherit;" fill="rgb(0, 0, 0)" stroke="rgb(204, 204, 204)" stroke-width="1px"></line><line x1="22.217548076923077" y1="0" x2="22.217548076923077" y2="5" style="visibility: inherit;" fill="rgb(0, 0, 0)" stroke="rgb(204, 204, 204)" stroke-width="1px"></line><line x1="44.43509615384615" y1="0" x2="44.43509615384615" y2="5" style="visibility: inherit;" fill="rgb(0, 0, 0)" stroke="rgb(204, 204, 204)" stroke-width="1px"></line><line x1="66.65264423076924" y1="0" x2="66.65264423076924" y2="5" style="visibility: inherit;" fill="rgb(0, 0, 0)" stroke="rgb(204, 204, 204)" stroke-width="1px"></line><line x1="88.8701923076923" y1="0" x2="88.8701923076923" y2="5" style="visibility: inherit;" fill="rgb(0, 0, 0)" stroke="rgb(204, 204, 204)" stroke-width="1px"></line><line x1="111.08774038461539" y1="0" x2="111.08774038461539" y2="5" style="visibility: inherit;" fill="rgb(0, 0, 0)" stroke="rgb(204, 204, 204)" stroke-width="1px"></line><line x1="133.30528846153848" y1="0" x2="133.30528846153848" y2="5" style="visibility: inherit;" fill="rgb(0, 0, 0)" stroke="rgb(204, 204, 204)" stroke-width="1px"></line><line x1="155.52283653846152" y1="0" x2="155.52283653846152" y2="5" style="visibility: inherit;" fill="rgb(0, 0, 0)" stroke="rgb(204, 204, 204)" stroke-width="1px"></line><line x1="177.7403846153846" y1="0" x2="177.7403846153846" y2="5" style="visibility: inherit;" fill="rgb(0, 0, 0)" stroke="rgb(204, 204, 204)" stroke-width="1px"></line><line x1="199.95793269230768" y1="0" x2="199.95793269230768" y2="5" style="visibility: inherit;" fill="rgb(0, 0, 0)" stroke="rgb(204, 204, 204)" stroke-width="1px"></line><line x1="222.17548076923077" y1="0" x2="222.17548076923077" y2="5" style="visibility: inherit;" fill="rgb(0, 0, 0)" stroke="rgb(204, 204, 204)" stroke-width="1px"></line><line x1="244.39302884615384" y1="0" x2="244.39302884615384" y2="5" style="visibility: inherit;" fill="rgb(0, 0, 0)" stroke="rgb(204, 204, 204)" stroke-width="1px"></line><line x1="266.61057692307696" y1="0" x2="266.61057692307696" y2="5" style="visibility: inherit;" fill="rgb(0, 0, 0)" stroke="rgb(204, 204, 204)" stroke-width="1px"></line><line x1="288.828125" y1="0" x2="288.828125" y2="5" style="visibility: inherit;" fill="rgb(0, 0, 0)" stroke="rgb(204, 204, 204)" stroke-width="1px"></line></g><g transform="translate(0, 8)"><text style="text-anchor: middle; visibility: hidden; font-family: Roboto, sans-serif; font-size: 12px; font-weight: 200;" x="0" y="0" dx="0em" dy="0.95em" fill="rgb(255, 255, 255)" stroke="none" stroke-width="1px">-5</text><text style="text-anchor: middle; visibility: inherit; font-family: Roboto, sans-serif; font-size: 12px; font-weight: 200;" x="22.217548076923077" y="0" dx="0em" dy="0.95em" fill="rgb(255, 255, 255)" stroke="none" stroke-width="1px">0</text><text style="text-anchor: middle; visibility: inherit; font-family: Roboto, sans-serif; font-size: 12px; font-weight: 200;" x="44.43509615384615" y="0" dx="0em" dy="0.95em" fill="rgb(255, 255, 255)" stroke="none" stroke-width="1px">5</text><text style="text-anchor: middle; visibility: inherit; font-family: Roboto, sans-serif; font-size: 12px; font-weight: 200;" x="66.65264423076924" y="0" dx="0em" dy="0.95em" fill="rgb(255, 255, 255)" stroke="none" stroke-width="1px">10</text><text style="text-anchor: middle; visibility: inherit; font-family: Roboto, sans-serif; font-size: 12px; font-weight: 200;" x="88.8701923076923" y="0" dx="0em" dy="0.95em" fill="rgb(255, 255, 255)" stroke="none" stroke-width="1px">15</text><text style="text-anchor: middle; visibility: inherit; font-family: Roboto, sans-serif; font-size: 12px; font-weight: 200;" x="111.08774038461539" y="0" dx="0em" dy="0.95em" fill="rgb(255, 255, 255)" stroke="none" stroke-width="1px">20</text><text style="text-anchor: middle; visibility: inherit; font-family: Roboto, sans-serif; font-size: 12px; font-weight: 200;" x="133.30528846153848" y="0" dx="0em" dy="0.95em" fill="rgb(255, 255, 255)" stroke="none" stroke-width="1px">25</text><text style="text-anchor: middle; visibility: inherit; font-family: Roboto, sans-serif; font-size: 12px; font-weight: 200;" x="155.52283653846152" y="0" dx="0em" dy="0.95em" fill="rgb(255, 255, 255)" stroke="none" stroke-width="1px">30</text><text style="text-anchor: middle; visibility: inherit; font-family: Roboto, sans-serif; font-size: 12px; font-weight: 200;" x="177.7403846153846" y="0" dx="0em" dy="0.95em" fill="rgb(255, 255, 255)" stroke="none" stroke-width="1px">35</text><text style="text-anchor: middle; visibility: inherit; font-family: Roboto, sans-serif; font-size: 12px; font-weight: 200;" x="199.95793269230768" y="0" dx="0em" dy="0.95em" fill="rgb(255, 255, 255)" stroke="none" stroke-width="1px">40</text><text style="text-anchor: middle; visibility: inherit; font-family: Roboto, sans-serif; font-size: 12px; font-weight: 200;" x="222.17548076923077" y="0" dx="0em" dy="0.95em" fill="rgb(255, 255, 255)" stroke="none" stroke-width="1px">45</text><text style="text-anchor: middle; visibility: inherit; font-family: Roboto, sans-serif; font-size: 12px; font-weight: 200;" x="244.39302884615384" y="0" dx="0em" dy="0.95em" fill="rgb(255, 255, 255)" stroke="none" stroke-width="1px">50</text><text style="text-anchor: middle; visibility: inherit; font-family: Roboto, sans-serif; font-size: 12px; font-weight: 200;" x="266.61057692307696" y="0" dx="0em" dy="0.95em" fill="rgb(255, 255, 255)" stroke="none" stroke-width="1px">55</text><text style="text-anchor: middle; visibility: hidden; font-family: Roboto, sans-serif; font-size: 12px; font-weight: 200;" x="288.828125" y="0" dx="0em" dy="0.95em" fill="rgb(255, 255, 255)" stroke="none" stroke-width="1px">60</text></g><line x1="0" y1="0" x2="288.828125" y2="0" fill="rgb(0, 0, 0)" stroke="rgb(204, 204, 204)" stroke-width="1px"></line></g></g></g></g></svg>