<svg viewBox="0 0 330 200" xmlns="http://www.w3.org/2000/svg"><g><g><g><g><g><line x1="50" y1="176.984375" x2="45" y2="176.984375" style="visibility: inherit;" fill="rgb(0, 0, 0)" stroke="rgb(204, 204, 204)" stroke-width="1px"></line><line x1="50" y1="162.23567708333331" x2="45" y2="162.23567708333331" style="visibility: inherit;" fill="rgb(0, 0, 0)" stroke="rgb(204, 204, 204)" stroke-width="1px"></line><line x1="50" y1="147.48697916666666" x2="45" y2="147.48697916666666" style="visibility: inherit;" fill="rgb(0, 0, 0)" stroke="rgb(204, 204, 204)" stroke-width="1px"></line><line x1="50" y1="132.73828125" x2="45" y2="132.73828125" style="visibility: inherit;" fill="rgb(0, 0, 0)" stroke="rgb(204, 204, 204)" stroke-width="1px"></line><line x1="50" y1="117.9895833333333" x2="45" y2="117.9895833333333" style="visibility: inherit;" fill="rgb(0, 0, 0)" stroke="rgb(204, 204, 204)" stroke-width="1px"></line><line x1="50" y1="103.24088541666666" x2="45" y2="103.24088541666666" style="visibility: inherit;" fill="rgb(0, 0, 0)" stroke="rgb(204, 204, 204)" stroke-width="1px"></line><line x1="50" y1="88.49218749999999" x2="45" y2="88.49218749999999" style="visibility: inherit;" fill="rgb(0, 0, 0)" stroke="rgb(204, 204, 204)" stroke-width="1px"></line><line x1="50" y1="73.74348958333333" x2="45" y2="73.74348958333333" style="visibility: inherit;" fill="rgb(0, 0, 0)" stroke="rgb(204, 204, 204)" stroke-width="1px"></line><line x1="50" y1="58.99479166666665" x2="45" y2="58.99479166666665" style="visibility: inherit;" fill="rgb(0, 0, 0)" stroke="rgb(204, 204, 204)" stroke-width="1px"></line><line x1="50" y1="44.24609374999998" x2="45" y2="44.24609374999998" style="visibility: inherit;" fill="rgb(0, 0, 0)" stroke="rgb(204, 204, 204)" stroke-width="1px"></line><line x1="50" y1="29.497395833333325" x2="45" y2="29.497395833333325" style="visibility: inherit;" fill="rgb(0, 0, 0)" stroke="rgb(204, 204, 204)" stroke-width="1px"></line><line x1="50" y1="14.748697916666654" x2="45" y2="14.748697916666654" style="visibility: inherit;" fill="rgb(0, 0, 0)" stroke="rgb(204, 204, 204)" stroke-width="1px"></line><line x1="50" y1="0" x2="45" y2="0" style="visibility: inherit;" fill="rgb(0, 0, 0)" stroke="rgb(204, 204, 204)" stroke-width="1px"></line></g><g transform="translate(40, 0)"><text style="text-anchor: end; visibility: hidden; font-family: Roboto, sans-serif; font-size: 12px; font-weight: 200;" x="0" y="176.984375" dx="0em" dy="0.3em" fill="rgb(255, 255, 255)" stroke="none" stroke-width="1px">0.35</text><text style="text-anchor: end; visibility: inherit; font-family: Roboto, sans-serif; font-size: 12px; font-weight: 200;" x="0" y="162.23567708333331" dx="0em" dy="0.3em" fill="rgb(255, 255, 255)" stroke="none" stroke-width="1px">0.4</text><text style="text-anchor: end; visibility: hidden; font-family: Roboto, sans-serif; font-size: 12px; font-weight: 200;" x="0" y="147.48697916666666" dx="0em" dy="0.3em" fill="rgb(255, 255, 255)" stroke="none" stroke-width="1px">0.45</text><text style="text-anchor: end; visibility: inherit; font-family: Roboto, sans-serif; font-size: 12px; font-weight: 200;" x="0" y="132.73828125" dx="0em" dy="0.3em" fill="rgb(255, 255, 255)" stroke="none" stroke-width="1px">0.5</text><text style="text-anchor: end; visibility: hidden; font-family: Roboto, sans-serif; font-size: 12px; font-weight: 200;" x="0" y="117.9895833333333" dx="0em" dy="0.3em" fill="rgb(255, 255, 255)" stroke="none" stroke-width="1px">0.55</text><text style="text-anchor: end; visibility: inherit; font-family: Roboto, sans-serif; font-size: 12px; font-weight: 200;" x="0" y="103.24088541666666" dx="0em" dy="0.3em" fill="rgb(255, 255, 255)" stroke="none" stroke-width="1px">0.6</text><text style="text-anchor: end; visibility: hidden; font-family: Roboto, sans-serif; font-size: 12px; font-weight: 200;" x="0" y="88.49218749999999" dx="0em" dy="0.3em" fill="rgb(255, 255, 255)" stroke="none" stroke-width="1px">0.65</text><text style="text-anchor: end; visibility: inherit; font-family: Roboto, sans-serif; font-size: 12px; font-weight: 200;" x="0" y="73.74348958333333" dx="0em" dy="0.3em" fill="rgb(255, 255, 255)" stroke="none" stroke-width="1px">0.7</text><text style="text-anchor: end; visibility: hidden; font-family: Roboto, sans-serif; font-size: 12px; font-weight: 200;" x="0" y="58.99479166666665" dx="0em" dy="0.3em" fill="rgb(255, 255, 255)" stroke="none" stroke-width="1px">0.75</text><text style="text-anchor: end; visibility: inherit; font-family: Roboto, sans-serif; font-size: 12px; font-weight: 200;" x="0" y="44.24609374999998" dx="0em" dy="0.3em" fill="rgb(255, 255, 255)" stroke="none" stroke-width="1px">0.8</text><text style="text-anchor: end; visibility: hidden; font-family: Roboto, sans-serif; font-size: 12px; font-weight: 200;" x="0" y="29.497395833333325" dx="0em" dy="0.3em" fill="rgb(255, 255, 255)" stroke="none" stroke-width="1px">0.85</text><text style="text-anchor: end; visibility: inherit; font-family: Roboto, sans-serif; font-size: 12px; font-weight: 200;" x="0" y="14.748697916666654" dx="0em" dy="0.3em" fill="rgb(255, 255, 255)" stroke="none" stroke-width="1px">0.9</text><text style="text-anchor: end; visibility: hidden; font-family: Roboto, sans-serif; font-size: 12px; font-weight: 200;" x="0" y="0" dx="0em" dy="0.3em" fill="rgb(255, 255, 255)" stroke="none" stroke-width="1px">0.95</text></g><line x1="50" y1="0" x2="50" y2="176.984375" fill="rgb(0, 0, 0)" stroke="rgb(204, 204, 204)" stroke-width="1px"></line></g></g><g transform="translate(50, 0)" clip-path="url(#clip_0)"><clipPath id="clip_0"><rect width="280" height="176"></rect></clipPath><g><g><g><line x1="0" y1="0" x2="0" y2="176.984375" fill="rgb(0, 0, 0)" stroke="rgb(189, 189, 189)" stroke-width="1px" opacity="0.25"></line><line x1="21.53846153846154" y1="0" x2="21.53846153846154" y2="176.984375" fill="rgb(0, 0, 0)" stroke="rgb(189, 189, 189)" stroke-width="1px" opacity="0.25"></line><line x1="43.07692307692308" y1="0" x2="43.07692307692308" y2="176.984375" fill="rgb(0, 0, 0)" stroke="rgb(189, 189, 189)" stroke-width="1px" opacity="0.25"></line><line x1="64.61538461538461" y1="0" x2="64.61538461538461" y2="176.984375" fill="rgb(0, 0, 0)" stroke="rgb(189, 189, 189)" stroke-width="1px" opacity="0.25"></line><line x1="86.15384615384616" y1="0" x2="86.15384615384616" y2="176.984375" fill="rgb(0, 0, 0)" stroke="rgb(189, 189, 189)" stroke-width="1px" opacity="0.25"></line><line x1="107.6923076923077" y1="0" x2="107.6923076923077" y2="176.984375" fill="rgb(0, 0, 0)" stroke="rgb(189, 189, 189)" stroke-width="1px" opacity="0.25"></line><line x1="129.23076923076923" y1="0" x2="129.23076923076923" y2="176.984375" fill="rgb(0, 0, 0)" stroke="rgb(189, 189, 189)" stroke-width="1px" opacity="0.25"></line><line x1="150.76923076923077" y1="0" x2="150.76923076923077" y2="176.984375" fill="rgb(0, 0, 0)" stroke="rgb(189, 189, 189)" stroke-width="1px" opacity="0.25"></line><line x1="172.30769230769232" y1="0" x2="172.30769230769232" y2="176.984375" fill="rgb(0, 0, 0)" stroke="rgb(189, 189, 189)" stroke-width="1px" opacity="0.25"></line><line x1="193.84615384615384" y1="0" x2="193.84615384615384" y2="176.984375" fill="rgb(0, 0, 0)" stroke="rgb(189, 189, 189)" stroke-width="1px" opacity="0.25"></line><line x1="215.3846153846154" y1="0" x2="215.3846153846154" y2="176.984375" fill="rgb(0, 0, 0)" stroke="rgb(189, 189, 189)" stroke-width="1px" opacity="0.25"></line><line x1="236.92307692307693" y1="0" x2="236.92307692307693" y2="176.984375" fill="rgb(0, 0, 0)" stroke="rgb(189, 189, 189)" stroke-width="1px" opacity="0.25"></line><line x1="258.46153846153845" y1="0" x2="258.46153846153845" y2="176.984375" fill="rgb(0, 0, 0)" stroke="rgb(189, 189, 189)" stroke-width="1px" opacity="0.25"></line><line x1="280" y1="0" x2="280" y2="176.984375" fill="rgb(0, 0, 0)" stroke="rgb(189, 189, 189)" stroke-width="1px" opacity="0.25"></line></g><g><line x1="0" y1="176.984375" x2="280" y2="176.984375" fill="rgb(0, 0, 0)" stroke="rgb(189, 189, 189)" stroke-width="1px" opacity="0.25"></line><line x1="0" y1="162.23567708333331" x2="280" y2="162.23567708333331" fill="rgb(0, 0, 0)" stroke="rgb(189, 189, 189)" stroke-width="1px" opacity="0.25"></line><line x1="0" y1="147.48697916666666" x2="280" y2="147.48697916666666" fill="rgb(0, 0, 0)" stroke="rgb(189, 189, 189)" stroke-width="1px" opacity="0.25"></line><line x1="0" y1="132.73828125" x2="280" y2="132.73828125" fill="rgb(0, 0, 0)" stroke="rgb(189, 189, 189)" stroke-width="1px" opacity="0.25"></line><line x1="0" y1="117.9895833333333" x2="280" y2="117.9895833333333" fill="rgb(0, 0, 0)" stroke="rgb(189, 189, 189)" stroke-width="1px" opacity="0.25"></line><line x1="0" y1="103.24088541666666" x2="280" y2="103.24088541666666" fill="rgb(0, 0, 0)" stroke="rgb(189, 189, 189)" stroke-width="1px" opacity="0.25"></line><line x1="0" y1="88.49218749999999" x2="280" y2="88.49218749999999" fill="rgb(0, 0, 0)" stroke="rgb(189, 189, 189)" stroke-width="1px" opacity="0.25"></line><line x1="0" y1="73.74348958333333" x2="280" y2="73.74348958333333" fill="rgb(0, 0, 0)" stroke="rgb(189, 189, 189)" stroke-width="1px" opacity="0.25"></line><line x1="0" y1="58.99479166666665" x2="280" y2="58.99479166666665" fill="rgb(0, 0, 0)" stroke="rgb(189, 189, 189)" stroke-width="1px" opacity="0.25"></line><line x1="0" y1="44.24609374999998" x2="280" y2="44.24609374999998" fill="rgb(0, 0, 0)" stroke="rgb(189, 189, 189)" stroke-width="1px" opacity="0.25"></line><line x1="0" y1="29.497395833333325" x2="280" y2="29.497395833333325" fill="rgb(0, 0, 0)" stroke="rgb(189, 189, 189)" stroke-width="1px" opacity="0.25"></line><line x1="0" y1="14.748697916666654" x2="280" y2="14.748697916666654" fill="rgb(0, 0, 0)" stroke="rgb(189, 189, 189)" stroke-width="1px" opacity="0.25"></line><line x1="0" y1="0" x2="280" y2="0" fill="rgb(0, 0, 0)" stroke="rgb(189, 189, 189)" stroke-width="1px" opacity="0.25"></line></g></g></g><g><g><line x1="0" y1="280.2252604166667" x2="280" y2="280.2252604166667" fill="rgb(0, 0, 0)" stroke="rgb(153, 153, 153)" stroke-width="1.5px"></line></g></g><g><g><line x1="21.53846153846154" y1="0" x2="21.53846153846154" y2="176.984375" fill="rgb(0, 0, 0)" stroke="rgb(153, 153, 153)" stroke-width="1.5px"></line></g></g><g><g><g><g><g><path style="fill: none;" stroke="rgb(0, 119, 187)" stroke-width="2px" d="M25.846153846153847,183.02891018697602L30.153846153846157,165.95789277164556L34.46153846153847,151.99924761565134L38.769230769230774,157.03778273375573L43.07692307692308,133.91212340096075L47.38461538461539,116.43678286903014L51.69230769230769,110.72833890750935L56,104.72309894509065L60.307692307692314,93.60570249380415L64.61538461538461,153.65001339197676L68.92307692307693,117.08875766500559L73.23076923076924,98.20994980270684L77.53846153846155,80.3060246292209L81.84615384615385,82.3414884039996L86.15384615384616,73.53311715080496L90.46153846153847,68.10435725281327L94.76923076923077,60.00361763254373L99.07692307692308,57.081250445219816L103.38461538461539,58.96076183683798L107.6923076923077,58.19938569249846L112,61.20577729841253L116.30769230769232,55.211363153928076L120.61538461538463,52.31706456192569L124.92307692307693,49.20007140051202L129.23076923076923,48.032198642466156L133.53846153846155,45.854187107363686L137.84615384615387,42.02871430986592L142.15384615384613,41.59820966858806L146.46153846153848,38.2642344891439L150.76923076923077,35.94901571278962L155.0769230769231,34.05131293544933L159.3846153846154,36.03679772337104L163.6923076923077,37.22808853544515L168,36.61087851138483L172.30769230769232,37.54832330403505L176.6153846153846,36.58506109575014L180.92307692307693,34.31185081085624L185.23076923076923,35.15174927527212L189.53846153846155,35.80099856236143L193.84615384615384,36.66419527875215L198.15384615384616,33.65701505837265L202.46153846153845,33.81435255875715L206.76923076923077,36.11258671710785L211.07692307692307,36.28063224213515L215.3846153846154,34.250283003961776L219.69230769230768,32.52349476079585L224,32.94049577849312L228.3076923076923,31.03530615627506L232.61538461538464,32.87099541475211L236.92307692307693,38.38006525265765L241.23076923076925,35.84899058879228L245.53846153846155,35.56546147256526L249.84615384615387,32.75559578218426L254.15384615384616,31.23920025715652L258.46153846153845,30.837934609737367L262.7692307692308,30.500306436808643L267.0769230769231,30.22507442832984L271.38461538461536,31.513009186765643" fill="none"></path></g><g><path style="fill: none;" stroke="rgb(255, 112, 67)" stroke-width="2px" d="M25.846153846153847,183.69167769506262L30.153846153846157,164.81876445085533L34.46153846153847,146.2392372247956L38.769230769230774,128.3829087734218L43.07692307692308,114.70396915355398L47.38461538461539,102.40184573990955L51.69230769230769,92.34035427661223L56,83.19335767288212L60.307692307692314,75.3068711636987L64.61538461538461,68.54451960922403L68.92307692307693,63.51991364710405L73.23076923076924,58.04248588560086L77.53846153846155,53.94483676196493L81.84615384615385,51.314682140625536L86.15384615384616,48.21448554467588L90.46153846153847,45.250363176336194L94.76923076923077,42.22834676074022L99.07692307692308,39.776328948500336L103.38461538461539,37.7845620603491L107.6923076923077,35.97161143614602L112,34.29748406845288L116.30769230769232,32.9485560517513L120.61538461538463,31.51076561179933L124.92307692307693,30.20897097310877L129.23076923076923,29.0702888030671L133.53846153846155,28.13464777562553L137.84615384615387,26.955339849716825L142.15384615384613,25.88751803947508L146.46153846153848,24.98913899076738L150.76923076923077,24.326525557142123L155.0769230769231,23.534534049442353L159.3846153846154,22.870018159850567L163.6923076923077,21.787650182804136L168,21.130338696367346L172.30769230769232,20.4309353971226L176.6153846153846,19.8114514447901L180.92307692307693,19.242549338919645L185.23076923076923,18.927503443815404L189.53846153846155,18.280947773024284L193.84615384615384,17.758914328711644L198.15384615384616,17.103861523857827L202.46153846153845,16.545173951861507L206.76923076923077,15.691951821175737L211.07692307692307,15.56392105538956L215.3846153846154,14.800813911897922L219.69230769230768,14.245658877720293L224,14.015117085285631L228.3076923076923,13.569145358382213L232.61538461538464,13.259485515395394L236.92307692307693,12.742377831127488L241.23076923076925,12.510999321590932L245.53846153846155,12.10659533854815L249.84615384615387,11.95072273693859L254.15384615384616,11.399671042406474L258.46153846153845,11.042744658679938L262.7692307692308,10.560388743877022L267.0769230769231,9.884442442531027L271.38461538461536,9.631379351094132" fill="none"></path></g></g></g></g><g opacity="0.2"><g><g><g><path style="fill: none;" stroke="rgb(0, 119, 187)" stroke-width="2px" d="M21.53846153846154,199.03651264480624L25.846153846153847,173.4243487122779L30.153846153846157,149.5697160529283L34.46153846153847,135.5838809122021L38.769230769230774,163.61609418395284L43.07692307692308,101.92101130634546L47.38461538461539,91.44676630292088L51.69230769230769,102.40537281055003L56,95.86653645833333L60.307692307692314,77.09766442949572L64.61538461538461,243.17188225865053L68.92307692307693,62.44583881366996L73.23076923076924,69.95338059247781L77.53846153846155,53.48521252224841L81.84615384615385,85.39229145490874L86.15384615384616,60.32677261686572L90.46153846153847,59.96351467507579L94.76923076923077,47.854564979051545L99.07692307692308,52.69814485746124L103.38461538461539,61.77985712947943L107.6923076923077,57.057363231666365L112,65.71526578068732L116.30769230769232,46.219860286451855L120.61538461538463,47.97565095964817L124.92307692307693,44.52460381264486L129.23076923076923,46.28039448584118L133.53846153846155,42.58717537764458L137.84615384615387,36.290510986621165L142.15384615384613,40.952453103226915L146.46153846153848,33.26327356261511L150.76923076923077,32.47618831600992L155.0769230769231,31.204759147018173L159.3846153846154,39.01502466822662L163.6923076923077,39.01502466822662L168,35.68506350181995L172.30769230769232,38.9544904688373L176.6153846153846,35.140167798226074L180.92307692307693,30.902035404617575L185.23076923076923,36.41159696721782L189.53846153846155,36.774872490825736L193.84615384615384,37.9589903516074L198.15384615384616,29.14624473142126L202.46153846153845,34.05035880922028L206.76923076923077,39.55993795363852L211.07692307692307,36.532700529632464L215.3846153846154,31.204759147018173L219.69230769230768,29.933312396208432L224,33.565997305015706L228.3076923076923,28.177521723012116L232.61538461538464,35.624529302430645L236.92307692307693,46.6436700094491L241.23076923076925,32.05237859301267L245.53846153846155,35.140167798226074L249.84615384615387,28.540797246620038L254.15384615384616,28.964606969617286L258.46153846153845,30.23603613860903L262.7692307692308,29.993864177415755L267.0769230769231,29.812226415611782L271.38461538461536,33.44491132441906" fill="none"></path></g><g><path style="fill: none;" stroke="rgb(255, 112, 67)" stroke-width="2px" d="M21.53846153846154,206.44894557911903L25.846153846153847,170.0373169646288L30.153846153846157,146.7007677364163L34.46153846153847,124.38971320694932L38.769230769230774,105.06968634730825L43.07692307692308,95.7810712410137L47.38461538461539,84.80961242442329L51.69230769230769,77.6706031328067L56,69.70331439500053L60.307692307692314,63.59635782024511L64.61538461538461,58.462326308401906L68.92307692307693,56.010348387683415L73.23076923076924,49.844228995343045L77.53846153846155,47.80639079771934L81.84615384615385,47.372541856641554L86.15384615384616,43.566377149584376L90.46153846153847,40.805433941073694L94.76923076923077,37.69608942698685L99.07692307692308,36.09867577037462L103.38461538461539,34.79709378350524L107.6923076923077,33.252284926362314L112,31.78634810478736L116.30769230769232,30.925190658929434L120.61538461538463,29.354096983869862L124.92307692307693,28.25628826767204L129.23076923076923,27.362270403963816L133.53846153846155,26.73118862851211L137.84615384615387,25.186379771369186L142.15384615384613,24.28578630772729L146.46153846153848,23.64157091422626L150.76923076923077,23.332605626434066L155.0769230769231,22.34654694547255L159.3846153846154,21.873244404792764L163.6923076923077,20.164098294762265L168,20.144371494961273L172.30769230769232,19.381830466290307L176.6153846153846,18.882225525875878L180.92307692307693,18.3891961853951L185.23076923076923,18.45493460291375L189.53846153846155,17.311114268998292L193.84615384615384,16.975864163289454L198.15384615384616,16.121282317365196L202.46153846153845,15.707142594270389L206.76923076923077,14.41211862551668L211.07692307692307,15.371874906743553L215.3846153846154,13.656153196779384L219.69230769230768,13.41292632650582L224,13.669304396646705L228.3076923076923,12.900187768042068L232.61538461538464,12.794995750921455L236.92307692307693,11.96671630473186L241.23076923076925,12.163931557287766L245.53846153846155,11.499989363985744L249.84615384615387,11.716913834524645L254.15384615384616,10.573093500609186L258.46153846153845,10.507355083090557L262.7692307692308,9.836854871672882L267.0769230769231,8.870522990512338L271.38461538461536,9.251784713938813" fill="none"></path></g></g></g></g></g></g><g transform="translate(50, 176)" clip-path="url(#clip_1)"><clipPath id="clip_1"><rect width="280" height="23"></rect></clipPath><g><g><line x1="0" y1="0" x2="0" y2="5" style="visibility: inherit;" fill="rgb(0, 0, 0)" stroke="rgb(204, 204, 204)" stroke-width="1px"></line><line x1="21.53846153846154" y1="0" x2="21.53846153846154" y2="5" style="visibility: inherit;" fill="rgb(0, 0, 0)" stroke="rgb(204, 204, 204)" stroke-width="1px"></line><line x1="43.07692307692308" y1="0" x2="43.07692307692308" y2="5" style="visibility: inherit;" fill="rgb(0, 0, 0)" stroke="rgb(204, 204, 204)" stroke-width="1px"></line><line x1="64.61538461538461" y1="0" x2="64.61538461538461" y2="5" style="visibility: inherit;" fill="rgb(0, 0, 0)" stroke="rgb(204, 204, 204)" stroke-width="1px"></line><line x1="86.15384615384616" y1="0" x2="86.15384615384616" y2="5" style="visibility: inherit;" fill="rgb(0, 0, 0)" stroke="rgb(204, 204, 204)" stroke-width="1px"></line><line x1="107.6923076923077" y1="0" x2="107.6923076923077" y2="5" style="visibility: inherit;" fill="rgb(0, 0, 0)" stroke="rgb(204, 204, 204)" stroke-width="1px"></line><line x1="129.23076923076923" y1="0" x2="129.23076923076923" y2="5" style="visibility: inherit;" fill="rgb(0, 0, 0)" stroke="rgb(204, 204, 204)" stroke-width="1px"></line><line x1="150.76923076923077" y1="0" x2="150.76923076923077" y2="5" style="visibility: inherit;" fill="rgb(0, 0, 0)" stroke="rgb(204, 204, 204)" stroke-width="1px"></line><line x1="172.30769230769232" y1="0" x2="172.30769230769232" y2="5" style="visibility: inherit;" fill="rgb(0, 0, 0)" stroke="rgb(204, 204, 204)" stroke-width="1px"></line><line x1="193.84615384615384" y1="0" x2="193.84615384615384" y2="5" style="visibility: inherit;" fill="rgb(0, 0, 0)" stroke="rgb(204, 204, 204)" stroke-width="1px"></line><line x1="215.3846153846154" y1="0" x2="215.3846153846154" y2="5" style="visibility: inherit;" fill="rgb(0, 0, 0)" stroke="rgb(204, 204, 204)" stroke-width="1px"></line><line x1="236.92307692307693" y1="0" x2="236.92307692307693" y2="5" style="visibility: inherit;" fill="rgb(0, 0, 0)" stroke="rgb(204, 204, 204)" stroke-width="1px"></line><line x1="258.46153846153845" y1="0" x2="258.46153846153845" y2="5" style="visibility: inherit;" fill="rgb(0, 0, 0)" stroke="rgb(204, 204, 204)" stroke-width="1px"></line><line x1="280" y1="0" x2="280" y2="5" style="visibility: inherit;" fill="rgb(0, 0, 0)" stroke="rgb(204, 204, 204)" stroke-width="1px"></line></g><g transform="translate(0, 8)"><text style="text-anchor: middle; visibility: hidden; font-family: Roboto, sans-serif; font-size: 12px; font-weight: 200;" x="0" y="0" dx="0em" dy="0.95em" fill="rgb(255, 255, 255)" stroke="none" stroke-width="1px">-5</text><text style="text-anchor: middle; visibility: inherit; font-family: Roboto, sans-serif; font-size: 12px; font-weight: 200;" x="21.53846153846154" y="0" dx="0em" dy="0.95em" fill="rgb(255, 255, 255)" stroke="none" stroke-width="1px">0</text><text style="text-anchor: middle; visibility: inherit; font-family: Roboto, sans-serif; font-size: 12px; font-weight: 200;" x="43.07692307692308" y="0" dx="0em" dy="0.95em" fill="rgb(255, 255, 255)" stroke="none" stroke-width="1px">5</text><text style="text-anchor: middle; visibility: inherit; font-family: Roboto, sans-serif; font-size: 12px; font-weight: 200;" x="64.61538461538461" y="0" dx="0em" dy="0.95em" fill="rgb(255, 255, 255)" stroke="none" stroke-width="1px">10</text><text style="text-anchor: middle; visibility: inherit; font-family: Roboto, sans-serif; font-size: 12px; font-weight: 200;" x="86.15384615384616" y="0" dx="0em" dy="0.95em" fill="rgb(255, 255, 255)" stroke="none" stroke-width="1px">15</text><text style="text-anchor: middle; visibility: inherit; font-family: Roboto, sans-serif; font-size: 12px; font-weight: 200;" x="107.6923076923077" y="0" dx="0em" dy="0.95em" fill="rgb(255, 255, 255)" stroke="none" stroke-width="1px">20</text><text style="text-anchor: middle; visibility: inherit; font-family: Roboto, sans-serif; font-size: 12px; font-weight: 200;" x="129.23076923076923" y="0" dx="0em" dy="0.95em" fill="rgb(255, 255, 255)" stroke="none" stroke-width="1px">25</text><text style="text-anchor: middle; visibility: inherit; font-family: Roboto, sans-serif; font-size: 12px; font-weight: 200;" x="150.76923076923077" y="0" dx="0em" dy="0.95em" fill="rgb(255, 255, 255)" stroke="none" stroke-width="1px">30</text><text style="text-anchor: middle; visibility: inherit; font-family: Roboto, sans-serif; font-size: 12px; font-weight: 200;" x="172.30769230769232" y="0" dx="0em" dy="0.95em" fill="rgb(255, 255, 255)" stroke="none" stroke-width="1px">35</text><text style="text-anchor: middle; visibility: inherit; font-family: Roboto, sans-serif; font-size: 12px; font-weight: 200;" x="193.84615384615384" y="0" dx="0em" dy="0.95em" fill="rgb(255, 255, 255)" stroke="none" stroke-width="1px">40</text><text style="text-anchor: middle; visibility: inherit; font-family: Roboto, sans-serif; font-size: 12px; font-weight: 200;" x="215.3846153846154" y="0" dx="0em" dy="0.95em" fill="rgb(255, 255, 255)" stroke="none" stroke-width="1px">45</text><text style="text-anchor: middle; visibility: inherit; font-family: Roboto, sans-serif; font-size: 12px; font-weight: 200;" x="236.92307692307693" y="0" dx="0em" dy="0.95em" fill="rgb(255, 255, 255)" stroke="none" stroke-width="1px">50</text><text style="text-anchor: middle; visibility: inherit; font-family: Roboto, sans-serif; font-size: 12px; font-weight: 200;" x="258.46153846153845" y="0" dx="0em" dy="0.95em" fill="rgb(255, 255, 255)" stroke="none" stroke-width="1px">55</text><text style="text-anchor: middle; visibility: hidden; font-family: Roboto, sans-serif; font-size: 12px; font-weight: 200;" x="280" y="0" dx="0em" dy="0.95em" fill="rgb(255, 255, 255)" stroke="none" stroke-width="1px">60</text></g><line x1="0" y1="0" x2="280" y2="0" fill="rgb(0, 0, 0)" stroke="rgb(204, 204, 204)" stroke-width="1px"></line></g></g></g></g></svg>