<svg viewBox="0 0 330 200" xmlns="http://www.w3.org/2000/svg"><g><g><g><g><g><line x1="51.5625" y1="176.921875" x2="46.5625" y2="176.921875" style="visibility: inherit;" fill="rgb(0, 0, 0)" stroke="rgb(204, 204, 204)" stroke-width="1px"></line><line x1="51.5625" y1="157.26388888888889" x2="46.5625" y2="157.26388888888889" style="visibility: inherit;" fill="rgb(0, 0, 0)" stroke="rgb(204, 204, 204)" stroke-width="1px"></line><line x1="51.5625" y1="137.60590277777777" x2="46.5625" y2="137.60590277777777" style="visibility: inherit;" fill="rgb(0, 0, 0)" stroke="rgb(204, 204, 204)" stroke-width="1px"></line><line x1="51.5625" y1="117.94791666666666" x2="46.5625" y2="117.94791666666666" style="visibility: inherit;" fill="rgb(0, 0, 0)" stroke="rgb(204, 204, 204)" stroke-width="1px"></line><line x1="51.5625" y1="98.28993055555556" x2="46.5625" y2="98.28993055555556" style="visibility: inherit;" fill="rgb(0, 0, 0)" stroke="rgb(204, 204, 204)" stroke-width="1px"></line><line x1="51.5625" y1="78.63194444444444" x2="46.5625" y2="78.63194444444444" style="visibility: inherit;" fill="rgb(0, 0, 0)" stroke="rgb(204, 204, 204)" stroke-width="1px"></line><line x1="51.5625" y1="58.97395833333334" x2="46.5625" y2="58.97395833333334" style="visibility: inherit;" fill="rgb(0, 0, 0)" stroke="rgb(204, 204, 204)" stroke-width="1px"></line><line x1="51.5625" y1="39.31597222222224" x2="46.5625" y2="39.31597222222224" style="visibility: inherit;" fill="rgb(0, 0, 0)" stroke="rgb(204, 204, 204)" stroke-width="1px"></line><line x1="51.5625" y1="19.65798611111112" x2="46.5625" y2="19.65798611111112" style="visibility: inherit;" fill="rgb(0, 0, 0)" stroke="rgb(204, 204, 204)" stroke-width="1px"></line><line x1="51.5625" y1="0" x2="46.5625" y2="0" style="visibility: inherit;" fill="rgb(0, 0, 0)" stroke="rgb(204, 204, 204)" stroke-width="1px"></line></g><g transform="translate(41.5625, 0)"><text style="text-anchor: end; visibility: hidden; font-family: Roboto, sans-serif; font-size: 12px; font-weight: 200;" x="0" y="176.921875" dx="0em" dy="0.3em" fill="rgb(33, 33, 33)" stroke="none" stroke-width="1px">-0.1</text><text style="text-anchor: end; visibility: inherit; font-family: Roboto, sans-serif; font-size: 12px; font-weight: 200;" x="0" y="157.26388888888889" dx="0em" dy="0.3em" fill="rgb(33, 33, 33)" stroke="none" stroke-width="1px">0</text><text style="text-anchor: end; visibility: hidden; font-family: Roboto, sans-serif; font-size: 12px; font-weight: 200;" x="0" y="137.60590277777777" dx="0em" dy="0.3em" fill="rgb(33, 33, 33)" stroke="none" stroke-width="1px">0.1</text><text style="text-anchor: end; visibility: inherit; font-family: Roboto, sans-serif; font-size: 12px; font-weight: 200;" x="0" y="117.94791666666666" dx="0em" dy="0.3em" fill="rgb(33, 33, 33)" stroke="none" stroke-width="1px">0.2</text><text style="text-anchor: end; visibility: hidden; font-family: Roboto, sans-serif; font-size: 12px; font-weight: 200;" x="0" y="98.28993055555556" dx="0em" dy="0.3em" fill="rgb(33, 33, 33)" stroke="none" stroke-width="1px">0.3</text><text style="text-anchor: end; visibility: inherit; font-family: Roboto, sans-serif; font-size: 12px; font-weight: 200;" x="0" y="78.63194444444444" dx="0em" dy="0.3em" fill="rgb(33, 33, 33)" stroke="none" stroke-width="1px">0.4</text><text style="text-anchor: end; visibility: hidden; font-family: Roboto, sans-serif; font-size: 12px; font-weight: 200;" x="0" y="58.97395833333334" dx="0em" dy="0.3em" fill="rgb(33, 33, 33)" stroke="none" stroke-width="1px">0.5</text><text style="text-anchor: end; visibility: inherit; font-family: Roboto, sans-serif; font-size: 12px; font-weight: 200;" x="0" y="39.31597222222224" dx="0em" dy="0.3em" fill="rgb(33, 33, 33)" stroke="none" stroke-width="1px">0.6</text><text style="text-anchor: end; visibility: hidden; font-family: Roboto, sans-serif; font-size: 12px; font-weight: 200;" x="0" y="19.65798611111112" dx="0em" dy="0.3em" fill="rgb(33, 33, 33)" stroke="none" stroke-width="1px">0.7</text><text style="text-anchor: end; visibility: hidden; font-family: Roboto, sans-serif; font-size: 12px; font-weight: 200;" x="0" y="0" dx="0em" dy="0.3em" fill="rgb(33, 33, 33)" stroke="none" stroke-width="1px">0.8</text></g><line x1="51.5625" y1="0" x2="51.5625" y2="176.921875" fill="rgb(0, 0, 0)" stroke="rgb(204, 204, 204)" stroke-width="1px"></line></g></g><g transform="translate(51, 0)" clip-path="url(#clip_0)"><clipPath id="clip_0"><rect width="278" height="176"></rect></clipPath><g><g><g><line x1="0" y1="0" x2="0" y2="176.921875" fill="rgb(0, 0, 0)" stroke="rgb(66, 66, 66)" stroke-width="1px" opacity="0.25"></line><line x1="25.3125" y1="0" x2="25.3125" y2="176.921875" fill="rgb(0, 0, 0)" stroke="rgb(66, 66, 66)" stroke-width="1px" opacity="0.25"></line><line x1="50.625" y1="0" x2="50.625" y2="176.921875" fill="rgb(0, 0, 0)" stroke="rgb(66, 66, 66)" stroke-width="1px" opacity="0.25"></line><line x1="75.9375" y1="0" x2="75.9375" y2="176.921875" fill="rgb(0, 0, 0)" stroke="rgb(66, 66, 66)" stroke-width="1px" opacity="0.25"></line><line x1="101.25" y1="0" x2="101.25" y2="176.921875" fill="rgb(0, 0, 0)" stroke="rgb(66, 66, 66)" stroke-width="1px" opacity="0.25"></line><line x1="126.5625" y1="0" x2="126.5625" y2="176.921875" fill="rgb(0, 0, 0)" stroke="rgb(66, 66, 66)" stroke-width="1px" opacity="0.25"></line><line x1="151.875" y1="0" x2="151.875" y2="176.921875" fill="rgb(0, 0, 0)" stroke="rgb(66, 66, 66)" stroke-width="1px" opacity="0.25"></line><line x1="177.1875" y1="0" x2="177.1875" y2="176.921875" fill="rgb(0, 0, 0)" stroke="rgb(66, 66, 66)" stroke-width="1px" opacity="0.25"></line><line x1="202.5" y1="0" x2="202.5" y2="176.921875" fill="rgb(0, 0, 0)" stroke="rgb(66, 66, 66)" stroke-width="1px" opacity="0.25"></line><line x1="227.8125" y1="0" x2="227.8125" y2="176.921875" fill="rgb(0, 0, 0)" stroke="rgb(66, 66, 66)" stroke-width="1px" opacity="0.25"></line><line x1="253.125" y1="0" x2="253.125" y2="176.921875" fill="rgb(0, 0, 0)" stroke="rgb(66, 66, 66)" stroke-width="1px" opacity="0.25"></line><line x1="278.4375" y1="0" x2="278.4375" y2="176.921875" fill="rgb(0, 0, 0)" stroke="rgb(66, 66, 66)" stroke-width="1px" opacity="0.25"></line></g><g><line x1="0" y1="176.921875" x2="278.4375" y2="176.921875" fill="rgb(0, 0, 0)" stroke="rgb(66, 66, 66)" stroke-width="1px" opacity="0.25"></line><line x1="0" y1="157.26388888888889" x2="278.4375" y2="157.26388888888889" fill="rgb(0, 0, 0)" stroke="rgb(66, 66, 66)" stroke-width="1px" opacity="0.25"></line><line x1="0" y1="137.60590277777777" x2="278.4375" y2="137.60590277777777" fill="rgb(0, 0, 0)" stroke="rgb(66, 66, 66)" stroke-width="1px" opacity="0.25"></line><line x1="0" y1="117.94791666666666" x2="278.4375" y2="117.94791666666666" fill="rgb(0, 0, 0)" stroke="rgb(66, 66, 66)" stroke-width="1px" opacity="0.25"></line><line x1="0" y1="98.28993055555556" x2="278.4375" y2="98.28993055555556" fill="rgb(0, 0, 0)" stroke="rgb(66, 66, 66)" stroke-width="1px" opacity="0.25"></line><line x1="0" y1="78.63194444444444" x2="278.4375" y2="78.63194444444444" fill="rgb(0, 0, 0)" stroke="rgb(66, 66, 66)" stroke-width="1px" opacity="0.25"></line><line x1="0" y1="58.97395833333334" x2="278.4375" y2="58.97395833333334" fill="rgb(0, 0, 0)" stroke="rgb(66, 66, 66)" stroke-width="1px" opacity="0.25"></line><line x1="0" y1="39.31597222222224" x2="278.4375" y2="39.31597222222224" fill="rgb(0, 0, 0)" stroke="rgb(66, 66, 66)" stroke-width="1px" opacity="0.25"></line><line x1="0" y1="19.65798611111112" x2="278.4375" y2="19.65798611111112" fill="rgb(0, 0, 0)" stroke="rgb(66, 66, 66)" stroke-width="1px" opacity="0.25"></line><line x1="0" y1="0" x2="278.4375" y2="0" fill="rgb(0, 0, 0)" stroke="rgb(66, 66, 66)" stroke-width="1px" opacity="0.25"></line></g></g></g><g><g><line x1="0" y1="157.26388888888889" x2="278.4375" y2="157.26388888888889" fill="rgb(0, 0, 0)" stroke="rgb(153, 153, 153)" stroke-width="1.5px"></line></g></g><g><g><line x1="25.3125" y1="0" x2="25.3125" y2="176.921875" fill="rgb(0, 0, 0)" stroke="rgb(153, 153, 153)" stroke-width="1.5px"></line></g></g><g><g><g><g><g><path style="fill: none;" stroke="rgb(0, 119, 187)" stroke-width="2px" d="M37.96875,-0.983553783498819L39.234375,11.419198142882143L40.5,24.74652938932326L41.765625,15.674031589515504L43.03125,29.217077197881927L44.296875,22.059424397803692L45.5625,24.46210347325551L46.828125,28.053442487979538L48.09375,30.166395559706302L49.359375,30.452270883912835L50.625,37.70785734695241L51.890625,47.38663624852417L53.15625,38.392794898391394L54.421875,39.863719480510944L55.6875,42.76111052677382L56.953125,42.753355606303494L58.21874999999999,49.707884726747665L59.484375,52.49924061949418L60.75,50.690275450136404L62.015625,51.37188798464463L63.28125,55.63968871490061L64.546875,58.40418728818016L65.8125,53.78557204059388L67.078125,60.72532576787212L68.34375,58.44572978353366L69.609375,59.804999080808535L70.87499999999999,53.76106749121187L72.140625,60.161188229250115L73.40625,59.373028610973286L74.671875,54.977495893570314L75.9375,54.459925967791015L77.203125,54.49527200156133L78.46875,53.32960576329622L79.734375,56.4045938717361L81,56.78571190368336L82.265625,61.9698679149525L83.53125,61.51271907683582L84.796875,54.50557243660409L86.0625,59.758384648089425L87.328125,64.05550020324011L88.59375,66.7133917327562L89.859375,62.778900928900136L91.125,61.9873099665462L92.39062500000001,63.035928707632664L93.65625,63.82130962332598L94.921875,57.85595639470961L96.1875,48.892407371309496L97.453125,44.375599978175735L98.71875,50.31182007807958L99.984375,55.760178956963365L101.25,45.76566004428235L102.515625,32.99929272064326L103.78125,44.38020069949925L105.046875,50.04731876732773L106.3125,53.12872587590534L107.578125,53.290686605401866L108.84375,46.42158989879836L110.109375,50.68819212629408L111.375,56.11728261286259L112.640625,55.95702378029171L113.90625,52.56601823811458L115.171875,53.418609445709336L116.43749999999999,58.62107551503611L117.703125,55.58655977732668L118.96875,57.77442966252935L120.234375,59.101001173690506L121.5,61.627234683900745L122.765625,58.50318034701726L124.03125,49.431671700738306L125.296875,54.20440187991573L126.5625,57.27003763551892L127.828125,63.27730373838274L129.09375,65.18496330086624L130.359375,63.308061073704316L131.625,60.90898397957974L132.890625,45.62357591560233L134.15625,49.957522913308104L135.421875,53.90721281070148L136.6875,53.12748929984884L137.953125,50.02303260549748L139.21875,54.82700274776325L140.484375,63.45537171447817L141.74999999999997,69.89459367024295L143.015625,74.81004580087732L144.28125,74.71744781185052L145.546875,76.15562363935992L146.8125,75.96051027059478L148.078125,75.85742540400513L149.34375,75.99221039963867L150.609375,77.04451109436017L151.875,75.75244496271132L153.140625,76.06293268273014L154.40625,74.78326484316099L155.671875,74.67205609085266L156.9375,72.79913000816698L158.203125,74.78908802949148L159.46875,73.8151208226928L160.734375,74.4417749608834L162,74.61600648057139L163.26562499999997,74.76402510609898L164.53125,74.96281741346586L165.796875,73.84319747993254L167.0625,74.81663142754311L168.328125,73.02796346509493L169.59375,71.7827209078281L170.859375,72.80681714638789L172.125,72.50591372890439L173.390625,73.50519185876747L174.65625,71.43511509430449L175.921875,72.30039629425497L177.1875,71.49653877021407L178.453125,69.28053335775192L179.71875,70.68752276317166L180.984375,69.36782615060142L182.25,68.05125673467633L183.515625,69.19899084680111L184.78125000000003,66.94443620347512L186.046875,67.75878540392999L187.3125,67.28196436813082L188.578125,69.28434495063651L189.84375,69.5611134705532L191.109375,69.06940858037635L192.375,65.20178922335624L193.640625,62.97550255048299L194.90625,65.93162400785731L196.171875,64.99746261284437L197.4375,65.39082923764897L198.703125,66.23643461133983L199.96875,65.85261133951845L201.234375,66.37295289749808L202.5,65.6016918283265L203.765625,65.24455991121L205.03125,65.53885796204163L206.29687500000003,65.1245494984932L207.5625,66.6795640615051L208.828125,65.2477488056029L210.09375,66.4218857989417L211.35937499999997,66.8201704185132L212.625,64.79510276987034L213.890625,63.43522275707946L215.15625,64.44492951763765L216.421875,65.40486694787796L217.6875,65.60751174981147L218.953125,65.13286132148752L220.21875,63.152615318388825L221.484375,63.09683375207715L222.75,63.85410553011344L224.015625,65.22230888150628L225.28125,65.78325951148732L226.546875,63.3438842759013L227.8125,66.0102062457672L229.078125,65.26928213953867L230.34375,65.54733595875669L231.609375,65.48344268312053L232.87499999999997,63.69540561143886L234.140625,63.378215049340646L235.40625,65.08627741161877L236.671875,66.25928424467811L237.9375,67.97636439562277L239.203125,64.67596129171147L240.46875,66.6056597516049L241.734375,66.84245832076326L243,67.20022299479007L244.265625,65.69720813967456L245.53125,64.0641906122211L246.796875,65.29140558334583L248.0625,66.27500932679843L249.328125,64.94046192394126L250.59375,66.54041874892206L251.859375,65.53989691126195L253.125,64.08178393984213L254.39062500000003,63.60805248742261" fill="none"></path></g><g><path style="fill: none;" stroke="rgb(255, 112, 67)" stroke-width="2px" d="M32.90625,-8.958444426807338L34.171875,7.099165038136862L35.43749999999999,20.046868063052546L36.703125,31.090851395531562L37.96875,39.913081396871235L39.234375,46.97743114670628L40.5,53.04497443171018L41.765625,58.36528446964901L43.03125,63.12615009896685L44.296875,67.20704746414376L45.5625,70.93248391907008L46.828125,74.5528111438187L48.09375,77.60359209957771L49.359375,80.43096277697543L50.625,83.11520475798505L51.890625,85.01560817387562L53.15625,87.23954780534413L54.421875,89.81430366796233L55.6875,91.53449352681803L56.953125,93.58486185618129L58.21874999999999,95.19451731533483L59.484375,96.58155496588907L60.75,98.23309831474815L62.015625,99.71544510637004L63.28125,101.03611864022334L64.546875,102.67628339674656L65.8125,103.960435324906L67.078125,104.65026845456312L68.34375,105.944310318061L69.609375,107.18369337659274L70.87499999999999,108.5037879562462L72.140625,109.55717408937127L73.40625,110.61625323289799L74.671875,111.7053822614763L75.9375,112.46268231636591L77.203125,113.8594782310595L78.46875,114.51085242640957L79.734375,115.77685088800989L81,116.7153509190584L82.265625,117.41848870480896L83.53125,118.02513555367315L84.796875,119.09304438655288L86.0625,119.4525318992666L87.328125,119.97727040372159L88.59375,120.41040087134472L89.859375,121.84535157437872L91.125,122.3567958562883L92.39062500000001,123.16406462484892L93.65625,123.60408028059061L94.921875,124.52820612096453L96.1875,124.70192128434068L97.453125,125.42537541696012L98.71875,126.10356959302132L99.984375,126.65984831236067L101.25,126.9295747109149L102.515625,127.43639983937011L103.78125,127.54355201354872L105.046875,128.55198043774402L106.3125,128.58344694106862L107.578125,129.23403056018006L108.84375,129.89104607618737L110.109375,130.1854411578026L111.375,130.21311671695855L112.640625,131.0105735608394L113.90625,131.57177020107602L115.171875,132.10965392114656L116.43749999999999,132.1446222190873L117.703125,132.3848337307566L118.96875,132.95940078138855L120.234375,133.14087297607605L121.5,133.5323293213044L122.765625,133.36881738084688L124.03125,133.92599571438927L125.296875,134.38868785279868L126.5625,134.7506127472621L127.828125,135.06940508845565L129.09375,135.70759249773246L130.359375,135.58445628650543L131.625,136.10635490341437L132.890625,136.05702994187578L134.15625,136.59060083648257L135.421875,137.02395490226561L136.6875,137.17260418094935L137.953125,137.48048353815514L139.21875,137.52519447603444L140.484375,139.397611153666L141.74999999999997,142.2110939521345L143.015625,144.20613197908648L144.28125,145.69060271180845L145.546875,146.86823333483784L146.8125,147.80000095892845L148.078125,148.45763814555838L149.34375,148.68469150832405L150.609375,149.09601080951967L151.875,149.46301662780982L153.140625,149.71694976330207L154.40625,149.93922278160306L155.671875,150.00841423539222L156.9375,150.2223563791585L158.203125,150.43091741257894L159.46875,150.71584224416713L160.734375,150.83369873788735L162,150.8671242216677L163.26562499999997,150.995874548784L164.53125,151.0921102110247L165.796875,151.1085181694629L167.0625,151.170013266025L168.328125,151.30196039015433L169.59375,151.42918448112547L170.859375,151.53311381383946L172.125,151.6270234400077L173.390625,151.6685613255781L174.65625,151.6909008817601L175.921875,151.63820450687678L177.1875,151.66625880440583L178.453125,151.80726584463622L179.71875,151.7631439636722L180.984375,152.0264784236414L182.25,152.1043209935586L183.515625,152.1634524912043L184.78125000000003,152.04730514469892L186.046875,152.1388974104785L187.3125,152.19795960395967L188.578125,152.25427176400692L189.84375,152.27594053103724L191.109375,152.36256616460437L192.375,152.31821256005733L193.640625,152.479700132461L194.90625,152.5941928909434L196.171875,152.5889898467171L197.4375,152.65975529535106L198.703125,152.8317214660718L199.96875,152.85442098940158L201.234375,152.93076981014977L202.5,152.99877153139266L203.765625,153.16104697288998L205.03125,153.1066212213594L206.29687500000003,152.99101035971117L207.5625,152.99166463033416L208.828125,152.92320562249722L210.09375,153.01453489790018L211.35937499999997,153.1213249231666L212.625,153.2148549270073L213.890625,153.10930925381206L215.15625,153.13025997167955L216.421875,153.18753308558743L217.6875,153.17720188684208L218.953125,153.06747081948217L220.21875,153.03285407708015L221.484375,153.0844847031982L222.75,153.09583258804093L224.015625,153.02764678039807L225.28125,153.03974772702352L226.546875,153.05761180648489L227.8125,153.1085669750546L229.078125,153.23612067659437L230.34375,153.22021617794883L231.609375,153.20239888195616L232.87499999999997,153.16425218061502L234.140625,153.166981049591L235.40625,153.27114905582906L236.671875,153.1956354844044L237.9375,153.21001762547147L239.203125,153.28436650676525L240.46875,153.2819323741372L241.734375,153.2804899095598L243,153.29572456760934L244.265625,153.28923390855476L245.53125,153.28375829414878L246.796875,153.31888529816445L248.0625,153.2037994481513L249.328125,153.23542791134844L250.59375,153.22394719086222L251.859375,153.2392785760221L253.125,153.2437296492229L254.39062500000003,153.28809593606223" fill="none"></path></g></g></g></g><g opacity="0.2"><g><g><g><path style="fill: none;" stroke="rgb(0, 119, 187)" stroke-width="2px" d="M32.90625,-18.525467753617278L34.171875,14.702955541718342L35.43749999999999,-12.241695352105609L36.703125,4.489124603983444L37.96875,10.067599525882155L39.234375,29.95583080417581L40.5,44.69401021012003L41.765625,2.0830588574624813L43.03125,49.51572626870541L44.296875,11.327993328993525L45.5625,28.06510535317164L46.828125,33.43953916947875L48.09375,33.33550328016281L49.359375,30.881057740085666L50.625,48.590839127906506L51.890625,61.904486116539275L53.15625,24.902210440900607L54.421875,42.07008892918628L55.6875,47.10717650275264L56.953125,42.74172325866919L58.21874999999999,60.13966061268002L59.484375,56.68627017322514L60.75,47.9768293624123L62.015625,52.39430640969012L63.28125,62.04138839503543L64.546875,62.550934598056806L65.8125,46.85764972058436L67.078125,71.13495586170919L68.34375,55.02633590499561L69.609375,61.8439029916707L70.87499999999999,44.69517020032639L72.140625,69.7613692768953L73.40625,58.19078918794792L74.671875,48.3841968321552L75.9375,53.68357108015982L77.203125,54.54829105217425L78.46875,51.58110640674003L79.734375,61.01707603306407L81,57.357388951505236L82.265625,69.74610193104795L83.53125,60.82699581970358L84.796875,43.994852476649825L86.0625,67.63760296514052L87.328125,70.50117353587929L88.59375,70.7002290269981L89.859375,56.87716472314464L91.125,60.79992352301877L92.39062500000001,64.60885681925964L93.65625,64.99938099686472L94.921875,48.9079265517907L96.1875,35.44708383621441L97.453125,37.600388888476644L98.71875,59.21615022793412L99.984375,63.93271727528838L101.25,30.773881675261595L102.515625,13.8497417351852L103.78125,61.45156266778294L105.046875,58.54799586907029L106.3125,57.7508365387718L107.578125,53.533627699646686L108.84375,36.117944838893095L110.109375,57.08809546753764L111.375,64.26091834271533L112.640625,55.71663553143542L113.90625,47.479509924848884L115.171875,54.697496257101506L116.43749999999999,66.42477461902631L117.703125,51.03478617076246L118.96875,61.05623449033333L120.234375,61.090858440432285L121.5,65.41658494921607L122.765625,53.81709884169202L124.03125,35.82440873131985L125.296875,61.36349714868186L126.5625,61.86849126892371L127.828125,72.2882028926785L129.09375,68.04645264459154L130.359375,60.49270773296142L131.625,57.31036833839284L132.890625,22.695463819636256L134.15625,56.45844340986677L135.421875,59.831747656791585L136.6875,51.957904033569825L137.953125,45.36634756397042L139.21875,62.03295796116194L140.484375,76.39792516455054L141.74999999999997,79.55342660389013L143.015625,82.18322399682883L144.28125,74.57855082831037L145.546875,78.31288738062399L146.8125,75.66784021744711L148.078125,75.70279810412062L149.34375,76.194387893089L150.609375,78.62296213644248L151.875,73.81434576523802L153.140625,76.52866426275837L154.40625,72.8637630838073L155.671875,74.50524296239018L156.9375,69.98974088413847L158.203125,77.77402506147823L159.46875,72.35417001249475L160.734375,75.38175616816929L162,74.8773537601034L163.26562499999997,74.98605304439036L164.53125,75.26100587451624L165.796875,72.16376757963252L167.0625,76.27678234895897L168.328125,70.34496152142269L169.59375,69.91485707192786L170.859375,74.34296150422759L172.125,72.05455860267911L173.390625,75.0041090535621L174.65625,68.32999994761002L175.921875,73.5983180941807L177.1875,70.29075248415273L178.453125,65.95652523905868L179.71875,72.79800687130127L180.984375,67.38828123174608L182.25,66.07640261078876L183.515625,70.92059201498827L184.78125000000003,63.562604238486124L186.046875,68.98030920461235L187.3125,66.56673281443203L188.578125,72.2879158243951L189.84375,69.97626625042824L191.109375,68.33185124511105L192.375,59.40036018782607L193.640625,59.636072541173135L194.90625,70.36580619391883L196.171875,63.596220520325005L197.4375,65.98087917485586L198.703125,67.50484267187616L199.96875,65.27687643178636L201.234375,67.15346523446756L202.5,64.44480022456912L203.765625,64.70886203553528L205.03125,65.98030503828907L206.29687500000003,64.50308680317056L207.5625,69.01208590602296L208.828125,63.100025921749584L210.09375,68.18309128894988L211.35937499999997,67.41759734787047L212.625,61.75750129690601L213.890625,61.395402737893164L215.15625,65.95948965847492L216.421875,66.84477309323847L217.6875,65.91147895271165L218.953125,64.42088567900163L220.21875,60.18224631374082L221.484375,63.013161402609626L222.75,64.99001319716788L224.015625,67.27461390859551L225.28125,66.6246854564589L226.546875,59.684821422522276L227.8125,70.00968920056606L229.078125,64.15789598019587L230.34375,65.96441668758375L231.609375,65.38760276966626L232.87499999999997,61.01335000391636L234.140625,62.90242920619333L235.40625,67.64837095503593L236.671875,68.01879449426714L237.9375,70.55198462203974L239.203125,59.72535663584454L240.46875,69.50020744144503L241.734375,67.19765617450079L243,67.7368700058303L244.265625,63.44268585700128L245.53125,61.61466432104094L246.796875,67.13222804003293L248.0625,67.7504149419773L249.328125,62.938640819655525L250.59375,68.94035398639325L251.859375,64.03911415477181L253.125,61.89461448271243L254.39062500000003,62.89745530879332" fill="none"></path></g><g><path style="fill: none;" stroke="rgb(255, 112, 67)" stroke-width="2px" d="M30.375,-13.703587656012848L31.640625,4.143927922472358L32.90625,18.98706886648305L34.171875,30.511313791076354L35.43749999999999,39.142215062967615L36.703125,47.489879534269384L37.96875,53.06640942208469L39.234375,57.53551189208196L40.5,62.12647777764749L41.765625,66.33532648533583L43.03125,70.26185232411243L44.296875,73.32551534691206L45.5625,76.5190621216057L46.828125,79.98238278025141L48.09375,82.17929877744368L49.359375,84.67176036019293L50.625,87.14142051928988L51.890625,87.86615076412758L53.15625,90.5754133447384L54.421875,93.6764069614518L55.6875,94.11476608872827L56.953125,96.66040560634187L58.21874999999999,97.60899638539803L59.484375,98.66210931229097L60.75,100.71041181673193L62.015625,101.93896447453234L63.28125,103.01712850305356L64.546875,105.1365302051935L65.8125,105.88666306384322L67.078125,105.6850180996375L68.34375,107.88537305769408L69.609375,109.04276793243157L70.87499999999999,110.48392980530238L72.140625,111.13725327928033L73.40625,112.20487194228917L74.671875,113.33907580070407L75.9375,113.59863239718187L77.203125,115.95467210141942L78.46875,115.48791371896449L79.734375,117.67584857986205L81,118.1231009653873L82.265625,118.47319538332522L83.53125,118.93510582691268L84.796875,120.69490763581254L86.0625,119.99176316832504L87.328125,120.7643781603935L88.59375,121.06009657277417L89.859375,123.99777762891934L91.125,123.12396227915049L92.39062500000001,124.37496777768764L93.65625,124.26410376420245L94.921875,125.91439488152456L96.1875,124.96249402940482L97.453125,126.51055661588907L98.71875,127.12086085711297L99.984375,127.49426639136962L101.25,127.33416430874624L102.515625,128.19663753205288L103.78125,127.70428027481668L105.046875,130.06462307403692L106.3125,128.63064669605552L107.578125,130.2099059888472L108.84375,130.8765693501983L110.109375,130.62703378022545L111.375,130.25463005569245L112.640625,132.20675882666063L113.90625,132.413565161431L115.171875,132.91647950125238L116.43749999999999,132.1970746659984L117.703125,132.7451509982606L118.96875,133.82125135733642L120.234375,133.4130812681073L121.5,134.11951383914695L122.765625,133.12354947016055L124.03125,134.76176321470282L125.296875,135.08272606041282L126.5625,135.29350008895724L127.828125,135.54759360024602L129.09375,136.66487361164764L130.359375,135.3997519696649L131.625,136.88920282877774L132.890625,135.98304249956792L134.15625,137.39095717839277L135.421875,137.6739860009402L136.6875,137.3955780989749L137.953125,137.9423025739638L139.21875,137.59226088285342L140.484375,142.2062361701133L141.74999999999997,146.43131814983727L143.015625,147.19868901951446L144.28125,147.91730881089137L145.546875,148.6346792693819L146.8125,149.1976523950644L148.078125,149.4440939255033L149.34375,149.0252715524726L150.609375,149.71298976131303L151.875,150.0135253552451L153.140625,150.09784946654045L154.40625,150.27263230905456L155.671875,150.11220141607595L156.9375,150.5432695948079L158.203125,150.74375896270956L159.46875,151.14322949154948L160.734375,151.0104834784676L162,150.91726244733823L163.26562499999997,151.18900003945842L164.53125,151.23646370438573L165.796875,151.13313010712025L167.0625,151.26225591086808L168.328125,151.49988107634837L169.59375,151.62002061758216L170.859375,151.68900781291046L172.125,151.76788787926003L173.390625,151.73086815393376L174.65625,151.724410216033L175.921875,151.55915994455185L177.1875,151.70834025069942L178.453125,152.01877640498182L179.71875,151.69696114222623L180.984375,152.42148011359515L182.25,152.22108484843434L183.515625,152.25214973767288L184.78125000000003,151.87308412494085L186.046875,152.27628580914785L187.3125,152.28655289418143L188.578125,152.3387400040778L189.84375,152.3084436815827L191.109375,152.49250461495507L192.375,152.2516821532368L193.640625,152.72193149106656L194.90625,152.76593202866692L196.171875,152.58118528037772L197.4375,152.76590346830199L198.703125,153.08967072215293L199.96875,152.88847027439624L201.234375,153.0452930412721L202.5,153.10077411325702L203.765625,153.4044601351359L205.03125,153.02498259406357L206.29687500000003,152.81759406723884L207.5625,152.9926460362686L208.828125,152.8205171107418L210.09375,153.15152881100462L211.35937499999997,153.28150996106623L212.625,153.35514993276834L213.890625,152.95099074401918L215.15625,153.1616860484808L216.421875,153.27344275644927L217.6875,153.16170508872406L218.953125,152.90287421844226L220.21875,152.9809289634771L221.484375,153.16193064237532L222.75,153.11285441530507L224.015625,152.9253680689338L225.28125,153.05789914696166L226.546875,153.0844079256769L227.8125,153.1849997279092L229.078125,153.427451228904L230.34375,153.19635942998056L231.609375,153.17567293796714L232.87499999999997,153.10703212860327L234.140625,153.171074353055L235.40625,153.42740106518613L236.671875,153.08236512726742L237.9375,153.23159083707205L239.203125,153.39588982870595L240.46875,153.27828117519513L241.734375,153.27832621269368L243,153.31857655468372L244.265625,153.27949791997284L245.53125,153.2755448725398L246.796875,153.37157580418798L248.0625,153.03117067313158L249.328125,153.28287060614417L250.59375,153.20672611013288L251.859375,153.26227565376192L253.125,153.25040625902412L254.39062500000003,153.35464536632125" fill="none"></path></g></g></g></g></g></g><g transform="translate(51, 176)" clip-path="url(#clip_1)"><clipPath id="clip_1"><rect width="278" height="23"></rect></clipPath><g><g><line x1="0" y1="0" x2="0" y2="5" style="visibility: inherit;" fill="rgb(0, 0, 0)" stroke="rgb(204, 204, 204)" stroke-width="1px"></line><line x1="25.3125" y1="0" x2="25.3125" y2="5" style="visibility: inherit;" fill="rgb(0, 0, 0)" stroke="rgb(204, 204, 204)" stroke-width="1px"></line><line x1="50.625" y1="0" x2="50.625" y2="5" style="visibility: inherit;" fill="rgb(0, 0, 0)" stroke="rgb(204, 204, 204)" stroke-width="1px"></line><line x1="75.9375" y1="0" x2="75.9375" y2="5" style="visibility: inherit;" fill="rgb(0, 0, 0)" stroke="rgb(204, 204, 204)" stroke-width="1px"></line><line x1="101.25" y1="0" x2="101.25" y2="5" style="visibility: inherit;" fill="rgb(0, 0, 0)" stroke="rgb(204, 204, 204)" stroke-width="1px"></line><line x1="126.5625" y1="0" x2="126.5625" y2="5" style="visibility: inherit;" fill="rgb(0, 0, 0)" stroke="rgb(204, 204, 204)" stroke-width="1px"></line><line x1="151.875" y1="0" x2="151.875" y2="5" style="visibility: inherit;" fill="rgb(0, 0, 0)" stroke="rgb(204, 204, 204)" stroke-width="1px"></line><line x1="177.1875" y1="0" x2="177.1875" y2="5" style="visibility: inherit;" fill="rgb(0, 0, 0)" stroke="rgb(204, 204, 204)" stroke-width="1px"></line><line x1="202.5" y1="0" x2="202.5" y2="5" style="visibility: inherit;" fill="rgb(0, 0, 0)" stroke="rgb(204, 204, 204)" stroke-width="1px"></line><line x1="227.8125" y1="0" x2="227.8125" y2="5" style="visibility: inherit;" fill="rgb(0, 0, 0)" stroke="rgb(204, 204, 204)" stroke-width="1px"></line><line x1="253.125" y1="0" x2="253.125" y2="5" style="visibility: inherit;" fill="rgb(0, 0, 0)" stroke="rgb(204, 204, 204)" stroke-width="1px"></line><line x1="278.4375" y1="0" x2="278.4375" y2="5" style="visibility: inherit;" fill="rgb(0, 0, 0)" stroke="rgb(204, 204, 204)" stroke-width="1px"></line></g><g transform="translate(0, 8)"><text style="text-anchor: middle; visibility: hidden; font-family: Roboto, sans-serif; font-size: 12px; font-weight: 200;" x="0" y="0" dx="0em" dy="0.95em" fill="rgb(33, 33, 33)" stroke="none" stroke-width="1px">-20</text><text style="text-anchor: middle; visibility: inherit; font-family: Roboto, sans-serif; font-size: 12px; font-weight: 200;" x="25.3125" y="0" dx="0em" dy="0.95em" fill="rgb(33, 33, 33)" stroke="none" stroke-width="1px">0</text><text style="text-anchor: middle; visibility: inherit; font-family: Roboto, sans-serif; font-size: 12px; font-weight: 200;" x="50.625" y="0" dx="0em" dy="0.95em" fill="rgb(33, 33, 33)" stroke="none" stroke-width="1px">20</text><text style="text-anchor: middle; visibility: inherit; font-family: Roboto, sans-serif; font-size: 12px; font-weight: 200;" x="75.9375" y="0" dx="0em" dy="0.95em" fill="rgb(33, 33, 33)" stroke="none" stroke-width="1px">40</text><text style="text-anchor: middle; visibility: inherit; font-family: Roboto, sans-serif; font-size: 12px; font-weight: 200;" x="101.25" y="0" dx="0em" dy="0.95em" fill="rgb(33, 33, 33)" stroke="none" stroke-width="1px">60</text><text style="text-anchor: middle; visibility: inherit; font-family: Roboto, sans-serif; font-size: 12px; font-weight: 200;" x="126.5625" y="0" dx="0em" dy="0.95em" fill="rgb(33, 33, 33)" stroke="none" stroke-width="1px">80</text><text style="text-anchor: middle; visibility: inherit; font-family: Roboto, sans-serif; font-size: 12px; font-weight: 200;" x="151.875" y="0" dx="0em" dy="0.95em" fill="rgb(33, 33, 33)" stroke="none" stroke-width="1px">100</text><text style="text-anchor: middle; visibility: inherit; font-family: Roboto, sans-serif; font-size: 12px; font-weight: 200;" x="177.1875" y="0" dx="0em" dy="0.95em" fill="rgb(33, 33, 33)" stroke="none" stroke-width="1px">120</text><text style="text-anchor: middle; visibility: inherit; font-family: Roboto, sans-serif; font-size: 12px; font-weight: 200;" x="202.5" y="0" dx="0em" dy="0.95em" fill="rgb(33, 33, 33)" stroke="none" stroke-width="1px">140</text><text style="text-anchor: middle; visibility: inherit; font-family: Roboto, sans-serif; font-size: 12px; font-weight: 200;" x="227.8125" y="0" dx="0em" dy="0.95em" fill="rgb(33, 33, 33)" stroke="none" stroke-width="1px">160</text><text style="text-anchor: middle; visibility: inherit; font-family: Roboto, sans-serif; font-size: 12px; font-weight: 200;" x="253.125" y="0" dx="0em" dy="0.95em" fill="rgb(33, 33, 33)" stroke="none" stroke-width="1px">180</text><text style="text-anchor: middle; visibility: hidden; font-family: Roboto, sans-serif; font-size: 12px; font-weight: 200;" x="278.4375" y="0" dx="0em" dy="0.95em" fill="rgb(33, 33, 33)" stroke="none" stroke-width="1px">200</text></g><line x1="0" y1="0" x2="278.4375" y2="0" fill="rgb(0, 0, 0)" stroke="rgb(204, 204, 204)" stroke-width="1px"></line></g></g></g></g></svg>