<svg viewBox="0 0 330 200" xmlns="http://www.w3.org/2000/svg"><g><g><g><g><g><line x1="50" y1="176.984375" x2="45" y2="176.984375" style="visibility: inherit;" fill="rgb(0, 0, 0)" stroke="rgb(204, 204, 204)" stroke-width="1px"></line><line x1="50" y1="165.18541666666664" x2="45" y2="165.18541666666664" style="visibility: inherit;" fill="rgb(0, 0, 0)" stroke="rgb(204, 204, 204)" stroke-width="1px"></line><line x1="50" y1="153.3864583333333" x2="45" y2="153.3864583333333" style="visibility: inherit;" fill="rgb(0, 0, 0)" stroke="rgb(204, 204, 204)" stroke-width="1px"></line><line x1="50" y1="141.58749999999998" x2="45" y2="141.58749999999998" style="visibility: inherit;" fill="rgb(0, 0, 0)" stroke="rgb(204, 204, 204)" stroke-width="1px"></line><line x1="50" y1="129.78854166666665" x2="45" y2="129.78854166666665" style="visibility: inherit;" fill="rgb(0, 0, 0)" stroke="rgb(204, 204, 204)" stroke-width="1px"></line><line x1="50" y1="117.98958333333334" x2="45" y2="117.98958333333334" style="visibility: inherit;" fill="rgb(0, 0, 0)" stroke="rgb(204, 204, 204)" stroke-width="1px"></line><line x1="50" y1="106.19062500000001" x2="45" y2="106.19062500000001" style="visibility: inherit;" fill="rgb(0, 0, 0)" stroke="rgb(204, 204, 204)" stroke-width="1px"></line><line x1="50" y1="94.39166666666668" x2="45" y2="94.39166666666668" style="visibility: inherit;" fill="rgb(0, 0, 0)" stroke="rgb(204, 204, 204)" stroke-width="1px"></line><line x1="50" y1="82.59270833333333" x2="45" y2="82.59270833333333" style="visibility: inherit;" fill="rgb(0, 0, 0)" stroke="rgb(204, 204, 204)" stroke-width="1px"></line><line x1="50" y1="70.79374999999999" x2="45" y2="70.79374999999999" style="visibility: inherit;" fill="rgb(0, 0, 0)" stroke="rgb(204, 204, 204)" stroke-width="1px"></line><line x1="50" y1="58.99479166666665" x2="45" y2="58.99479166666665" style="visibility: inherit;" fill="rgb(0, 0, 0)" stroke="rgb(204, 204, 204)" stroke-width="1px"></line><line x1="50" y1="47.19583333333336" x2="45" y2="47.19583333333336" style="visibility: inherit;" fill="rgb(0, 0, 0)" stroke="rgb(204, 204, 204)" stroke-width="1px"></line><line x1="50" y1="35.39687500000003" x2="45" y2="35.39687500000003" style="visibility: inherit;" fill="rgb(0, 0, 0)" stroke="rgb(204, 204, 204)" stroke-width="1px"></line><line x1="50" y1="23.59791666666668" x2="45" y2="23.59791666666668" style="visibility: inherit;" fill="rgb(0, 0, 0)" stroke="rgb(204, 204, 204)" stroke-width="1px"></line><line x1="50" y1="11.798958333333351" x2="45" y2="11.798958333333351" style="visibility: inherit;" fill="rgb(0, 0, 0)" stroke="rgb(204, 204, 204)" stroke-width="1px"></line><line x1="50" y1="0" x2="45" y2="0" style="visibility: inherit;" fill="rgb(0, 0, 0)" stroke="rgb(204, 204, 204)" stroke-width="1px"></line></g><g transform="translate(40, 0)"><text style="text-anchor: end; visibility: hidden; font-family: Roboto, sans-serif; font-size: 12px; font-weight: 200;" x="0" y="176.984375" dx="0em" dy="0.3em" fill="rgb(33, 33, 33)" stroke="none" stroke-width="1px">0.72</text><text style="text-anchor: end; visibility: inherit; font-family: Roboto, sans-serif; font-size: 12px; font-weight: 200;" x="0" y="165.18541666666664" dx="0em" dy="0.3em" fill="rgb(33, 33, 33)" stroke="none" stroke-width="1px">0.74</text><text style="text-anchor: end; visibility: hidden; font-family: Roboto, sans-serif; font-size: 12px; font-weight: 200;" x="0" y="153.3864583333333" dx="0em" dy="0.3em" fill="rgb(33, 33, 33)" stroke="none" stroke-width="1px">0.76</text><text style="text-anchor: end; visibility: inherit; font-family: Roboto, sans-serif; font-size: 12px; font-weight: 200;" x="0" y="141.58749999999998" dx="0em" dy="0.3em" fill="rgb(33, 33, 33)" stroke="none" stroke-width="1px">0.78</text><text style="text-anchor: end; visibility: hidden; font-family: Roboto, sans-serif; font-size: 12px; font-weight: 200;" x="0" y="129.78854166666665" dx="0em" dy="0.3em" fill="rgb(33, 33, 33)" stroke="none" stroke-width="1px">0.8</text><text style="text-anchor: end; visibility: inherit; font-family: Roboto, sans-serif; font-size: 12px; font-weight: 200;" x="0" y="117.98958333333334" dx="0em" dy="0.3em" fill="rgb(33, 33, 33)" stroke="none" stroke-width="1px">0.82</text><text style="text-anchor: end; visibility: hidden; font-family: Roboto, sans-serif; font-size: 12px; font-weight: 200;" x="0" y="106.19062500000001" dx="0em" dy="0.3em" fill="rgb(33, 33, 33)" stroke="none" stroke-width="1px">0.84</text><text style="text-anchor: end; visibility: inherit; font-family: Roboto, sans-serif; font-size: 12px; font-weight: 200;" x="0" y="94.39166666666668" dx="0em" dy="0.3em" fill="rgb(33, 33, 33)" stroke="none" stroke-width="1px">0.86</text><text style="text-anchor: end; visibility: hidden; font-family: Roboto, sans-serif; font-size: 12px; font-weight: 200;" x="0" y="82.59270833333333" dx="0em" dy="0.3em" fill="rgb(33, 33, 33)" stroke="none" stroke-width="1px">0.88</text><text style="text-anchor: end; visibility: inherit; font-family: Roboto, sans-serif; font-size: 12px; font-weight: 200;" x="0" y="70.79374999999999" dx="0em" dy="0.3em" fill="rgb(33, 33, 33)" stroke="none" stroke-width="1px">0.9</text><text style="text-anchor: end; visibility: hidden; font-family: Roboto, sans-serif; font-size: 12px; font-weight: 200;" x="0" y="58.99479166666665" dx="0em" dy="0.3em" fill="rgb(33, 33, 33)" stroke="none" stroke-width="1px">0.92</text><text style="text-anchor: end; visibility: inherit; font-family: Roboto, sans-serif; font-size: 12px; font-weight: 200;" x="0" y="47.19583333333336" dx="0em" dy="0.3em" fill="rgb(33, 33, 33)" stroke="none" stroke-width="1px">0.94</text><text style="text-anchor: end; visibility: hidden; font-family: Roboto, sans-serif; font-size: 12px; font-weight: 200;" x="0" y="35.39687500000003" dx="0em" dy="0.3em" fill="rgb(33, 33, 33)" stroke="none" stroke-width="1px">0.96</text><text style="text-anchor: end; visibility: inherit; font-family: Roboto, sans-serif; font-size: 12px; font-weight: 200;" x="0" y="23.59791666666668" dx="0em" dy="0.3em" fill="rgb(33, 33, 33)" stroke="none" stroke-width="1px">0.98</text><text style="text-anchor: end; visibility: hidden; font-family: Roboto, sans-serif; font-size: 12px; font-weight: 200;" x="0" y="11.798958333333351" dx="0em" dy="0.3em" fill="rgb(33, 33, 33)" stroke="none" stroke-width="1px">1</text><text style="text-anchor: end; visibility: hidden; font-family: Roboto, sans-serif; font-size: 12px; font-weight: 200;" x="0" y="0" dx="0em" dy="0.3em" fill="rgb(33, 33, 33)" stroke="none" stroke-width="1px">1.02</text></g><line x1="50" y1="0" x2="50" y2="176.984375" fill="rgb(0, 0, 0)" stroke="rgb(204, 204, 204)" stroke-width="1px"></line></g></g><g transform="translate(50, 0)" clip-path="url(#clip_0)"><clipPath id="clip_0"><rect width="280" height="176"></rect></clipPath><g><g><g><line x1="0" y1="0" x2="0" y2="176.984375" fill="rgb(0, 0, 0)" stroke="rgb(66, 66, 66)" stroke-width="1px" opacity="0.25"></line><line x1="25.454545454545457" y1="0" x2="25.454545454545457" y2="176.984375" fill="rgb(0, 0, 0)" stroke="rgb(66, 66, 66)" stroke-width="1px" opacity="0.25"></line><line x1="50.909090909090914" y1="0" x2="50.909090909090914" y2="176.984375" fill="rgb(0, 0, 0)" stroke="rgb(66, 66, 66)" stroke-width="1px" opacity="0.25"></line><line x1="76.36363636363636" y1="0" x2="76.36363636363636" y2="176.984375" fill="rgb(0, 0, 0)" stroke="rgb(66, 66, 66)" stroke-width="1px" opacity="0.25"></line><line x1="101.81818181818183" y1="0" x2="101.81818181818183" y2="176.984375" fill="rgb(0, 0, 0)" stroke="rgb(66, 66, 66)" stroke-width="1px" opacity="0.25"></line><line x1="127.27272727272727" y1="0" x2="127.27272727272727" y2="176.984375" fill="rgb(0, 0, 0)" stroke="rgb(66, 66, 66)" stroke-width="1px" opacity="0.25"></line><line x1="152.72727272727272" y1="0" x2="152.72727272727272" y2="176.984375" fill="rgb(0, 0, 0)" stroke="rgb(66, 66, 66)" stroke-width="1px" opacity="0.25"></line><line x1="178.1818181818182" y1="0" x2="178.1818181818182" y2="176.984375" fill="rgb(0, 0, 0)" stroke="rgb(66, 66, 66)" stroke-width="1px" opacity="0.25"></line><line x1="203.63636363636365" y1="0" x2="203.63636363636365" y2="176.984375" fill="rgb(0, 0, 0)" stroke="rgb(66, 66, 66)" stroke-width="1px" opacity="0.25"></line><line x1="229.0909090909091" y1="0" x2="229.0909090909091" y2="176.984375" fill="rgb(0, 0, 0)" stroke="rgb(66, 66, 66)" stroke-width="1px" opacity="0.25"></line><line x1="254.54545454545453" y1="0" x2="254.54545454545453" y2="176.984375" fill="rgb(0, 0, 0)" stroke="rgb(66, 66, 66)" stroke-width="1px" opacity="0.25"></line><line x1="280" y1="0" x2="280" y2="176.984375" fill="rgb(0, 0, 0)" stroke="rgb(66, 66, 66)" stroke-width="1px" opacity="0.25"></line></g><g><line x1="0" y1="176.984375" x2="280" y2="176.984375" fill="rgb(0, 0, 0)" stroke="rgb(66, 66, 66)" stroke-width="1px" opacity="0.25"></line><line x1="0" y1="165.18541666666664" x2="280" y2="165.18541666666664" fill="rgb(0, 0, 0)" stroke="rgb(66, 66, 66)" stroke-width="1px" opacity="0.25"></line><line x1="0" y1="153.3864583333333" x2="280" y2="153.3864583333333" fill="rgb(0, 0, 0)" stroke="rgb(66, 66, 66)" stroke-width="1px" opacity="0.25"></line><line x1="0" y1="141.58749999999998" x2="280" y2="141.58749999999998" fill="rgb(0, 0, 0)" stroke="rgb(66, 66, 66)" stroke-width="1px" opacity="0.25"></line><line x1="0" y1="129.78854166666665" x2="280" y2="129.78854166666665" fill="rgb(0, 0, 0)" stroke="rgb(66, 66, 66)" stroke-width="1px" opacity="0.25"></line><line x1="0" y1="117.98958333333334" x2="280" y2="117.98958333333334" fill="rgb(0, 0, 0)" stroke="rgb(66, 66, 66)" stroke-width="1px" opacity="0.25"></line><line x1="0" y1="106.19062500000001" x2="280" y2="106.19062500000001" fill="rgb(0, 0, 0)" stroke="rgb(66, 66, 66)" stroke-width="1px" opacity="0.25"></line><line x1="0" y1="94.39166666666668" x2="280" y2="94.39166666666668" fill="rgb(0, 0, 0)" stroke="rgb(66, 66, 66)" stroke-width="1px" opacity="0.25"></line><line x1="0" y1="82.59270833333333" x2="280" y2="82.59270833333333" fill="rgb(0, 0, 0)" stroke="rgb(66, 66, 66)" stroke-width="1px" opacity="0.25"></line><line x1="0" y1="70.79374999999999" x2="280" y2="70.79374999999999" fill="rgb(0, 0, 0)" stroke="rgb(66, 66, 66)" stroke-width="1px" opacity="0.25"></line><line x1="0" y1="58.99479166666665" x2="280" y2="58.99479166666665" fill="rgb(0, 0, 0)" stroke="rgb(66, 66, 66)" stroke-width="1px" opacity="0.25"></line><line x1="0" y1="47.19583333333336" x2="280" y2="47.19583333333336" fill="rgb(0, 0, 0)" stroke="rgb(66, 66, 66)" stroke-width="1px" opacity="0.25"></line><line x1="0" y1="35.39687500000003" x2="280" y2="35.39687500000003" fill="rgb(0, 0, 0)" stroke="rgb(66, 66, 66)" stroke-width="1px" opacity="0.25"></line><line x1="0" y1="23.59791666666668" x2="280" y2="23.59791666666668" fill="rgb(0, 0, 0)" stroke="rgb(66, 66, 66)" stroke-width="1px" opacity="0.25"></line><line x1="0" y1="11.798958333333351" x2="280" y2="11.798958333333351" fill="rgb(0, 0, 0)" stroke="rgb(66, 66, 66)" stroke-width="1px" opacity="0.25"></line><line x1="0" y1="0" x2="280" y2="0" fill="rgb(0, 0, 0)" stroke="rgb(66, 66, 66)" stroke-width="1px" opacity="0.25"></line></g></g></g><g><g><line x1="0" y1="601.7468749999999" x2="280" y2="601.7468749999999" fill="rgb(0, 0, 0)" stroke="rgb(153, 153, 153)" stroke-width="1.5px"></line></g></g><g><g><line x1="25.454545454545457" y1="0" x2="25.454545454545457" y2="176.984375" fill="rgb(0, 0, 0)" stroke="rgb(153, 153, 153)" stroke-width="1.5px"></line></g></g><g><g><g><g><g><path style="fill: none;" stroke="rgb(0, 119, 187)" stroke-width="2px" d="M36.90909090909091,180.01205404325034L38.18181818181818,173.7817462133707L39.45454545454545,161.1264215861781L40.72727272727273,148.11897942403843L42,152.9285794356663L43.27272727272727,138.51221472874852L44.54545454545455,141.93064691116328L45.81818181818182,141.89800822333024L47.09090909090909,137.08278898291428L48.36363636363637,138.21438953947515L49.63636363636364,136.95580295094584L50.909090909090914,129.41951986090433L52.18181818181819,119.76360200527185L53.45454545454545,126.75727886872819L54.72727272727273,124.8989461021207L56,120.92623745104038L57.27272727272727,119.89881291591007L58.54545454545454,115.64967068966685L59.81818181818181,112.22835447611642L61.090909090909086,116.76282871511795L62.36363636363636,114.88211028749512L63.63636363636363,111.76781992273087L64.9090909090909,109.56018409741485L66.18181818181819,112.11046680243228L67.45454545454545,107.58617539147778L68.72727272727273,106.71214976093837L70,106.67209238506756L71.27272727272727,108.53706256335238L72.54545454545455,104.03748635693685L73.81818181818181,104.09857836753409L75.0909090909091,107.13825028934268L76.36363636363636,108.18708909793287L77.63636363636364,107.16956678382415L78.9090909090909,105.7840890541756L80.18181818181819,105.34029162007339L81.45454545454545,103.52407041149993L82.72727272727273,98.94694892144067L84,99.00995517026142L85.27272727272728,102.3413960500358L86.54545454545455,98.14047552031374L87.81818181818183,96.73394938765072L89.0909090909091,94.87287630740757L90.36363636363637,98.21233719978088L91.63636363636364,97.93951993997847L92.90909090909092,95.3056122853786L94.18181818181819,95.75956842846286L95.45454545454545,97.53345750280248L96.72727272727273,103.05388162245293L98,105.34897869359443L99.27272727272728,102.65743546459649L100.54545454545455,98.37854059407239L101.81818181818183,103.94840661512302L103.0909090909091,108.54966262232166L104.36363636363637,100.84829212854834L105.63636363636363,97.4383648018868L106.9090909090909,96.45799316604919L108.18181818181817,96.69317595078536L109.45454545454545,102.45282984130978L110.72727272727272,98.98231420186202L112,95.8344200580342L113.27272727272727,94.18786256565782L114.54545454545455,97.89819773919861L115.81818181818181,96.34640372507265L117.09090909090908,93.7200743591536L118.36363636363636,93.25830292472737L119.63636363636363,93.94995603975349L120.9090909090909,91.45879998172335L122.18181818181817,89.62505856850748L123.45454545454545,92.25436741386255L124.72727272727272,95.67251588796223L126,93.12200408793274L127.27272727272727,89.99331283494901L128.54545454545456,86.32397634123804L129.8181818181818,85.72074455252314L131.0909090909091,86.32752145497619L132.36363636363637,86.49785002749336L133.63636363636365,94.15602334205013L134.9090909090909,91.43713015365817L136.1818181818182,89.90266302510041L137.45454545454547,89.90227136413613L138.72727272727275,93.58314863587628L140,91.52932189282905L141.27272727272725,85.55032881852267L142.54545454545453,80.60672779489322L143.8181818181818,76.8655887739882L145.0909090909091,76.55833731280917L146.36363636363635,75.30840167594249L147.63636363636363,74.07408230598146L148.9090909090909,74.25376523472097L150.1818181818182,73.44130044124856L151.45454545454544,72.42102215235829L152.72727272727272,72.82601257967195L154,71.32531245365084L155.27272727272728,72.50763453884532L156.54545454545453,72.63580101764362L157.8181818181818,72.51896333596801L159.0909090909091,72.25510909255362L160.36363636363637,72.4842857498686L161.63636363636363,72.37961275033716L162.9090909090909,71.4934031843795L164.18181818181816,71.30072522320276L165.45454545454547,70.07109226137155L166.72727272727272,70.44733866939796L168,70.62464508924795L169.27272727272725,71.26382835396478L170.54545454545456,72.03482751615853L171.8181818181818,71.72244860674742L173.0909090909091,71.77720025502128L174.36363636363635,71.13195568719L175.63636363636365,71.13229814985483L176.9090909090909,71.51997876536305L178.1818181818182,71.21980178731548L179.45454545454544,71.52405358832793L180.72727272727275,71.56129445949223L182,71.63208040715668L183.27272727272728,72.35264753255095L184.54545454545453,71.91314061658287L185.81818181818184,72.7634626521272L187.0909090909091,72.45025010721498L188.36363636363637,72.35919136474503L189.63636363636363,71.820198131422L190.9090909090909,71.10931298806456L192.1818181818182,70.68278190205012L193.45454545454547,72.46116398628261L194.72727272727272,73.72194487123122L196,72.49254002587058L197.27272727272728,71.51271812473374L198.54545454545456,72.08729259414265L199.8181818181818,72.09297543193577L201.0909090909091,71.5635997872592L202.36363636363637,72.11782159165784L203.63636363636365,72.98314002164948L204.9090909090909,71.61334055324639L206.1818181818182,71.1305086506024L207.45454545454547,72.10014590358423L208.72727272727275,71.71321227969142L210,72.30445787159451L211.27272727272725,72.56233644225905L212.54545454545453,71.36085840561219L213.8181818181818,72.28678311610155L215.0909090909091,72.6486003734406L216.36363636363635,72.0422849616052L217.63636363636363,71.48474408009493L218.9090909090909,70.32681378495003L220.1818181818182,71.86010797811329L221.45454545454544,72.68320164407955L222.72727272727272,72.45052086189783L224,72.16561624860006L225.27272727272728,71.51031549278046L226.54545454545453,71.26243118327743L227.8181818181818,72.66365741103024L229.0909090909091,71.95443633422731L230.36363636363637,71.96483431647503L231.63636363636363,71.43827369301685L232.9090909090909,71.02546853446458L234.18181818181816,71.50432242109477L235.45454545454547,72.51817173483431L236.72727272727272,71.33435958115734L238,71.25374048623529L239.27272727272725,70.47883204752063L240.54545454545456,72.82315206140586L241.8181818181818,71.4204789926229L243.0909090909091,71.16010192367145L244.36363636363635,70.51951769445962L245.63636363636365,72.4116468866942L246.9090909090909,71.85167144459152L248.1818181818182,71.41881739485262L249.45454545454544,71.78877316229345L250.72727272727275,71.42950578498527L252,71.69830334644129L253.27272727272728,71.18148632651926L254.54545454545453,71.7432433057707L255.81818181818184,71.83811849940105" fill="none"></path></g><g><path style="fill: none;" stroke="rgb(255, 112, 67)" stroke-width="2px" d="M33.09090909090909,188.58947215052405L34.36363636363637,170.53277689587082L35.63636363636363,156.19203570705525L36.90909090909091,144.0669439359027L38.18181818181818,134.4691177467557L39.45454545454545,126.61404983236497L40.72727272727273,119.79510778658488L42,114.66735059166146L43.27272727272727,110.02011019197731L44.54545454545455,106.04431256696915L45.81818181818182,102.44978842387684L47.09090909090909,98.33694281383202L48.36363636363637,95.04905703870853L49.63636363636364,92.27181006445126L50.909090909090914,89.54319605369245L52.18181818181819,87.36964466146574L53.45454545454545,85.06106790793375L54.72727272727273,82.42955957264465L56,80.67186198699825L57.27272727272727,78.28672270487887L58.54545454545454,76.90297204203146L59.81818181818181,75.79926181828245L61.090909090909086,74.06420725334586L62.36363636363636,72.66557473171882L63.63636363636363,71.3005020721799L64.9090909090909,69.58743010838909L66.18181818181819,68.32293573573017L67.45454545454545,67.76934161276853L68.72727272727273,66.47479861139827L70,65.05121663558148L71.27272727272727,63.78687661017926L72.54545454545455,62.702221300206034L73.81818181818181,61.60441390940434L75.0909090909091,60.57234792339256L76.36363636363636,59.65860584813057L77.63636363636364,58.216346255667546L78.9090909090909,57.25106951252215L80.18181818181819,56.035568244031644L81.45454545454545,55.364118697040006L82.72727272727273,54.54052309674422L84,53.65721680960175L85.27272727272728,52.74333052483805L86.54545454545455,52.342235930691395L87.81818181818183,51.70716976727345L89.0909090909091,51.29456718954419L90.36363636363637,49.811158557190055L91.63636363636364,49.268206596097436L92.90909090909092,48.34816997089158L94.18181818181819,47.80666895566256L95.45454545454545,46.892763377921575L96.72727272727273,46.98075525394889L98,46.155303406606805L99.27272727272728,45.3550229194605L100.54545454545455,45.0326127637631L101.81818181818183,44.560445625883695L103.0909090909091,44.04575455276314L104.36363636363637,44.03670287313941L105.63636363636363,43.042582944430166L106.9090909090909,42.77216228573363L108.18181818181817,42.22600737802485L109.45454545454545,41.409244518333516L110.72727272727272,40.929693696958125L112,41.19415887856223L113.27272727272727,40.316832877976125L114.54545454545455,39.50644168776214L115.81818181818181,38.809858103028546L117.09090909090908,38.80735927890633L118.36363636363636,38.61127848821426L119.63636363636363,38.11498798125509L120.9090909090909,37.733074128837536L122.18181818181817,37.42503268363747L123.45454545454545,37.56627318050073L124.72727272727272,37.01468225594721L126,36.54699741895813L127.27272727272727,36.16646552868173L128.54545454545456,35.79089515236504L129.8181818181818,35.349929510568494L131.0909090909091,35.2483828074822L132.36363636363637,34.81933371298045L133.63636363636365,34.845885780687325L134.9090909090909,34.25703061286716L136.1818181818182,33.63025694766112L137.45454545454547,33.27523466832517L138.72727272727275,33.13057940912498L140,33.10689794751358L141.27272727272725,31.067995040063128L142.54545454545453,27.825219745056224L143.8181818181818,25.590312563697292L145.0909090909091,23.728735460134217L146.36363636363635,22.348835527921835L147.63636363636363,21.468304834579513L148.9090909090909,20.60867464009824L150.1818181818182,20.271710645241903L151.45454545454544,19.838127392480843L152.72727272727272,19.551689106543947L154,19.22731441288397L155.27272727272728,19.02216863679416L156.54545454545453,19.025304558957757L157.8181818181818,18.737944107901175L159.0909090909091,18.449825409343543L160.36363636363637,18.219102976247143L161.63636363636363,18.03333926232131L162.9090909090909,18.05862538167715L164.18181818181816,17.88972245151125L165.45454545454547,17.909343601282416L166.72727272727272,17.97370702516L168,17.85981335738872L169.27272727272725,17.649486394522018L170.54545454545456,17.47069948278712L171.8181818181818,17.31083660173129L173.0909090909091,17.204397913203852L174.36363636363635,17.266758087905L175.63636363636365,17.193732244748904L176.9090909090909,17.39708896908904L178.1818181818182,17.335042467368126L179.45454545454544,17.187372618358847L180.72727272727275,17.27231028538432L182,16.949891333002803L183.27272727272728,16.76696092146769L184.54545454545453,16.67823052887997L185.81818181818184,16.93001573752296L187.0909090909091,16.760296044126726L188.36363636363637,16.81097595018681L189.63636363636363,16.77827219991409L190.9090909090909,16.716580175629414L192.1818181818182,16.548095158748563L193.45454545454547,16.673134459066098L194.72727272727272,16.33795312703113L196,16.310397969695728L197.27272727272728,16.46740445172561L198.54545454545456,16.37754780461854L199.8181818181818,16.129052320135436L201.0909090909091,16.01150384367273L202.36363636363637,15.993565491810083L203.63636363636365,15.919704852238139L204.9090909090909,15.770207000465122L206.1818181818182,15.79619665187054L207.45454545454547,15.969562644758577L208.72727272727275,15.93685195823435L210,15.975076760281716L211.27272727272725,15.69298819731448L212.54545454545453,15.628916527563964L213.8181818181818,15.537882791698738L215.0909090909091,15.814574328655462L216.36363636363635,15.72815654064881L217.63636363636363,15.634236093723826L218.9090909090909,15.704107213386362L220.1818181818182,15.793360139251874L221.45454545454544,15.762758281074627L222.72727272727272,15.75491812606218L224,15.781776912736282L225.27272727272728,15.845222438808692L226.54545454545453,15.814917580596436L227.8181818181818,15.84406491973709L229.0909090909091,15.69326016128291L230.36363636363637,15.434498209726218L231.63636363636363,15.510631829185085L232.9090909090909,15.487953892459153L234.18181818181816,15.600556452786714L235.45454545454547,15.678638948877154L236.72727272727272,15.478316216297621L238,15.563225032862578L239.27272727272725,15.566840068733638L240.54545454545456,15.484855476559767L241.8181818181818,15.477734495376474L243.0909090909091,15.473461906666493L244.36363636363635,15.512982193015942L245.63636363636365,15.499871005197107L246.9090909090909,15.534074066626907L248.1818181818182,15.559856383431688L249.45454545454544,15.717316535718457L250.72727272727275,15.638253050659461L252,15.590814959624023L253.27272727272728,15.604421879123796L254.54545454545453,15.533706962528507L255.81818181818184,15.449208238450307" fill="none"></path></g></g></g></g><g opacity="0.2"><g><g><g><path style="fill: none;" stroke="rgb(0, 119, 187)" stroke-width="2px" d="M33.09090909090909,193.06989308645328L34.36363636363637,157.590698608011L35.63636363636363,176.7228109968205L36.90909090909091,170.66833614880838L38.18181818181818,164.4927929020176L39.45454545454545,142.2123043631514L40.72727272727273,128.65028773633142L42,160.13355694599448L43.27272727272727,116.90461356391509L44.54545454545455,147.05588424156107L45.81818181818182,141.84906400317945L47.09090909090909,129.86118270593383L48.36363636363637,139.91161798636116L49.63636363636364,135.06803810795148L50.909090909090914,118.11550853351751L52.18181818181819,105.28004295391341L53.45454545454545,137.24765608596303L54.72727272727273,122.11146896593272L56,114.9672027107328L57.27272727272727,118.35768049471079L58.54545454545454,109.2759682226926L59.81818181818181,107.09638540831705L61.090909090909086,123.56453589672843L62.36363636363636,112.06103368550538L63.63636363636363,107.09638540831705L64.9090909090909,106.24873079868654L66.18181818181819,115.93589055550595L67.45454545454545,100.79973859911163L68.72727272727273,105.40111135269204L70,106.61200632229446L71.27272727272727,111.33451780192553L72.54545454545455,97.288122089083L73.81818181818181,104.19021638308962L75.0909090909091,111.69775816189745L76.36363636363636,109.76034730871518L77.63636363636364,105.64328331388532L78.9090909090909,103.70587246070305L80.18181818181819,104.67459546911219L81.45454545454545,100.79973859911163L82.72727272727273,92.08126668706535L84,99.10446454348664L85.27272727272728,107.33855736951033L86.54545454545455,91.83909472587209L87.81818181818183,94.62416018868487L89.0909090909091,92.08126668706535L90.36363636363637,103.22152853831648L91.63636363636364,97.53029405027627L92.90909090909092,91.3547508034855L94.18181818181819,96.44050264308851L95.45454545454545,100.19429111431042L96.72727272727273,111.33451780192553L98,108.79162430030604L99.27272727272728,98.62012062110006L100.54545454545455,91.96019828828673L101.81818181818183,112.30320564669867L103.0909090909091,115.45154663311938L104.36363636363637,89.2962363878886L105.63636363636363,92.32347381189464L106.9090909090909,94.98743571229278L108.18181818181817,97.04595012788971L109.45454545454545,111.09231067709624L110.72727272727272,93.77654074269037L112,91.11257884229224L113.27272727272727,91.71802632709344L114.54545454545455,103.46370049950977L115.81818181818181,94.01871270388364L117.09090909090908,89.78058031027516L118.36363636363636,92.56564577308794L119.63636363636363,94.98743571229278L120.9090909090909,87.72206589467824L122.18181818181817,86.87444644868374L123.45454545454545,96.19833068189521L124.72727272727272,100.79973859911163L126,89.2962363878886L127.27272727272727,85.30027595547338L128.54545454545456,80.81997160067161L129.8181818181818,84.81589686945081L131.0909090909091,87.23768680865565L132.36363636363637,86.7533428862691L133.63636363636365,105.64328331388532L134.9090909090909,87.3587903710703L136.1818181818182,87.60096233226359L137.45454545454547,89.9016838726898L138.72727272727275,99.10446454348664L140,88.44858177825809L141.27272727272725,76.58183920706311L142.54545454545453,73.19132625944913L143.8181818181818,71.25388024263084L145.0909090909091,76.09746012104054L146.36363636363635,73.4334982206424L147.63636363636363,72.22260325103998L148.9090909090909,74.52328962783018L150.1818181818182,72.22260325103998L151.45454545454544,70.8906047190229L152.72727272727272,73.4334982206424L154,69.07426226461926L155.27272727272728,74.2811176666369L156.54545454545453,72.82805073584119L157.8181818181818,72.34370681345463L159.0909090909091,71.85932772743205L160.36363636363637,72.82805073584119L161.63636363636363,72.22260325103998L162.9090909090909,70.16408883544305L164.18181818181816,71.01170828143755L165.45454545454547,68.22664281862477L166.72727272727272,71.01170828143755L168,70.8906047190229L169.27272727272725,72.22260325103998L170.54545454545456,73.19132625944913L171.8181818181818,71.25388024263084L173.0909090909091,71.85932772743205L174.36363636363635,70.16408883544305L175.63636363636365,71.1328118438522L176.9090909090909,72.10149968862534L178.1818181818182,70.76953632024427L179.45454545454544,71.98043128984669L180.72727272727275,71.61715576623877L182,71.73825932865341L183.27272727272728,73.4334982206424L184.54545454545453,71.25388024263084L185.81818181818184,74.03894570544362L187.0909090909091,71.98043128984669L188.36363636363637,72.22260325103998L189.63636363636363,71.01170828143755L190.9090909090909,70.0429852730284L192.1818181818182,70.0429852730284L193.45454545454547,75.1287371126314L194.72727272727272,75.61311619865397L196,70.64843275782962L197.27272727272728,70.0429852730284L198.54545454545456,72.94915429825583L199.8181818181818,72.10149968862534L201.0909090909091,70.76953632024427L202.36363636363637,72.94915429825583L203.63636363636365,74.2811176666369L204.9090909090909,69.55864135064185L206.1818181818182,70.40626079663635L207.45454545454547,73.55460178305705L208.72727272727275,71.1328118438522L210,73.19132625944913L211.27272727272725,72.94915429825583L212.54545454545453,69.55864135064185L213.8181818181818,73.67567018183568L215.0909090909091,73.19132625944913L216.36363636363635,71.1328118438522L217.63636363636363,70.64843275782962L218.9090909090909,68.5899183422327L220.1818181818182,74.16004926785827L221.45454545454544,73.91784214302898L222.72727272727272,72.10149968862534L224,71.73825932865341L225.27272727272728,70.52736435905099L226.54545454545453,70.8906047190229L227.8181818181818,74.76549675265947L229.0909090909091,70.8906047190229L230.36363636363637,71.98043128984669L231.63636363636363,70.64843275782962L232.9090909090909,70.40626079663635L234.18181818181816,72.22260325103998L235.45454545454547,74.03894570544362L236.72727272727272,69.55864135064185L238,71.1328118438522L239.27272727272725,69.31646938944856L240.54545454545456,76.33963208223382L241.8181818181818,69.31646938944856L243.0909090909091,70.76953632024427L244.36363636363635,69.55864135064185L245.63636363636365,75.24984067504604L246.9090909090909,71.01170828143755L248.1818181818182,70.76953632024427L249.45454545454544,72.34370681345463L250.72727272727275,70.8906047190229L252,72.10149968862534L253.27272727272728,70.40626079663635L254.54545454545453,72.58587877464791L255.81818181818184,71.98043128984669" fill="none"></path></g><g><path style="fill: none;" stroke="rgb(255, 112, 67)" stroke-width="2px" d="M30.545454545454543,194.61287343452372L31.818181818181817,172.9066070716828L33.09090909090909,157.61622740775346L34.36363636363637,144.20594187031188L35.63636363636363,135.04222799912094L36.90909090909091,126.06259576243659L38.18181818181818,120.15943004017075L39.45454545454545,114.87419489348927L40.72727272727273,109.5889597468078L42,106.98576060943304L43.27272727272727,103.05471224909027L44.54545454545455,100.08342016997436L45.81818181818182,97.05952329138916L47.09090909090909,92.16871864981948L48.36363636363637,90.11772925232847L49.63636363636364,88.10619345443943L50.909090909090914,85.45042468123138L52.18181818181819,84.10938909476002L53.45454545454545,81.59824835645655L54.72727272727273,78.48232824243605L56,78.03532810149093L57.27272727272727,74.70902395322919L58.54545454545454,74.82734958839913L59.81818181818181,74.14369817711413L61.090909090909086,71.4616270041714L62.36363636363636,70.56762672228118L63.63636363636363,69.25289353554447L64.9090909090909,67.01782250354687L66.18181818181819,66.42619432769716L67.45454545454545,66.93895046797891L68.72727272727273,64.53298416497807L70,62.915843708564836L71.27272727272727,61.89036659163733L72.54545454545455,61.07523834531506L73.81818181818181,59.95770282931626L75.0909090909091,59.02424894782405L76.36363636363636,58.28799273706973L77.63636363636364,56.05295686870814L78.9090909090909,55.80315439850092L80.18181818181819,54.212316341822344L81.45454545454545,54.35694437672694L82.72727272727273,53.30512969642878L84,52.33225737897058L85.27272727272728,51.37250109774371L86.54545454545455,51.74059403948486L87.81818181818183,50.75457052215934L89.0909090909091,50.67566332295537L90.36363636363637,47.58604560866952L91.63636363636364,48.453778654461104L92.90909090909092,46.968115033085155L94.18181818181819,46.9944174328198L95.45454545454545,45.521905011311176L96.72727272727273,47.112743067989754L98,44.91712563559413L99.27272727272728,44.154602188741165L100.54545454545455,44.54899753021698L101.81818181818183,43.852194919064644L103.0909090909091,43.27371794308226L104.36363636363637,44.023125353703904L105.63636363636363,41.55140305136641L106.9090909090909,42.36653129768868L108.18181818181817,41.40677501646181L109.45454545454545,40.18410022879641L110.72727272727272,40.21036746489506L112,41.59085665096839L113.27272727272727,39.00084387709697L114.54545454545455,38.29085490244131L115.81818181818181,37.764982725928235L117.09090909090908,38.80361104272306L118.36363636363636,38.31715730217596L119.63636363636363,37.37055222081642L120.9090909090909,37.16020335021119L122.18181818181817,36.96297051583727L123.45454545454545,37.77813392579556L124.72727272727272,36.18729586911698L126,35.84547016347449L127.27272727272727,35.59566769326727L128.54545454545456,35.22753958789011L129.8181818181818,34.688481047873694L131.0909090909091,35.096062752852845L132.36363636363637,34.175760071227955L133.63636363636365,34.885713882247614L134.9090909090909,33.37374786113699L136.1818181818182,32.69009644985199L137.45454545454547,32.7427012493213L138.72727272727275,32.913596520324546L140,33.07137575509648L141.27272727272725,28.009640678887564L142.54545454545453,22.961056802545983L143.8181818181818,22.237951791659L145.0909090909091,20.93636980478964L146.36363636363635,20.27898562960327L147.63636363636363,20.14750879456601L148.9090909090909,19.319229348376396L150.1818181818182,19.766264652957535L151.45454545454544,19.187752513339138L152.72727272727272,19.122031677638507L154,18.740752372394017L155.27272727272728,18.714449972659352L156.54545454545453,19.030008442203215L157.8181818181818,18.306903431316233L159.0909090909091,18.017647361507034L160.36363636363637,17.873019326602435L161.63636363636363,17.75469369143248L162.9090909090909,18.096554560711002L164.18181818181816,17.636368056262544L165.45454545454547,17.938775325939062L166.72727272727272,18.07025216097634L168,17.688972855731848L169.27272727272725,17.333995950222018L170.54545454545456,17.20251911518476L171.8181818181818,17.071042280147484L173.0909090909091,17.04473988041282L174.36363636363635,17.360298349956683L175.63636363636365,17.084193480014804L176.9090909090909,17.70212405559919L178.1818181818182,17.241972714786744L179.45454545454544,16.96586784484487L180.72727272727275,17.39971678592265L182,16.46626290443044L183.27272727272728,16.4925653041651L184.54545454545453,16.54513493999839L185.81818181818184,17.307693550487375L187.0909090909091,16.505716504032424L188.36363636363637,16.886995809276915L189.63636363636363,16.729216574504974L190.9090909090909,16.62404213920236L192.1818181818182,16.295367633427194L193.45454545454547,16.860693409542254L194.72727272727272,15.835181128978734L196,16.26906523369253L197.27272727272728,16.70291417477033L198.54545454545456,16.242762833957887L199.8181818181818,15.756309093410781L201.0909090909091,15.835181128978734L202.36363636363637,15.966657964016012L203.63636363636365,15.808913892880087L204.9090909090909,15.545960222805551L206.1818181818182,15.835181128978734L207.45454545454547,16.229611634090546L208.72727272727275,15.887785928448059L210,16.032413963352656L211.27272727272725,15.269855352863674L212.54545454545453,15.53280902293823L213.8181818181818,15.401332187900952L215.0909090909091,16.229611634090546L216.36363636363635,15.59852985863886L217.63636363636363,15.493355423336245L218.9090909090909,15.808913892880087L220.1818181818182,15.927239528050043L221.45454545454544,15.716855493808797L222.72727272727272,15.74315789354346L224,15.822065092747428L225.27272727272728,15.940390727917364L226.54545454545453,15.769460293278103L227.8181818181818,15.887785928448059L229.0909090909091,15.467053023601583L230.36363636363637,15.046355282391122L231.63636363636363,15.624832258373504L232.9090909090909,15.453936987370257L234.18181818181816,15.769460293278103L235.45454545454547,15.795762693012765L236.72727272727272,15.1778321174284L238,15.69058825771015L239.27272727272725,15.572262622540213L240.54545454545456,15.361878588298968L241.8181818181818,15.467053023601583L243.0909090909091,15.467053023601583L244.36363636363635,15.572262622540213L245.63636363636365,15.480204223468904L246.9090909090909,15.58537865877152L248.1818181818182,15.59852985863886L249.45454545454544,15.95350676414869L250.72727272727275,15.519657823070888L252,15.519657823070888L253.27272727272728,15.624832258373504L254.54545454545453,15.427634587635614L255.81818181818184,15.322460152332999" fill="none"></path></g></g></g></g></g></g><g transform="translate(50, 176)" clip-path="url(#clip_1)"><clipPath id="clip_1"><rect width="280" height="23"></rect></clipPath><g><g><line x1="0" y1="0" x2="0" y2="5" style="visibility: inherit;" fill="rgb(0, 0, 0)" stroke="rgb(204, 204, 204)" stroke-width="1px"></line><line x1="25.454545454545457" y1="0" x2="25.454545454545457" y2="5" style="visibility: inherit;" fill="rgb(0, 0, 0)" stroke="rgb(204, 204, 204)" stroke-width="1px"></line><line x1="50.909090909090914" y1="0" x2="50.909090909090914" y2="5" style="visibility: inherit;" fill="rgb(0, 0, 0)" stroke="rgb(204, 204, 204)" stroke-width="1px"></line><line x1="76.36363636363636" y1="0" x2="76.36363636363636" y2="5" style="visibility: inherit;" fill="rgb(0, 0, 0)" stroke="rgb(204, 204, 204)" stroke-width="1px"></line><line x1="101.81818181818183" y1="0" x2="101.81818181818183" y2="5" style="visibility: inherit;" fill="rgb(0, 0, 0)" stroke="rgb(204, 204, 204)" stroke-width="1px"></line><line x1="127.27272727272727" y1="0" x2="127.27272727272727" y2="5" style="visibility: inherit;" fill="rgb(0, 0, 0)" stroke="rgb(204, 204, 204)" stroke-width="1px"></line><line x1="152.72727272727272" y1="0" x2="152.72727272727272" y2="5" style="visibility: inherit;" fill="rgb(0, 0, 0)" stroke="rgb(204, 204, 204)" stroke-width="1px"></line><line x1="178.1818181818182" y1="0" x2="178.1818181818182" y2="5" style="visibility: inherit;" fill="rgb(0, 0, 0)" stroke="rgb(204, 204, 204)" stroke-width="1px"></line><line x1="203.63636363636365" y1="0" x2="203.63636363636365" y2="5" style="visibility: inherit;" fill="rgb(0, 0, 0)" stroke="rgb(204, 204, 204)" stroke-width="1px"></line><line x1="229.0909090909091" y1="0" x2="229.0909090909091" y2="5" style="visibility: inherit;" fill="rgb(0, 0, 0)" stroke="rgb(204, 204, 204)" stroke-width="1px"></line><line x1="254.54545454545453" y1="0" x2="254.54545454545453" y2="5" style="visibility: inherit;" fill="rgb(0, 0, 0)" stroke="rgb(204, 204, 204)" stroke-width="1px"></line><line x1="280" y1="0" x2="280" y2="5" style="visibility: inherit;" fill="rgb(0, 0, 0)" stroke="rgb(204, 204, 204)" stroke-width="1px"></line></g><g transform="translate(0, 8)"><text style="text-anchor: middle; visibility: hidden; font-family: Roboto, sans-serif; font-size: 12px; font-weight: 200;" x="0" y="0" dx="0em" dy="0.95em" fill="rgb(33, 33, 33)" stroke="none" stroke-width="1px">-20</text><text style="text-anchor: middle; visibility: inherit; font-family: Roboto, sans-serif; font-size: 12px; font-weight: 200;" x="25.454545454545457" y="0" dx="0em" dy="0.95em" fill="rgb(33, 33, 33)" stroke="none" stroke-width="1px">0</text><text style="text-anchor: middle; visibility: inherit; font-family: Roboto, sans-serif; font-size: 12px; font-weight: 200;" x="50.909090909090914" y="0" dx="0em" dy="0.95em" fill="rgb(33, 33, 33)" stroke="none" stroke-width="1px">20</text><text style="text-anchor: middle; visibility: inherit; font-family: Roboto, sans-serif; font-size: 12px; font-weight: 200;" x="76.36363636363636" y="0" dx="0em" dy="0.95em" fill="rgb(33, 33, 33)" stroke="none" stroke-width="1px">40</text><text style="text-anchor: middle; visibility: inherit; font-family: Roboto, sans-serif; font-size: 12px; font-weight: 200;" x="101.81818181818183" y="0" dx="0em" dy="0.95em" fill="rgb(33, 33, 33)" stroke="none" stroke-width="1px">60</text><text style="text-anchor: middle; visibility: inherit; font-family: Roboto, sans-serif; font-size: 12px; font-weight: 200;" x="127.27272727272727" y="0" dx="0em" dy="0.95em" fill="rgb(33, 33, 33)" stroke="none" stroke-width="1px">80</text><text style="text-anchor: middle; visibility: inherit; font-family: Roboto, sans-serif; font-size: 12px; font-weight: 200;" x="152.72727272727272" y="0" dx="0em" dy="0.95em" fill="rgb(33, 33, 33)" stroke="none" stroke-width="1px">100</text><text style="text-anchor: middle; visibility: inherit; font-family: Roboto, sans-serif; font-size: 12px; font-weight: 200;" x="178.1818181818182" y="0" dx="0em" dy="0.95em" fill="rgb(33, 33, 33)" stroke="none" stroke-width="1px">120</text><text style="text-anchor: middle; visibility: inherit; font-family: Roboto, sans-serif; font-size: 12px; font-weight: 200;" x="203.63636363636365" y="0" dx="0em" dy="0.95em" fill="rgb(33, 33, 33)" stroke="none" stroke-width="1px">140</text><text style="text-anchor: middle; visibility: inherit; font-family: Roboto, sans-serif; font-size: 12px; font-weight: 200;" x="229.0909090909091" y="0" dx="0em" dy="0.95em" fill="rgb(33, 33, 33)" stroke="none" stroke-width="1px">160</text><text style="text-anchor: middle; visibility: inherit; font-family: Roboto, sans-serif; font-size: 12px; font-weight: 200;" x="254.54545454545453" y="0" dx="0em" dy="0.95em" fill="rgb(33, 33, 33)" stroke="none" stroke-width="1px">180</text><text style="text-anchor: middle; visibility: hidden; font-family: Roboto, sans-serif; font-size: 12px; font-weight: 200;" x="280" y="0" dx="0em" dy="0.95em" fill="rgb(33, 33, 33)" stroke="none" stroke-width="1px">200</text></g><line x1="0" y1="0" x2="280" y2="0" fill="rgb(0, 0, 0)" stroke="rgb(204, 204, 204)" stroke-width="1px"></line></g></g></g></g></svg>