<svg viewBox="0 0 330 200" xmlns="http://www.w3.org/2000/svg"><g><g><g><g><g><line x1="51.5625" y1="176.921875" x2="46.5625" y2="176.921875" style="visibility: inherit;" fill="rgb(0, 0, 0)" stroke="rgb(204, 204, 204)" stroke-width="1px"></line><line x1="51.5625" y1="160.8380681818182" x2="46.5625" y2="160.8380681818182" style="visibility: inherit;" fill="rgb(0, 0, 0)" stroke="rgb(204, 204, 204)" stroke-width="1px"></line><line x1="51.5625" y1="144.75426136363635" x2="46.5625" y2="144.75426136363635" style="visibility: inherit;" fill="rgb(0, 0, 0)" stroke="rgb(204, 204, 204)" stroke-width="1px"></line><line x1="51.5625" y1="128.67045454545456" x2="46.5625" y2="128.67045454545456" style="visibility: inherit;" fill="rgb(0, 0, 0)" stroke="rgb(204, 204, 204)" stroke-width="1px"></line><line x1="51.5625" y1="112.58664772727272" x2="46.5625" y2="112.58664772727272" style="visibility: inherit;" fill="rgb(0, 0, 0)" stroke="rgb(204, 204, 204)" stroke-width="1px"></line><line x1="51.5625" y1="96.5028409090909" x2="46.5625" y2="96.5028409090909" style="visibility: inherit;" fill="rgb(0, 0, 0)" stroke="rgb(204, 204, 204)" stroke-width="1px"></line><line x1="51.5625" y1="80.4190340909091" x2="46.5625" y2="80.4190340909091" style="visibility: inherit;" fill="rgb(0, 0, 0)" stroke="rgb(204, 204, 204)" stroke-width="1px"></line><line x1="51.5625" y1="64.3352272727273" x2="46.5625" y2="64.3352272727273" style="visibility: inherit;" fill="rgb(0, 0, 0)" stroke="rgb(204, 204, 204)" stroke-width="1px"></line><line x1="51.5625" y1="48.25142045454547" x2="46.5625" y2="48.25142045454547" style="visibility: inherit;" fill="rgb(0, 0, 0)" stroke="rgb(204, 204, 204)" stroke-width="1px"></line><line x1="51.5625" y1="32.16761363636365" x2="46.5625" y2="32.16761363636365" style="visibility: inherit;" fill="rgb(0, 0, 0)" stroke="rgb(204, 204, 204)" stroke-width="1px"></line><line x1="51.5625" y1="16.083806818181824" x2="46.5625" y2="16.083806818181824" style="visibility: inherit;" fill="rgb(0, 0, 0)" stroke="rgb(204, 204, 204)" stroke-width="1px"></line><line x1="51.5625" y1="0" x2="46.5625" y2="0" style="visibility: inherit;" fill="rgb(0, 0, 0)" stroke="rgb(204, 204, 204)" stroke-width="1px"></line></g><g transform="translate(41.5625, 0)"><text style="text-anchor: end; visibility: hidden; font-family: Roboto, sans-serif; font-size: 12px; font-weight: 200;" x="0" y="176.921875" dx="0em" dy="0.3em" fill="rgb(255, 255, 255)" stroke="none" stroke-width="1px">-0.1</text><text style="text-anchor: end; visibility: inherit; font-family: Roboto, sans-serif; font-size: 12px; font-weight: 200;" x="0" y="160.8380681818182" dx="0em" dy="0.3em" fill="rgb(255, 255, 255)" stroke="none" stroke-width="1px">0</text><text style="text-anchor: end; visibility: hidden; font-family: Roboto, sans-serif; font-size: 12px; font-weight: 200;" x="0" y="144.75426136363635" dx="0em" dy="0.3em" fill="rgb(255, 255, 255)" stroke="none" stroke-width="1px">0.1</text><text style="text-anchor: end; visibility: inherit; font-family: Roboto, sans-serif; font-size: 12px; font-weight: 200;" x="0" y="128.67045454545456" dx="0em" dy="0.3em" fill="rgb(255, 255, 255)" stroke="none" stroke-width="1px">0.2</text><text style="text-anchor: end; visibility: hidden; font-family: Roboto, sans-serif; font-size: 12px; font-weight: 200;" x="0" y="112.58664772727272" dx="0em" dy="0.3em" fill="rgb(255, 255, 255)" stroke="none" stroke-width="1px">0.3</text><text style="text-anchor: end; visibility: inherit; font-family: Roboto, sans-serif; font-size: 12px; font-weight: 200;" x="0" y="96.5028409090909" dx="0em" dy="0.3em" fill="rgb(255, 255, 255)" stroke="none" stroke-width="1px">0.4</text><text style="text-anchor: end; visibility: hidden; font-family: Roboto, sans-serif; font-size: 12px; font-weight: 200;" x="0" y="80.4190340909091" dx="0em" dy="0.3em" fill="rgb(255, 255, 255)" stroke="none" stroke-width="1px">0.5</text><text style="text-anchor: end; visibility: inherit; font-family: Roboto, sans-serif; font-size: 12px; font-weight: 200;" x="0" y="64.3352272727273" dx="0em" dy="0.3em" fill="rgb(255, 255, 255)" stroke="none" stroke-width="1px">0.6</text><text style="text-anchor: end; visibility: hidden; font-family: Roboto, sans-serif; font-size: 12px; font-weight: 200;" x="0" y="48.25142045454547" dx="0em" dy="0.3em" fill="rgb(255, 255, 255)" stroke="none" stroke-width="1px">0.7</text><text style="text-anchor: end; visibility: inherit; font-family: Roboto, sans-serif; font-size: 12px; font-weight: 200;" x="0" y="32.16761363636365" dx="0em" dy="0.3em" fill="rgb(255, 255, 255)" stroke="none" stroke-width="1px">0.8</text><text style="text-anchor: end; visibility: hidden; font-family: Roboto, sans-serif; font-size: 12px; font-weight: 200;" x="0" y="16.083806818181824" dx="0em" dy="0.3em" fill="rgb(255, 255, 255)" stroke="none" stroke-width="1px">0.9</text><text style="text-anchor: end; visibility: hidden; font-family: Roboto, sans-serif; font-size: 12px; font-weight: 200;" x="0" y="0" dx="0em" dy="0.3em" fill="rgb(255, 255, 255)" stroke="none" stroke-width="1px">1</text></g><line x1="51.5625" y1="0" x2="51.5625" y2="176.921875" fill="rgb(0, 0, 0)" stroke="rgb(204, 204, 204)" stroke-width="1px"></line></g></g><g transform="translate(51, 0)" clip-path="url(#clip_0)"><clipPath id="clip_0"><rect width="278" height="176"></rect></clipPath><g><g><g><line x1="0" y1="0" x2="0" y2="176.921875" fill="rgb(0, 0, 0)" stroke="rgb(189, 189, 189)" stroke-width="1px" opacity="0.25"></line><line x1="25.3125" y1="0" x2="25.3125" y2="176.921875" fill="rgb(0, 0, 0)" stroke="rgb(189, 189, 189)" stroke-width="1px" opacity="0.25"></line><line x1="50.625" y1="0" x2="50.625" y2="176.921875" fill="rgb(0, 0, 0)" stroke="rgb(189, 189, 189)" stroke-width="1px" opacity="0.25"></line><line x1="75.9375" y1="0" x2="75.9375" y2="176.921875" fill="rgb(0, 0, 0)" stroke="rgb(189, 189, 189)" stroke-width="1px" opacity="0.25"></line><line x1="101.25" y1="0" x2="101.25" y2="176.921875" fill="rgb(0, 0, 0)" stroke="rgb(189, 189, 189)" stroke-width="1px" opacity="0.25"></line><line x1="126.5625" y1="0" x2="126.5625" y2="176.921875" fill="rgb(0, 0, 0)" stroke="rgb(189, 189, 189)" stroke-width="1px" opacity="0.25"></line><line x1="151.875" y1="0" x2="151.875" y2="176.921875" fill="rgb(0, 0, 0)" stroke="rgb(189, 189, 189)" stroke-width="1px" opacity="0.25"></line><line x1="177.1875" y1="0" x2="177.1875" y2="176.921875" fill="rgb(0, 0, 0)" stroke="rgb(189, 189, 189)" stroke-width="1px" opacity="0.25"></line><line x1="202.5" y1="0" x2="202.5" y2="176.921875" fill="rgb(0, 0, 0)" stroke="rgb(189, 189, 189)" stroke-width="1px" opacity="0.25"></line><line x1="227.8125" y1="0" x2="227.8125" y2="176.921875" fill="rgb(0, 0, 0)" stroke="rgb(189, 189, 189)" stroke-width="1px" opacity="0.25"></line><line x1="253.125" y1="0" x2="253.125" y2="176.921875" fill="rgb(0, 0, 0)" stroke="rgb(189, 189, 189)" stroke-width="1px" opacity="0.25"></line><line x1="278.4375" y1="0" x2="278.4375" y2="176.921875" fill="rgb(0, 0, 0)" stroke="rgb(189, 189, 189)" stroke-width="1px" opacity="0.25"></line></g><g><line x1="0" y1="176.921875" x2="278.4375" y2="176.921875" fill="rgb(0, 0, 0)" stroke="rgb(189, 189, 189)" stroke-width="1px" opacity="0.25"></line><line x1="0" y1="160.8380681818182" x2="278.4375" y2="160.8380681818182" fill="rgb(0, 0, 0)" stroke="rgb(189, 189, 189)" stroke-width="1px" opacity="0.25"></line><line x1="0" y1="144.75426136363635" x2="278.4375" y2="144.75426136363635" fill="rgb(0, 0, 0)" stroke="rgb(189, 189, 189)" stroke-width="1px" opacity="0.25"></line><line x1="0" y1="128.67045454545456" x2="278.4375" y2="128.67045454545456" fill="rgb(0, 0, 0)" stroke="rgb(189, 189, 189)" stroke-width="1px" opacity="0.25"></line><line x1="0" y1="112.58664772727272" x2="278.4375" y2="112.58664772727272" fill="rgb(0, 0, 0)" stroke="rgb(189, 189, 189)" stroke-width="1px" opacity="0.25"></line><line x1="0" y1="96.5028409090909" x2="278.4375" y2="96.5028409090909" fill="rgb(0, 0, 0)" stroke="rgb(189, 189, 189)" stroke-width="1px" opacity="0.25"></line><line x1="0" y1="80.4190340909091" x2="278.4375" y2="80.4190340909091" fill="rgb(0, 0, 0)" stroke="rgb(189, 189, 189)" stroke-width="1px" opacity="0.25"></line><line x1="0" y1="64.3352272727273" x2="278.4375" y2="64.3352272727273" fill="rgb(0, 0, 0)" stroke="rgb(189, 189, 189)" stroke-width="1px" opacity="0.25"></line><line x1="0" y1="48.25142045454547" x2="278.4375" y2="48.25142045454547" fill="rgb(0, 0, 0)" stroke="rgb(189, 189, 189)" stroke-width="1px" opacity="0.25"></line><line x1="0" y1="32.16761363636365" x2="278.4375" y2="32.16761363636365" fill="rgb(0, 0, 0)" stroke="rgb(189, 189, 189)" stroke-width="1px" opacity="0.25"></line><line x1="0" y1="16.083806818181824" x2="278.4375" y2="16.083806818181824" fill="rgb(0, 0, 0)" stroke="rgb(189, 189, 189)" stroke-width="1px" opacity="0.25"></line><line x1="0" y1="0" x2="278.4375" y2="0" fill="rgb(0, 0, 0)" stroke="rgb(189, 189, 189)" stroke-width="1px" opacity="0.25"></line></g></g></g><g><g><line x1="0" y1="160.8380681818182" x2="278.4375" y2="160.8380681818182" fill="rgb(0, 0, 0)" stroke="rgb(153, 153, 153)" stroke-width="1.5px"></line></g></g><g><g><line x1="25.3125" y1="0" x2="25.3125" y2="176.921875" fill="rgb(0, 0, 0)" stroke="rgb(153, 153, 153)" stroke-width="1.5px"></line></g></g><g><g><g><g><g><path style="fill: none;" stroke="rgb(0, 119, 187)" stroke-width="2px" d="M35.43749999999999,-22.904666506332767L36.703125,4.79542425589495L37.96875,24.137530023805333L39.234375,30.15482073292273L40.5,14.946854256596756L41.765625,22.50730360546829L43.03125,27.308686346106214L44.296875,32.12432045450095L45.5625,49.398899524856745L46.828125,46.05030715623059L48.09375,40.977102100593L49.359375,52.55752658766226L50.625,51.6625505133651L51.890625,28.237519002567396L53.15625,28.61624551868808L54.421875,18.756896978500965L55.6875,36.96514471429796L56.953125,37.16304303882565L58.21874999999999,53.443188389461724L59.484375,60.18761535103229L60.75,67.1525368842499L62.015625,71.7505457411576L63.28125,70.12445262932354L64.546875,60.534923684270254L65.8125,64.95157193673445L67.078125,70.05165570786356L68.34375,77.31966916590176L69.609375,77.97598033299757L70.87499999999999,73.64751014179632L72.140625,73.27209114651001L73.40625,78.12220722495184L74.671875,84.22073332156114L75.9375,67.59210341826126L77.203125,79.81511333506803L78.46875,79.61258753553227L79.734375,75.82758906814564L81,76.26141872216216L82.265625,74.5088631615567L83.53125,77.08207872627042L84.796875,74.65218839222507L86.0625,78.08869002586896L87.328125,76.1858115875238L88.59375,80.00763851876731L89.859375,79.14967209140164L91.125,83.42562686185293L92.39062500000001,83.87249199224259L93.65625,84.26665886577592L94.921875,83.96446145540081L96.1875,83.05036665045199L97.453125,81.25486085813009L98.71875,72.08056498420889L99.984375,70.93384633646994L101.25,75.45123956277439L102.515625,80.76483348739112L103.78125,79.62435504939154L105.046875,85.4122400536692L106.3125,71.4349967972127L107.578125,69.14996924809466L108.84375,73.88545752587258L110.109375,76.74310156110106L111.375,71.83178365938227L112.640625,74.79419393686325L113.90625,80.12609743239612L115.171875,68.19543358265454L116.43749999999999,77.85615892413398L117.703125,81.03821778862154L118.96875,82.04617522907704L120.234375,81.84000341609224L121.5,85.6237743132378L122.765625,81.43863766763005L124.03125,85.85966290549517L125.296875,85.52276279241626L126.5625,84.60627391274335L127.828125,83.95163251063563L129.09375,84.17165611534755L130.359375,82.84269616669896L131.625,74.64766576233576L132.890625,76.2866475732618L134.15625,80.4599081083329L135.421875,83.36590169618674L136.6875,73.57030257853685L137.953125,75.24526546042128L139.21875,77.95208303602614L140.484375,86.3095198401025L141.74999999999997,92.20438189441008L143.015625,96.08284242520926L144.28125,98.47899088779482L145.546875,98.29674884881528L146.8125,99.61513682746916L148.078125,97.91076992265027L149.34375,96.65145809216422L150.609375,95.3735897174718L151.875,95.77332033206746L153.140625,96.13309977082338L154.40625,96.40446673409895L155.671875,96.04202992524984L156.9375,96.40624061490682L158.203125,96.56811732516857L159.46875,94.58284427158011L160.734375,95.56774920767099L162,93.45943905792511L163.26562499999997,94.61709539007092L164.53125,92.91930813170718L165.796875,92.80242366714897L167.0625,93.17284001273721L168.328125,93.54922471709736L169.59375,92.75029718334409L170.859375,93.42334587564075L172.125,92.61528059560604L173.390625,92.01724555683627L174.65625,91.40184045194492L175.921875,90.55176515109048L177.1875,91.69425543993374L178.453125,90.40757644584707L179.71875,89.45215254836882L180.984375,90.3933507458796L182.25,88.86767719758225L183.515625,90.54693149283494L184.78125000000003,89.68018339858388L186.046875,87.57016185025346L187.3125,88.90697521041044L188.578125,91.52408743969274L189.84375,91.27410389745826L191.109375,89.44575366129146L192.375,88.3422648304884L193.640625,87.21868332911504L194.90625,88.72104418454724L196.171875,89.2202259450594L197.4375,87.85670976933476L198.703125,86.46161134856018L199.96875,88.43332190435058L201.234375,87.65410688740567L202.5,87.69158009291272L203.765625,88.84998969847851L205.03125,88.97421674397255L206.29687500000003,89.36424538198969L207.5625,87.76889857185428L208.828125,86.98939715070915L210.09375,88.3263745489729L211.35937499999997,88.00616405095235L212.625,89.78808607725465L213.890625,90.01905146065073L215.15625,88.82967773712488L216.421875,88.02247968147014L217.6875,88.80901544073926L218.953125,88.06425672228458L220.21875,88.22084756995253L221.484375,87.22928324344086L222.75,86.86653250538524L224.015625,88.47564997824233L225.28125,87.15220094401685L226.546875,87.18852728942282L227.8125,86.35165616445607L229.078125,85.6302282336024L230.34375,86.52067871581069L231.609375,87.03297246340787L232.87499999999997,88.10968681159082L234.140625,86.95694640891502L235.40625,86.82964603073042L236.671875,86.94312839918275L237.9375,89.17390356099328L239.203125,89.25000787800302L240.46875,88.93736579084708L241.734375,89.76844367365673L243,88.84560772704101L244.265625,86.75283498795042L245.53125,86.05200137088558L246.796875,85.93642140310651L248.0625,89.19558575001527L249.328125,86.47159758543772L250.59375,89.31223599552096L251.859375,88.02246957696502L253.125,87.99870157472643L254.39062500000003,87.0263655564966" fill="none"></path></g><g><path style="fill: none;" stroke="rgb(255, 112, 67)" stroke-width="2px" d="M31.640625,-4.483131976781962L32.90625,10.921849156526967L34.171875,23.85658972172537L35.43749999999999,34.57305556346724L36.703125,43.640713642551674L37.96875,51.442015725298425L39.234375,57.664842544055084L40.5,63.61623121532461L41.765625,68.40766613494613L43.03125,72.89372430955704L44.296875,76.31784932977075L45.5625,79.51412544018964L46.828125,82.567906103406L48.09375,85.12803980395259L49.359375,87.46735331231856L50.625,89.7576141474461L51.890625,91.93254491761068L53.15625,93.90916112176306L54.421875,95.80288887659063L55.6875,97.2201200643114L56.953125,98.81976705092809L58.21874999999999,100.57770043428576L59.484375,102.03486495584333L60.75,103.33620262319934L62.015625,105.11596186055431L63.28125,106.18298310849819L64.546875,107.13034585905844L65.8125,108.27354726386542L67.078125,109.41897375915258L68.34375,110.59917946535855L69.609375,111.44750830537853L70.87499999999999,112.4944918087774L72.140625,113.35187488156679L73.40625,113.97976710435124L74.671875,114.86102340133982L75.9375,115.74457312571856L77.203125,116.5685984621851L78.46875,117.60298431168015L79.734375,118.17881910848172L81,118.96517186779808L82.265625,119.47380602236792L83.53125,120.4577725197544L84.796875,121.1882715657375L86.0625,121.5771352784638L87.328125,122.31548352319246L88.59375,122.64660518326944L89.859375,123.49427544372273L91.125,124.04749024812807L92.39062500000001,124.8632213270869L93.65625,125.40308407766348L94.921875,125.77665026751107L96.1875,126.32974498922125L97.453125,126.47842498861905L98.71875,126.9497443075985L99.984375,127.62340849972851L101.25,128.06033311886975L102.515625,128.6168080831352L103.78125,129.04366579739948L105.046875,129.65392927063837L106.3125,129.9479072036583L107.578125,130.42676764113116L108.84375,130.85504668042756L110.109375,130.89627605768368L111.375,130.8051364144395L112.640625,131.21705341631883L113.90625,132.1462721067691L115.171875,132.3702917566666L116.43749999999999,132.96489562820824L117.703125,133.29618993475125L118.96875,133.70291825057225L120.234375,133.9911384042225L121.5,134.38984964804126L122.765625,134.4532515978056L124.03125,134.90580711921572L125.296875,135.19838706428527L126.5625,135.61196693901144L127.828125,135.75859846473793L129.09375,136.18981177154882L130.359375,136.47313058934063L131.625,136.7015384116063L132.890625,136.6922230183499L134.15625,136.85729901917867L135.421875,137.19869437520288L136.6875,137.74988932572327L137.953125,138.04932298990826L139.21875,138.11014171244278L140.484375,139.92508966623308L141.74999999999997,142.83632827647187L143.015625,144.99784942830448L144.28125,146.50964790845842L145.546875,147.8390588192905L146.8125,148.54713159312328L148.078125,149.07102116499354L149.34375,149.55211835965872L150.609375,150.03075335350238L151.875,150.24855063808513L153.140625,150.49442059000697L154.40625,150.96264917579188L155.671875,151.08923740726925L156.9375,151.3191375835902L158.203125,151.5880904344997L159.46875,151.6518441758322L160.734375,151.8598947804357L162,151.96596086360552L163.26562499999997,151.90368165926776L164.53125,152.08515371878443L165.796875,152.2282276658269L167.0625,152.32128051038228L168.328125,152.55261825600311L169.59375,152.4711953246936L170.859375,152.5190497576783L172.125,152.62851930589764L173.390625,152.6910542018934L174.65625,152.79361056561223L175.921875,152.82829204857066L177.1875,152.80002544359252L178.453125,152.8579358980717L179.71875,153.06004503046464L180.984375,153.17501205068078L182.25,153.25143848919916L183.515625,153.3057524544533L184.78125000000003,153.4541915001225L186.046875,153.45274285699438L187.3125,153.5307556414914L188.578125,153.61147481100343L189.84375,153.4601308340985L191.109375,153.64714641639213L192.375,153.78666227076042L193.640625,153.83979933075662L194.90625,153.7123998123749L196.171875,153.82564678083887L197.4375,153.7887610866848L198.703125,153.90239693715094L199.96875,154.17142499964447L201.234375,154.31717717600674L202.5,154.32114393873883L203.765625,154.32487596017026L205.03125,154.34466601658528L206.29687500000003,154.38402966131844L207.5625,154.5149984707373L208.828125,154.5670588811272L210.09375,154.55575656088863L211.35937499999997,154.64477238473603L212.625,154.49893462737757L213.890625,154.58300147483777L215.15625,154.7857804128404L216.421875,154.70529335843725L217.6875,154.72136332619573L218.953125,154.74521279020473L220.21875,154.7137879373852L221.484375,154.75703324519142L222.75,154.78864664649888L224.015625,154.8334719235197L225.28125,154.78748495300002L226.546875,154.72259285420137L227.8125,154.70724254455797L229.078125,154.86712393941923L230.34375,154.8400993268119L231.609375,154.82667021341456L232.87499999999997,154.8263731757237L234.140625,154.7917446819846L235.40625,154.710335329056L236.671875,154.8650646431716L237.9375,155.018210458004L239.203125,154.9336030403317L240.46875,154.8873963446362L241.734375,154.94903039922718L243,154.7748434826075L244.265625,154.89761008317367L245.53125,154.9158877011816L246.796875,154.9718791480458L248.0625,154.92101474577134L249.328125,154.78190496337564L250.59375,154.80125544901426L251.859375,154.86393071422148L253.125,155.01285131369002L254.39062500000003,155.01356867790267" fill="none"></path></g></g></g></g><g opacity="0.2"><g><g><g><path style="fill: none;" stroke="rgb(0, 119, 187)" stroke-width="2px" d="M30.375,-11.334887441586353L31.640625,12.828475492583083L32.90625,-18.883988664231534L35.43749999999999,-16.97040746496482L36.703125,45.92683075842533L37.96875,52.97525719993496L39.234375,39.148010966283366L40.5,-7.81543880870395L41.765625,33.83316592144019L43.03125,34.505116611888475L44.296875,39.344375258819646L45.5625,75.30345810746606L46.828125,41.02826881053097L48.09375,33.368067368865034L49.359375,69.92710482159801L50.625,50.32013548453424L51.890625,-6.899257452989152L53.15625,29.18432781557469L54.421875,3.967990961603141L55.6875,64.27738690156151L56.953125,37.459889681671164L58.21874999999999,77.86336475898597L59.484375,70.30424543910408L60.75,77.5999127683992L62.015625,78.64755648526956L63.28125,67.68531350080264L64.546875,46.15063217468562L65.8125,71.57654378817165L67.078125,77.7017809992487L68.34375,88.2216890406033L69.609375,78.96044706671753L70.87499999999999,67.15480492196302L72.140625,72.70896265706556L73.40625,85.39738131560047L74.671875,93.36852244609459L75.9375,42.64915859665384L77.203125,98.14962819557299L78.46875,79.30879883637483L79.734375,70.15009136870505L81,76.91216320307419L82.265625,71.88002982092175L83.53125,80.94190207310022L84.796875,71.00735289129345L86.0625,83.24344247621909L87.328125,73.3314939300445L88.59375,85.74037891558626L89.859375,77.86272245035931L91.125,89.83955901751128L92.39062500000001,84.54278968782589L93.65625,84.85790917607532L94.921875,83.51116533983839L96.1875,81.67922444302928L97.453125,78.56160216964783L98.71875,58.319121173328995L99.984375,69.21376836486162L101.25,82.2273294022307L102.515625,88.73522437431598L103.78125,77.91363739239223L105.046875,94.09406756008552L106.3125,50.46913191252813L107.578125,65.72242792441766L108.84375,80.98868994253942L110.109375,81.02956761394375L111.375,64.4648068068041L112.640625,79.23780935308473L113.90625,88.12395267569545L115.171875,50.299437808042235L116.43749999999999,92.34724693635312L117.703125,85.81130608535288L118.96875,83.55811138976027L120.234375,81.5307456966151L121.5,91.29943065895615L122.765625,75.1609326992184L124.03125,92.49120076229288L125.296875,85.0174126227979L126.5625,83.23154059323399L127.828125,82.96967040747406L129.09375,84.5016915224154L130.359375,80.84925624372609L131.625,62.35512015579099L132.890625,78.74512028965084L134.15625,86.71979891093956L135.421875,87.72489207796754L136.6875,58.87690390206198L137.953125,77.75770978324795L139.21875,82.01230939943345L140.484375,98.84567504621704L141.74999999999997,101.04667497587138L143.015625,101.90053322140807L144.28125,102.07321358167314L145.546875,98.02338579034604L146.8125,101.5927187954499L148.078125,95.35421956542204L149.34375,94.76249034643513L150.609375,93.45678715543313L151.875,96.37291625396097L153.140625,96.67276892895727L154.40625,96.8115171790123L155.671875,95.49837471197615L156.9375,96.95255664939232L158.203125,96.81093239056118L159.46875,91.60493469119751L160.734375,97.04510661180724L162,90.29697383330627L163.26562499999997,96.35357988828964L164.53125,90.37262724416163L165.796875,92.62709697031164L167.0625,93.72846453111958L168.328125,94.11380177363753L169.59375,91.55190588271417L170.859375,94.43291891408576L172.125,91.40318267555399L173.390625,91.12019299868156L174.65625,90.47873279460791L175.921875,89.27665219980885L177.1875,93.40799087319863L178.453125,88.4775579547171L179.71875,88.01901670215145L180.984375,91.80514804214579L182.25,86.57916687513618L183.515625,93.06581293571402L184.78125000000003,88.38006125720726L186.046875,84.4051295277578L187.3125,90.91219525064598L188.578125,95.44975578361614L189.84375,90.89912858410655L191.109375,86.70322830704126L192.375,86.68703158428386L193.640625,85.53331107705493L194.90625,90.97458546769553L196.171875,89.96899858582765L197.4375,85.81143550574781L198.703125,84.36896371739833L199.96875,91.39088773803618L201.234375,86.48528436198832L202.5,87.74778990117326L203.765625,90.58760410682721L205.03125,89.16055731221358L206.29687500000003,89.94928833901544L207.5625,85.37587835665116L208.828125,85.82014501899143L210.09375,90.33184064636855L211.35937499999997,87.52584830392153L212.625,92.46096911670811L213.890625,90.36549953574486L215.15625,87.04561715183611L216.421875,86.81168259798804L217.6875,89.98881907964297L218.953125,86.94711864460261L220.21875,88.45573384145446L221.484375,85.74193675367333L222.75,86.3224063983018L224.015625,90.88932618752801L225.28125,85.16702739267865L226.546875,87.24301680753179L227.8125,85.09634947700597L229.078125,84.54808633732186L230.34375,87.85635443912312L231.609375,87.80141308480367L232.87499999999997,89.72475833386522L234.140625,85.22783580490136L235.40625,86.63869546345352L236.671875,87.11335195186125L237.9375,92.52006630370902L239.203125,89.36416435351767L240.46875,88.46840266011317L241.734375,91.01506049787118L243,87.46135380711746L244.265625,83.61367587931456L245.53125,85.00075094528836L246.796875,85.76305145143786L248.0625,94.08433227037843L249.328125,82.38561533857138L250.59375,93.57319361064583L251.859375,86.08781994913113L253.125,87.96304957136851L254.39062500000003,85.56786152915183" fill="none"></path></g><g><path style="fill: none;" stroke="rgb(255, 112, 67)" stroke-width="2px" d="M29.109374999999996,-15.339211980727578L30.375,6.834700642661619L31.640625,21.334559048780008L32.90625,32.951218656856916L34.171875,42.71556563929403L35.43749999999999,50.3777611137114L36.703125,57.10512910884891L37.96875,63.07321161370387L39.234375,66.96521842344241L40.5,72.52388190562753L41.765625,75.58543159457095L43.03125,79.6175383784893L44.296875,81.45162190183659L45.5625,84.30718704888768L46.828125,87.14780174365099L48.09375,88.96785034417091L49.359375,90.97610975234686L50.625,93.19287979679015L51.890625,95.19486950583418L53.15625,96.87404640315272L54.421875,98.6434580758214L55.6875,99.34595677281986L56.953125,101.21923070908947L58.21874999999999,103.21459601125257L59.484375,104.22060950108889L60.75,105.28820792551745L62.015625,107.78559973294087L63.28125,107.7835146265782L64.546875,108.55138979640537L65.8125,109.98834923460065L67.078125,111.13711342003876L68.34375,112.36948797394606L69.609375,112.7200015435334L70.87499999999999,114.06496704767714L72.140625,114.63794948279183L73.40625,114.92160543503071L74.671875,116.18290784387766L75.9375,117.06989771051504L77.203125,117.80463646589355L78.46875,119.15456308517605L79.734375,119.04257130343467L81,120.14470100656831L82.265625,120.23675725414334L83.53125,121.93372226574206L84.796875,122.28402013467117L86.0625,122.16043084754017L87.328125,123.42300589027055L88.59375,123.14328767338093L89.859375,124.76578083439647L91.125,124.87731245473367L92.39062500000001,126.08681794552304L93.65625,126.2128782035275L94.921875,126.33699955228208L96.1875,127.1593870717863L97.453125,126.70144498771565L98.71875,127.65672328606756L99.984375,128.63390478792348L101.25,128.7157200475816L102.515625,129.4515205295333L103.78125,129.68395236879587L105.046875,130.5693244804967L106.3125,130.3888741031882L107.578125,131.1450582973405L108.84375,131.4974652393721L110.109375,130.9581201235679L111.375,130.6684269495732L112.640625,131.8349289191379L113.90625,133.5401001424444L115.171875,132.70632123151285L116.43749999999999,133.8568014355207L117.703125,133.7931313945658L118.96875,134.31301072430375L120.234375,134.42346863469788L121.5,134.98791651376945L122.765625,134.54835452245212L124.03125,135.5846404013309L125.296875,135.63725698188964L126.5625,136.23233675110072L127.828125,135.97854575332764L129.09375,136.83663173176518L130.359375,136.89810881602833L131.625,137.04415014500475L132.890625,136.67824992846528L134.15625,137.10491302042183L135.421875,137.7107874092392L136.6875,138.57668175150386L137.953125,138.49847348618576L139.21875,138.2013697962446L140.484375,142.64751159691846L141.74999999999997,147.2031861918301L143.015625,148.2401311560534L144.28125,148.7773456286893L145.546875,149.83317518553866L146.8125,149.60924075387248L148.078125,149.85685552279887L149.34375,150.2737641516565L150.609375,150.74870584426785L151.875,150.57524656495926L153.140625,150.86322551788973L154.40625,151.6649920544693L155.671875,151.2791197544853L156.9375,151.66398784807163L158.203125,151.99151971086394L159.46875,151.74747478783087L160.734375,152.17197068734095L162,152.12505998836028L163.26562499999997,151.81026285276113L164.53125,152.35736180805938L165.796875,152.4428385863906L167.0625,152.46085977721538L168.328125,152.89962487443435L169.59375,152.34906092772937L170.859375,152.59083140715535L172.125,152.79272362822667L173.390625,152.78485654588704L174.65625,152.94744511119046L175.921875,152.8803142730083L177.1875,152.75762553612532L178.453125,152.94480157979044L179.71875,153.3632087290541L180.984375,153.34746258100495L182.25,153.36607814697678L183.515625,153.38722340233454L184.78125000000003,153.67685006862635L186.046875,153.45056989230216L187.3125,153.64777481823694L188.578125,153.73255356527144L189.84375,153.23311486874113L191.109375,153.92766978983258L192.375,153.99593605231283L193.640625,153.91950492075094L194.90625,153.5213005348024L196.171875,153.9955172335348L197.4375,153.73343254545367L198.703125,154.0728507128502L199.96875,154.57496709338474L201.234375,154.53580544055018L202.5,154.327094082837L203.765625,154.33047399231742L205.03125,154.3743511012078L206.29687500000003,154.44307512841823L207.5625,154.7114516848656L208.828125,154.64514949671204L210.09375,154.53880308053076L211.35937499999997,154.77829612050715L212.625,154.28017799133985L213.890625,154.70910174602813L215.15625,155.0899488198444L216.421875,154.58456277683248L217.6875,154.74546827783342L218.953125,154.78098698621827L220.21875,154.66665065815587L221.484375,154.8219012069008L222.75,154.83606674846007L224.015625,154.9007098390509L225.28125,154.7185044972205L226.546875,154.62525470600335L227.8125,154.6842170800929L229.078125,155.10694603171115L230.34375,154.79956240790094L231.609375,154.80652654331854L232.87499999999997,154.82592761918733L234.140625,154.73980194137602L235.40625,154.5882212996631L236.671875,155.09715861434498L237.9375,155.2479291802526L239.203125,154.80669191382316L240.46875,154.818086301093L241.734375,155.04148148111364L243,154.51356310767798L244.265625,155.08175998402294L245.53125,154.94330412819346L246.796875,155.0558663183421L248.0625,154.84471814235968L249.328125,154.5732402897821L250.59375,154.83028117747216L251.859375,154.95794361203232L253.125,155.23623221289282L254.39062500000003,155.01464472422165" fill="none"></path></g></g></g></g></g></g><g transform="translate(51, 176)" clip-path="url(#clip_1)"><clipPath id="clip_1"><rect width="278" height="23"></rect></clipPath><g><g><line x1="0" y1="0" x2="0" y2="5" style="visibility: inherit;" fill="rgb(0, 0, 0)" stroke="rgb(204, 204, 204)" stroke-width="1px"></line><line x1="25.3125" y1="0" x2="25.3125" y2="5" style="visibility: inherit;" fill="rgb(0, 0, 0)" stroke="rgb(204, 204, 204)" stroke-width="1px"></line><line x1="50.625" y1="0" x2="50.625" y2="5" style="visibility: inherit;" fill="rgb(0, 0, 0)" stroke="rgb(204, 204, 204)" stroke-width="1px"></line><line x1="75.9375" y1="0" x2="75.9375" y2="5" style="visibility: inherit;" fill="rgb(0, 0, 0)" stroke="rgb(204, 204, 204)" stroke-width="1px"></line><line x1="101.25" y1="0" x2="101.25" y2="5" style="visibility: inherit;" fill="rgb(0, 0, 0)" stroke="rgb(204, 204, 204)" stroke-width="1px"></line><line x1="126.5625" y1="0" x2="126.5625" y2="5" style="visibility: inherit;" fill="rgb(0, 0, 0)" stroke="rgb(204, 204, 204)" stroke-width="1px"></line><line x1="151.875" y1="0" x2="151.875" y2="5" style="visibility: inherit;" fill="rgb(0, 0, 0)" stroke="rgb(204, 204, 204)" stroke-width="1px"></line><line x1="177.1875" y1="0" x2="177.1875" y2="5" style="visibility: inherit;" fill="rgb(0, 0, 0)" stroke="rgb(204, 204, 204)" stroke-width="1px"></line><line x1="202.5" y1="0" x2="202.5" y2="5" style="visibility: inherit;" fill="rgb(0, 0, 0)" stroke="rgb(204, 204, 204)" stroke-width="1px"></line><line x1="227.8125" y1="0" x2="227.8125" y2="5" style="visibility: inherit;" fill="rgb(0, 0, 0)" stroke="rgb(204, 204, 204)" stroke-width="1px"></line><line x1="253.125" y1="0" x2="253.125" y2="5" style="visibility: inherit;" fill="rgb(0, 0, 0)" stroke="rgb(204, 204, 204)" stroke-width="1px"></line><line x1="278.4375" y1="0" x2="278.4375" y2="5" style="visibility: inherit;" fill="rgb(0, 0, 0)" stroke="rgb(204, 204, 204)" stroke-width="1px"></line></g><g transform="translate(0, 8)"><text style="text-anchor: middle; visibility: hidden; font-family: Roboto, sans-serif; font-size: 12px; font-weight: 200;" x="0" y="0" dx="0em" dy="0.95em" fill="rgb(255, 255, 255)" stroke="none" stroke-width="1px">-20</text><text style="text-anchor: middle; visibility: inherit; font-family: Roboto, sans-serif; font-size: 12px; font-weight: 200;" x="25.3125" y="0" dx="0em" dy="0.95em" fill="rgb(255, 255, 255)" stroke="none" stroke-width="1px">0</text><text style="text-anchor: middle; visibility: inherit; font-family: Roboto, sans-serif; font-size: 12px; font-weight: 200;" x="50.625" y="0" dx="0em" dy="0.95em" fill="rgb(255, 255, 255)" stroke="none" stroke-width="1px">20</text><text style="text-anchor: middle; visibility: inherit; font-family: Roboto, sans-serif; font-size: 12px; font-weight: 200;" x="75.9375" y="0" dx="0em" dy="0.95em" fill="rgb(255, 255, 255)" stroke="none" stroke-width="1px">40</text><text style="text-anchor: middle; visibility: inherit; font-family: Roboto, sans-serif; font-size: 12px; font-weight: 200;" x="101.25" y="0" dx="0em" dy="0.95em" fill="rgb(255, 255, 255)" stroke="none" stroke-width="1px">60</text><text style="text-anchor: middle; visibility: inherit; font-family: Roboto, sans-serif; font-size: 12px; font-weight: 200;" x="126.5625" y="0" dx="0em" dy="0.95em" fill="rgb(255, 255, 255)" stroke="none" stroke-width="1px">80</text><text style="text-anchor: middle; visibility: inherit; font-family: Roboto, sans-serif; font-size: 12px; font-weight: 200;" x="151.875" y="0" dx="0em" dy="0.95em" fill="rgb(255, 255, 255)" stroke="none" stroke-width="1px">100</text><text style="text-anchor: middle; visibility: inherit; font-family: Roboto, sans-serif; font-size: 12px; font-weight: 200;" x="177.1875" y="0" dx="0em" dy="0.95em" fill="rgb(255, 255, 255)" stroke="none" stroke-width="1px">120</text><text style="text-anchor: middle; visibility: inherit; font-family: Roboto, sans-serif; font-size: 12px; font-weight: 200;" x="202.5" y="0" dx="0em" dy="0.95em" fill="rgb(255, 255, 255)" stroke="none" stroke-width="1px">140</text><text style="text-anchor: middle; visibility: inherit; font-family: Roboto, sans-serif; font-size: 12px; font-weight: 200;" x="227.8125" y="0" dx="0em" dy="0.95em" fill="rgb(255, 255, 255)" stroke="none" stroke-width="1px">160</text><text style="text-anchor: middle; visibility: inherit; font-family: Roboto, sans-serif; font-size: 12px; font-weight: 200;" x="253.125" y="0" dx="0em" dy="0.95em" fill="rgb(255, 255, 255)" stroke="none" stroke-width="1px">180</text><text style="text-anchor: middle; visibility: hidden; font-family: Roboto, sans-serif; font-size: 12px; font-weight: 200;" x="278.4375" y="0" dx="0em" dy="0.95em" fill="rgb(255, 255, 255)" stroke="none" stroke-width="1px">200</text></g><line x1="0" y1="0" x2="278.4375" y2="0" fill="rgb(0, 0, 0)" stroke="rgb(204, 204, 204)" stroke-width="1px"></line></g></g></g></g></svg>