<svg viewBox="0 0 330 200" xmlns="http://www.w3.org/2000/svg"><g><g><g><g><g><line x1="50" y1="176.984375" x2="45" y2="176.984375" style="visibility: inherit;" fill="rgb(0, 0, 0)" stroke="rgb(204, 204, 204)" stroke-width="1px"></line><line x1="50" y1="151.7008928571429" x2="45" y2="151.7008928571429" style="visibility: inherit;" fill="rgb(0, 0, 0)" stroke="rgb(204, 204, 204)" stroke-width="1px"></line><line x1="50" y1="126.41741071428574" x2="45" y2="126.41741071428574" style="visibility: inherit;" fill="rgb(0, 0, 0)" stroke="rgb(204, 204, 204)" stroke-width="1px"></line><line x1="50" y1="101.13392857142857" x2="45" y2="101.13392857142857" style="visibility: inherit;" fill="rgb(0, 0, 0)" stroke="rgb(204, 204, 204)" stroke-width="1px"></line><line x1="50" y1="75.85044642857146" x2="45" y2="75.85044642857146" style="visibility: inherit;" fill="rgb(0, 0, 0)" stroke="rgb(204, 204, 204)" stroke-width="1px"></line><line x1="50" y1="50.566964285714285" x2="45" y2="50.566964285714285" style="visibility: inherit;" fill="rgb(0, 0, 0)" stroke="rgb(204, 204, 204)" stroke-width="1px"></line><line x1="50" y1="25.28348214285717" x2="45" y2="25.28348214285717" style="visibility: inherit;" fill="rgb(0, 0, 0)" stroke="rgb(204, 204, 204)" stroke-width="1px"></line><line x1="50" y1="0" x2="45" y2="0" style="visibility: inherit;" fill="rgb(0, 0, 0)" stroke="rgb(204, 204, 204)" stroke-width="1px"></line></g><g transform="translate(40, 0)"><text style="text-anchor: end; visibility: hidden; font-family: Roboto, sans-serif; font-size: 12px; font-weight: 200;" x="0" y="176.984375" dx="0em" dy="0.3em" fill="rgb(255, 255, 255)" stroke="none" stroke-width="1px">0.65</text><text style="text-anchor: end; visibility: inherit; font-family: Roboto, sans-serif; font-size: 12px; font-weight: 200;" x="0" y="151.7008928571429" dx="0em" dy="0.3em" fill="rgb(255, 255, 255)" stroke="none" stroke-width="1px">0.7</text><text style="text-anchor: end; visibility: inherit; font-family: Roboto, sans-serif; font-size: 12px; font-weight: 200;" x="0" y="126.41741071428574" dx="0em" dy="0.3em" fill="rgb(255, 255, 255)" stroke="none" stroke-width="1px">0.75</text><text style="text-anchor: end; visibility: inherit; font-family: Roboto, sans-serif; font-size: 12px; font-weight: 200;" x="0" y="101.13392857142857" dx="0em" dy="0.3em" fill="rgb(255, 255, 255)" stroke="none" stroke-width="1px">0.8</text><text style="text-anchor: end; visibility: inherit; font-family: Roboto, sans-serif; font-size: 12px; font-weight: 200;" x="0" y="75.85044642857146" dx="0em" dy="0.3em" fill="rgb(255, 255, 255)" stroke="none" stroke-width="1px">0.85</text><text style="text-anchor: end; visibility: inherit; font-family: Roboto, sans-serif; font-size: 12px; font-weight: 200;" x="0" y="50.566964285714285" dx="0em" dy="0.3em" fill="rgb(255, 255, 255)" stroke="none" stroke-width="1px">0.9</text><text style="text-anchor: end; visibility: inherit; font-family: Roboto, sans-serif; font-size: 12px; font-weight: 200;" x="0" y="25.28348214285717" dx="0em" dy="0.3em" fill="rgb(255, 255, 255)" stroke="none" stroke-width="1px">0.95</text><text style="text-anchor: end; visibility: hidden; font-family: Roboto, sans-serif; font-size: 12px; font-weight: 200;" x="0" y="0" dx="0em" dy="0.3em" fill="rgb(255, 255, 255)" stroke="none" stroke-width="1px">1</text></g><line x1="50" y1="0" x2="50" y2="176.984375" fill="rgb(0, 0, 0)" stroke="rgb(204, 204, 204)" stroke-width="1px"></line></g></g><g transform="translate(50, 0)" clip-path="url(#clip_0)"><clipPath id="clip_0"><rect width="280" height="176"></rect></clipPath><g><g><g><line x1="0" y1="0" x2="0" y2="176.984375" fill="rgb(0, 0, 0)" stroke="rgb(189, 189, 189)" stroke-width="1px" opacity="0.25"></line><line x1="25.454545454545457" y1="0" x2="25.454545454545457" y2="176.984375" fill="rgb(0, 0, 0)" stroke="rgb(189, 189, 189)" stroke-width="1px" opacity="0.25"></line><line x1="50.909090909090914" y1="0" x2="50.909090909090914" y2="176.984375" fill="rgb(0, 0, 0)" stroke="rgb(189, 189, 189)" stroke-width="1px" opacity="0.25"></line><line x1="76.36363636363636" y1="0" x2="76.36363636363636" y2="176.984375" fill="rgb(0, 0, 0)" stroke="rgb(189, 189, 189)" stroke-width="1px" opacity="0.25"></line><line x1="101.81818181818183" y1="0" x2="101.81818181818183" y2="176.984375" fill="rgb(0, 0, 0)" stroke="rgb(189, 189, 189)" stroke-width="1px" opacity="0.25"></line><line x1="127.27272727272727" y1="0" x2="127.27272727272727" y2="176.984375" fill="rgb(0, 0, 0)" stroke="rgb(189, 189, 189)" stroke-width="1px" opacity="0.25"></line><line x1="152.72727272727272" y1="0" x2="152.72727272727272" y2="176.984375" fill="rgb(0, 0, 0)" stroke="rgb(189, 189, 189)" stroke-width="1px" opacity="0.25"></line><line x1="178.1818181818182" y1="0" x2="178.1818181818182" y2="176.984375" fill="rgb(0, 0, 0)" stroke="rgb(189, 189, 189)" stroke-width="1px" opacity="0.25"></line><line x1="203.63636363636365" y1="0" x2="203.63636363636365" y2="176.984375" fill="rgb(0, 0, 0)" stroke="rgb(189, 189, 189)" stroke-width="1px" opacity="0.25"></line><line x1="229.0909090909091" y1="0" x2="229.0909090909091" y2="176.984375" fill="rgb(0, 0, 0)" stroke="rgb(189, 189, 189)" stroke-width="1px" opacity="0.25"></line><line x1="254.54545454545453" y1="0" x2="254.54545454545453" y2="176.984375" fill="rgb(0, 0, 0)" stroke="rgb(189, 189, 189)" stroke-width="1px" opacity="0.25"></line><line x1="280" y1="0" x2="280" y2="176.984375" fill="rgb(0, 0, 0)" stroke="rgb(189, 189, 189)" stroke-width="1px" opacity="0.25"></line></g><g><line x1="0" y1="176.984375" x2="280" y2="176.984375" fill="rgb(0, 0, 0)" stroke="rgb(189, 189, 189)" stroke-width="1px" opacity="0.25"></line><line x1="0" y1="151.7008928571429" x2="280" y2="151.7008928571429" fill="rgb(0, 0, 0)" stroke="rgb(189, 189, 189)" stroke-width="1px" opacity="0.25"></line><line x1="0" y1="126.41741071428574" x2="280" y2="126.41741071428574" fill="rgb(0, 0, 0)" stroke="rgb(189, 189, 189)" stroke-width="1px" opacity="0.25"></line><line x1="0" y1="101.13392857142857" x2="280" y2="101.13392857142857" fill="rgb(0, 0, 0)" stroke="rgb(189, 189, 189)" stroke-width="1px" opacity="0.25"></line><line x1="0" y1="75.85044642857146" x2="280" y2="75.85044642857146" fill="rgb(0, 0, 0)" stroke="rgb(189, 189, 189)" stroke-width="1px" opacity="0.25"></line><line x1="0" y1="50.566964285714285" x2="280" y2="50.566964285714285" fill="rgb(0, 0, 0)" stroke="rgb(189, 189, 189)" stroke-width="1px" opacity="0.25"></line><line x1="0" y1="25.28348214285717" x2="280" y2="25.28348214285717" fill="rgb(0, 0, 0)" stroke="rgb(189, 189, 189)" stroke-width="1px" opacity="0.25"></line><line x1="0" y1="0" x2="280" y2="0" fill="rgb(0, 0, 0)" stroke="rgb(189, 189, 189)" stroke-width="1px" opacity="0.25"></line></g></g></g><g><g><line x1="0" y1="505.66964285714295" x2="280" y2="505.66964285714295" fill="rgb(0, 0, 0)" stroke="rgb(153, 153, 153)" stroke-width="1.5px"></line></g></g><g><g><line x1="25.454545454545457" y1="0" x2="25.454545454545457" y2="176.984375" fill="rgb(0, 0, 0)" stroke="rgb(153, 153, 153)" stroke-width="1.5px"></line></g></g><g><g><g><g><g><path style="fill: none;" stroke="rgb(0, 119, 187)" stroke-width="2px" d="M35.63636363636363,184.39534301305451L36.90909090909091,159.30879498571485L38.18181818181818,142.56259263661613L39.45454545454545,136.00721986132595L40.72727272727273,145.8014694415766L42,139.49597866904713L43.27272727272727,134.26209059155758L44.54545454545455,130.41735762816157L45.81818181818182,115.23894961719904L47.09090909090909,115.7248042770219L48.36363636363637,121.45527000696107L49.63636363636364,113.68348838615887L50.909090909090914,111.59467206422939L52.18181818181819,131.2659472622964L53.45454545454545,126.50337749128826L54.72727272727273,129.99790125028616L56,116.65046299906749L57.27272727272727,116.28104995112977L58.54545454545454,104.68390239095436L59.81818181818181,99.38627842948968L61.090909090909086,94.21491583923381L62.36363636363636,90.28177134183095L63.63636363636363,89.45798975385269L64.9090909090909,97.76520779541511L66.18181818181819,91.49858871996122L67.45454545454545,88.90107908154967L68.72727272727273,83.85520059616867L70,80.74463111679995L71.27272727272727,84.8981673358479L72.54545454545455,82.69893353995381L73.81818181818181,79.17903376286128L75.0909090909091,73.95336397562752L76.36363636363636,87.15944415029428L77.63636363636364,78.45099782939819L78.9090909090909,77.95879469965651L80.18181818181819,79.98838393027971L81.45454545454545,82.20253827718159L82.72727272727273,82.2025085296638L84,79.33785191929559L85.27272727272728,80.06853272537064L86.54545454545455,78.2650484315916L87.81818181818183,77.9717766692065L89.0909090909091,75.0557264581076L90.36363636363637,73.72126032103647L91.63636363636364,72.33935587582754L92.90909090909092,72.09143797167201L94.18181818181819,70.86326808993772L95.45454545454545,71.53791890302182L96.72727272727273,69.45172545340368L98,69.32094974427304L99.27272727272728,76.92301812598777L100.54545454545455,76.83442488296346L101.81818181818183,75.95094095799288L103.0909090909091,71.93347791299702L104.36363636363637,72.80279078122412L105.63636363636363,69.8785149774424L106.9090909090909,78.25394601843446L108.18181818181817,78.58786120568156L109.45454545454545,76.04812316437375L110.72727272727272,75.3961295401443L112,79.44718564287021L113.27272727272727,75.89946267702433L114.54545454545455,71.61196650682837L115.81818181818181,79.12795616267634L117.09090909090908,72.17903107749528L118.36363636363636,70.25155674766626L119.63636363636363,70.04995173701886L120.9090909090909,69.80443712253634L122.18181818181817,68.03799361693419L123.45454545454545,71.2127977960475L124.72727272727272,66.93172962514143L126,66.81256349477006L127.27272727272727,68.32886473974996L128.54545454545456,65.99018860522327L129.8181818181818,65.37578968226394L131.0909090909091,66.29416351862159L132.36363636363637,69.83436613417682L133.63636363636365,68.88627900307445L134.9090909090909,65.45278796266275L136.1818181818182,64.22302131757172L137.45454545454547,71.4147983538979L138.72727272727275,70.62334509266378L140,69.15208438337761L141.27272727272725,62.08337727943184L142.54545454545453,57.34395864079161L143.8181818181818,55.53821743155232L145.0909090909091,53.126250350580015L146.36363636363635,51.05632411762967L147.63636363636363,49.648295548366036L148.9090909090909,50.25655237033072L150.1818181818182,50.7460580716037L151.45454545454544,50.583088337494L152.72727272727272,50.153172894145065L154,49.480059638557684L155.27272727272728,49.1177008505008L156.54545454545453,49.23241918054977L157.8181818181818,49.38428056527402L159.0909090909091,49.060233406530564L160.36363636363637,49.82068469853465L161.63636363636363,48.36720835534071L162.9090909090909,48.86515407014858L164.18181818181816,48.66572712276051L165.45454545454547,50.33127852073366L166.72727272727272,49.919056617393984L168,48.50926189335112L169.27272727272725,48.99190741435413L170.54545454545456,50.194853092806746L171.8181818181818,50.58448689699516L173.0909090909091,50.32007280323543L174.36363636363635,50.61810955795689L175.63636363636365,51.004513605578715L176.9090909090909,51.236356034151804L178.1818181818182,50.595829428511344L179.45454545454544,51.157206301301024L180.72727272727275,50.746734832513816L182,49.91922718827382L183.27272727272728,50.83427534385342L184.54545454545453,49.97175149507753L185.81818181818184,49.62029795920167L187.0909090909091,50.1982446515366L188.36363636363637,50.794103827022056L189.63636363636363,48.45306545616029L190.9090909090909,48.04483118618884L192.1818181818182,49.585098190612015L193.45454545454547,50.384706785171765L194.72727272727272,50.1171743494465L196,49.83210327991728L197.27272727272728,49.74409102489454L198.54545454545456,49.40067129039708L199.8181818181818,49.02855867630892L201.0909090909091,48.63921827836256L202.36363636363637,49.44352401353971L203.63636363636365,48.68061548591206L204.9090909090909,49.38533195137455L206.1818181818182,48.89480346480124L207.45454545454547,49.09868074913014L208.72727272727275,49.55314072261049L210,50.03339870148771L211.27272727272725,49.78183789114191L212.54545454545453,50.25364738930148L213.8181818181818,48.8760771298853L215.0909090909091,48.75531134529735L216.36363636363635,48.93195509073289L217.63636363636363,49.453105327572146L218.9090909090909,48.43727311424693L220.1818181818182,48.5335501573137L221.45454545454544,48.63283760455301L222.72727272727272,49.19060444916944L224,49.359191726445815L225.27272727272728,48.50547656166538L226.54545454545453,49.69541258640452L227.8181818181818,48.748718242936086L229.0909090909091,48.73858578291527L230.36363636363637,49.42011412957644L231.63636363636363,49.33083676130036L232.9090909090909,48.61300313456842L234.18181818181816,48.34837578802275L235.45454545454547,49.061436524546785L236.72727272727272,49.69685496125025L238,49.78749364178846L239.27272727272725,48.51335449468266L240.54545454545456,48.662229372269906L241.8181818181818,48.834584685517136L243.0909090909091,48.522833883887486L244.36363636363635,48.58488661909797L245.63636363636365,48.99576102840294L246.9090909090909,49.20077650869045L248.1818181818182,49.36529496215843L249.45454545454544,47.51273769444353L250.72727272727275,48.51854450310374L252,48.29170060914392L253.27272727272728,49.52563784959607L254.54545454545453,48.937465782334854L255.81818181818184,49.74702412401723" fill="none"></path></g><g><path style="fill: none;" stroke="rgb(255, 112, 67)" stroke-width="2px" d="M31.818181818181817,185.351616516189L33.09090909090909,165.49070877636726L34.36363636363637,149.39266934232015L35.63636363636363,136.5116957588652L36.90909090909091,125.4925992706264L38.18181818181818,116.45379587890484L39.45454545454545,109.03222664794234L40.72727272727273,102.48180483292154L42,97.59614239238142L43.27272727272727,92.68740075864453L44.54545454545455,88.72912739256269L45.81818181818182,85.28638183585444L47.09090909090909,82.3690643316788L48.36363636363637,79.36566361424148L49.63636363636364,76.6802005612378L50.909090909090914,74.34774950735917L52.18181818181819,72.47950385645738L53.45454545454545,70.41646464639068L54.72727272727273,68.39882289199404L56,67.02145934421173L57.27272727272727,65.33858870472159L58.54545454545454,63.585102242965526L59.81818181818181,62.00110794544046L61.090909090909086,60.4376709427601L62.36363636363636,58.62061044541215L63.63636363636363,57.5619252318573L64.9090909090909,56.687810422190175L66.18181818181819,55.34745677511898L67.45454545454545,54.254754112354064L68.72727272727273,53.044684368715906L70,52.287091711942985L71.27272727272727,51.43135721119786L72.54545454545455,50.38150428691045L73.81818181818181,49.6659459734283L75.0909090909091,48.84894696897263L76.36363636363636,47.700628973629115L77.63636363636364,46.77724340731617L78.9090909090909,45.871619913336176L80.18181818181819,44.945090782992416L81.45454545454545,44.384664322076695L82.72727272727273,44.23322851643895L84,42.934309266502936L85.27272727272728,42.01070643490752L86.54545454545455,41.58726906919204L87.81818181818183,40.990632461011685L89.0909090909091,40.44332144243129L90.36363636363637,40.02928827007059L91.63636363636364,39.384198440266246L92.90909090909092,38.465241299957654L94.18181818181819,37.96795069730539L95.45454545454545,37.58843875731202L96.72727272727273,36.77474466935735L98,36.520922986168124L99.27272727272728,36.25143259146293L100.54545454545455,35.62093675936914L101.81818181818183,34.985699576471156L103.0909090909091,34.568497460342925L104.36363636363637,34.1559010338614L105.63636363636363,33.51618223439637L106.9090909090909,33.06472826864623L108.18181818181817,32.62707174957991L109.45454545454545,32.130083068556864L110.72727272727272,32.16094915636357L112,32.11636716189201L113.27272727272727,31.97691750712523L114.54545454545455,30.793381423023153L115.81818181818181,30.52051054425475L117.09090909090908,29.770789036931358L118.36363636363636,29.627470514899734L119.63636363636363,29.12677354404617L120.9090909090909,28.961588677572337L122.18181818181817,28.303532674495663L123.45454545454545,28.33241083980376L124.72727272727272,27.7682477417379L126,27.465821745391644L127.27272727272727,26.923743971481652L128.54545454545456,26.89600577997845L129.8181818181818,26.703560759837114L131.0909090909091,26.277070382578287L132.36363636363637,25.994134315456776L133.63636363636365,25.91902514591733L134.9090909090909,25.792822065791434L136.1818181818182,25.451154624554636L137.45454545454547,24.840466267801347L138.72727272727275,24.446999356879434L140,24.310092719975124L141.27272727272725,22.298670731321472L142.54545454545453,19.135485634748257L143.8181818181818,17.021203682363783L145.0909090909091,15.324413760967365L146.36363636363635,13.76541860007997L147.63636363636363,13.023847483929826L148.9090909090909,12.470725395071328L150.1818181818182,12.026163739776148L151.45454545454544,11.592642606982954L152.72727272727272,11.309985013248742L154,10.982624283015378L155.27272727272728,10.457148548454656L156.54545454545453,10.389784825736667L157.8181818181818,10.18709143530136L159.0909090909091,9.925733102190232L160.36363636363637,9.777936067946838L161.63636363636363,9.477395935771852L162.9090909090909,9.405263331739048L164.18181818181816,9.434103382098264L165.45454545454547,9.244054483496605L166.72727272727272,9.229198653984433L168,9.048992033849316L169.27272727272725,8.76506595652877L170.54545454545456,8.707398712116543L171.8181818181818,8.821558629942468L173.0909090909091,8.8855455978264L174.36363636363635,8.698548918492884L175.63636363636365,8.649464614152178L176.9090909090909,8.660582820748841L178.1818181818182,8.698804568284615L179.45454545454544,8.482833864410987L180.72727272727275,8.267604880873007L182,8.15649136589297L183.27272727272728,8.12138613658659L184.54545454545453,8.010167454977248L185.81818181818184,7.862298667609386L187.0909090909091,7.994445216337038L188.36363636363637,7.884416148003032L189.63636363636363,7.714728270645862L190.9090909090909,8.02311241905448L192.1818181818182,7.658203734426756L193.45454545454547,7.574491839688448L194.72727272727272,7.443127124443195L196,7.47248771446451L197.27272727272728,7.42700242132165L198.54545454545456,7.449285944156619L199.8181818181818,7.386027462266994L201.0909090909091,7.095641672303112L202.36363636363637,6.880841409123712L203.63636363636365,6.941290304890432L204.9090909090909,6.900931046759963L206.1818181818182,6.957853070283891L207.45454545454547,6.874796843502774L208.72727272727275,6.797921266667958L210,6.693203256223092L211.27272727272725,6.585294677943327L212.54545454545453,6.592669143754417L213.8181818181818,6.673722418831731L215.0909090909091,6.672767629053639L216.36363636363635,6.361171390012741L217.63636363636363,6.534823766586685L218.9090909090909,6.602955386141566L220.1818181818182,6.468032252635118L221.45454545454544,6.5358386370045105L222.72727272727272,6.432271185964463L224,6.4106995045416L225.27272727272728,6.442834267700626L226.54545454545453,6.399001422336678L227.8181818181818,6.35467783997544L229.0909090909091,6.346107565701554L230.36363636363637,6.151648403566586L231.63636363636363,6.174715205135549L232.9090909090909,6.215597126843125L234.18181818181816,6.321263858269888L235.45454545454547,6.398190845560881L236.72727272727272,6.493933792759929L238,6.312463752580495L239.27272727272725,6.126953132882231L240.54545454545456,6.177921917867804L241.8181818181818,6.29865873288468L243.0909090909091,6.294472226304265L244.36363636363635,6.400139741524372L245.63636363636365,6.247181412319637L246.9090909090909,6.299645640354724L248.1818181818182,6.227453740818928L249.45454545454544,6.359928650233162L250.72727272727275,6.407862772303957L252,6.33295280918964L253.27272727272728,6.324066637710477L254.54545454545453,6.016717479168538L255.81818181818184,6.030642947237308" fill="none"></path></g></g></g></g><g opacity="0.2"><g><g><g><path style="fill: none;" stroke="rgb(0, 119, 187)" stroke-width="2px" d="M30.545454545454543,186.20100712935843L31.818181818181817,159.7343027937625L33.09090909090909,178.31290941153256L34.36363636363637,196.16495493533358L35.63636363636363,170.7361605736826L36.90909090909091,122.05819485176889L38.18181818181818,117.59517593575377L39.45454545454545,126.20983474754861L40.72727272727273,160.46086388773153L42,130.05009562309303L43.27272727272727,126.41741071428574L44.54545454545455,124.65296978663123L45.81818181818182,92.47776059433818L47.09090909090909,116.45346290831057L48.36363636363637,130.05009562309303L49.63636363636364,102.02652632657973L50.909090909090914,108.46156213698644L52.18181818181819,160.77221276770746L53.45454545454545,119.35961686340828L54.72727272727273,135.2396454928177L56,96.62940049011794L57.27272727272727,115.726931954601L58.54545454545454,87.2882107246135L59.81818181818181,91.43985062039324L61.090909090909086,86.45787671740567L62.36363636363636,84.3820567695158L63.63636363636363,88.22231764506017L64.9090909090909,110.22603320490038L66.18181818181819,82.0986608548888L67.45454545454545,85.00481480998654L68.72727272727273,76.28638308495283L70,76.0787769779563L71.27272727272727,91.1284716001579L72.54545454545455,79.40008286652822L73.81818181818181,73.8991841168276L75.0909090909091,66.11485931224057L76.36363636363636,106.96856438581435L77.63636363636364,65.388328358531L78.9090909090909,77.22049000539951L80.18181818181819,83.0327677753355L81.45454545454545,85.523769796959L82.72727272727273,82.20246390838707L84,75.04086700401136L85.27272727272728,81.16455393444215L86.54545454545455,75.55982199098383L87.81818181818183,77.53186902563488L89.0909090909091,70.68165114149451L90.36363636363637,71.71956111543946L91.63636363636364,70.26649920802032L92.90909090909092,71.71956111543946L94.18181818181819,69.02101326733828L95.45454545454545,72.54989512264729L96.72727272727273,66.32243527897766L98,69.12478618057712L99.27272727272728,88.32612069855844L100.54545454545455,76.70153501842702L101.81818181818183,74.62571507053717L103.0909090909091,65.90728334550346L104.36363636363637,74.10676008356471L105.63636363636363,65.49210127176984L106.9090909090909,90.81709257992252L108.18181818181817,79.08873398655228L109.45454545454545,72.23851610241194L110.72727272727272,74.41813910380006L112,85.523769796959L113.27272727272727,70.5778782282557L114.54545454545455,65.18072225153446L115.81818181818181,90.40194064644832L117.09090909090908,61.75564344972372L118.36363636363636,67.36034525292261L119.63636363636363,69.74754422104785L120.9090909090909,69.43616520081247L122.18181818181817,65.388328358531L123.45454545454545,75.97500406471748L124.72727272727272,60.51012736878226L126,66.63381429921304L127.27272727272727,70.60331660721982L128.54545454545456,62.4821744034333L129.8181818181818,64.45419129782489L131.0909090909091,67.67172427315796L132.36363636363637,75.14467005750963L133.63636363636365,67.46414830642088L134.9090909090909,60.30255140204515L136.1818181818182,62.37837134993503L137.45454545454547,82.20246390838707L138.72727272727275,69.43616520081247L140,66.94519331944842L141.27272727272725,51.4803166235132L142.54545454545453,50.23483068283115L143.8181818181818,52.8296056176935L145.0909090909091,49.50829972912158L146.36363636363635,47.95143476820419L147.63636363636363,47.53625269447054L148.9090909090909,51.16893760327782L150.1818181818182,51.4803166235132L151.45454545454544,50.33863373632942L152.72727272727272,49.50829972912158L154,48.47038975517665L155.27272727272728,48.57416266841549L156.54545454545453,49.404496675623314L157.8181818181818,49.612072642360424L159.0909090909091,48.57416266841549L160.36363636363637,50.96136163654073L161.63636363636363,46.18699384054968L162.9090909090909,49.612072642360424L164.18181818181816,48.36658670167838L165.45454545454547,52.8296056176935L166.72727272727272,49.30072376238449L168,46.394569807286764L169.27272727272725,49.71587569585869L170.54545454545456,51.99927161048566L171.8181818181818,51.16893760327782L173.0909090909091,49.923451662595774L174.36363636363635,51.065164690039L175.63636363636365,51.584119677011465L176.9090909090909,51.584119677011465L178.1818181818182,49.63503952005079L179.45454545454544,51.99927161048566L180.72727272727275,50.131027629332884L182,48.67796572191376L183.27272727272728,52.20684757722277L184.54545454545453,48.67796572191376L185.81818181818184,49.09311765538796L187.0909090909091,51.065164690039L188.36363636363637,51.68789259025028L189.63636363636363,44.94150789986764L190.9090909090909,47.43247978123172L192.1818181818182,51.895498697246815L193.45454545454547,51.584119677011465L194.72727272727272,49.71587569585869L196,49.404496675623314L197.27272727272728,49.612072642360424L198.54545454545456,48.88554168865085L199.8181818181818,48.47038975517665L201.0909090909091,48.055207681443L202.36363636363637,50.64998261630535L203.63636363636365,47.53625269447054L204.9090909090909,50.44240664956826L206.1818181818182,48.15901073494127L207.45454545454547,49.404496675623314L208.72727272727275,50.23483068283115L210,50.75378566980362L211.27272727272725,49.404496675623314L212.54545454545453,50.96136163654073L213.8181818181818,46.809721740760985L215.0909090909091,48.57416266841549L216.36363636363635,49.196920708886225L217.63636363636363,50.23483068283115L218.9090909090909,46.91352479425925L220.1818181818182,48.67796572191376L221.45454545454544,48.781768775412026L222.72727272727272,50.02725471609404L224,49.612072642360424L225.27272727272728,47.22490381449461L226.54545454545453,51.4803166235132L227.8181818181818,47.32867672773345L229.0909090909091,48.72338709288409L230.36363636363637,50.44240664956826L231.63636363636363,49.196920708886225L232.9090909090909,47.53625269447054L234.18181818181816,47.95143476820419L235.45454545454547,50.131027629332884L236.72727272727272,50.64998261630535L238,49.923451662595774L239.27272727272725,46.602145774023874L240.54545454545456,48.88554168865085L241.8181818181818,49.09311765538796L243.0909090909091,48.055207681443L244.36363636363635,48.67796572191376L245.63636363636365,49.612072642360424L246.9090909090909,49.50829972912158L248.1818181818182,49.612072642360424L249.45454545454544,44.7339017928711L250.72727272727275,50.02725471609404L252,47.95143476820419L253.27272727272728,51.376543710274355L254.54545454545453,48.055207681443L255.81818181818184,50.96136163654073" fill="none"></path></g><g><path style="fill: none;" stroke="rgb(255, 112, 67)" stroke-width="2px" d="M29.27272727272727,197.06376761198044L30.545454545454543,170.64884424209598L31.818181818181817,152.66327736899257L33.09090909090909,137.08929293389832L34.36363636363637,125.92157330630083L35.63636363636363,117.51476172357798L36.90909090909091,109.13052519517286L38.18181818181818,102.97757207282952L39.45454545454545,97.94026065351709L40.72727272727273,92.67756037414074L42,90.27722025290132L43.27272727272727,85.33005834956253L44.54545454545455,82.79450902449234L45.81818181818182,80.1237203553319L47.09090909090909,77.9938287820135L48.36363636363637,74.86102007595558L49.63636363636364,72.65225144369263L50.909090909090914,70.84920084370036L52.18181818181819,69.67719685552377L53.45454545454545,67.3219465624009L54.72727272727273,65.37238416128925L56,64.9554238122489L57.27272727272727,62.81428992216076L58.54545454545454,60.954877037022804L59.81818181818181,59.62511893095716L61.090909090909086,58.09251687888588L62.36363636363636,55.89502070365209L63.63636363636363,55.97389776259661L64.9090909090909,55.376638381608906L66.18181818181819,53.33692646452358L67.45454545454545,52.61570019647479L68.72727272727273,51.22957980526346L70,51.15070274631892L71.27272727272727,50.14775547331998L72.54545454545455,48.80672491022518L73.81818181818181,48.59260850719044L75.0909090909091,47.623448465019464L76.36363636363636,45.97815198291625L77.63636363636364,45.39216505895768L78.9090909090909,44.51318467301983L80.18181818181819,43.55529708787799L81.45454545454545,43.54402463084886L82.72727272727273,44.006074808005785L84,40.98593039172037L85.27272727272728,40.625302187566255L86.54545454545455,40.95211302063296L87.81818181818183,40.095677548753365L89.0909090909091,39.62235491456731L90.36363636363637,39.408238511532545L91.63636363636364,38.416563695562736L92.90909090909092,37.08680558949709L94.18181818181819,37.22201479332789L95.45454545454545,37.01917084732225L96.72727272727273,35.554203537425835L98,36.1401904613844L99.27272727272728,35.84719699940512L100.54545454545455,34.67519301122854L101.81818181818183,34.03284380212426L103.0909090909091,33.94269428615059L104.36363636363637,33.53700639413937L105.63636363636363,32.55660403519869L106.9090909090909,32.38754732002105L108.18181818181817,31.970586970980673L109.45454545454545,31.384600047022104L110.72727272727272,32.20724828807372L112,32.04949417018464L113.27272727272727,31.76774302497506L114.54545454545455,29.0180772968701L115.81818181818181,30.111204226102142L117.09090909090908,28.646206775946272L118.36363636363636,29.412492731852186L119.63636363636363,28.375728087765825L120.9090909090909,28.71381137786168L122.18181818181817,27.31644866988063L123.45454545454545,28.375728087765825L124.72727272727272,26.92200309463909L126,27.012182750872213L127.27272727272727,26.110627310616625L128.54545454545456,26.854398492723703L129.8181818181818,26.414893229625065L131.0909090909091,25.637334816689997L132.36363636363637,25.56973021477461L133.63636363636365,25.80636139160821L134.9090909090909,25.6035174456026L136.1818181818182,24.93865346269949L137.45454545454547,23.924433732671393L138.72727272727275,23.85679899049658L140,24.104732764618742L141.27272727272725,19.281537748341055L142.54545454545453,14.390707989888535L143.8181818181818,13.84978075378707L145.0909090909091,12.779228878872738L146.36363636363635,11.426925858748808L147.63636363636363,11.91149080970457L148.9090909090909,11.641042261783571L150.1818181818182,11.35932125683342L151.45454545454544,10.942360907793045L152.72727272727272,10.885998622647362L154,10.491583187665253L155.27272727272728,9.668934946613655L156.54545454545453,10.288739241659641L157.8181818181818,9.8830513496484L159.0909090909091,9.533695602523432L160.36363636363637,9.556240516581697L161.63636363636363,9.026585737509384L162.9090909090909,9.29706442568983L164.18181818181816,9.477363457637177L165.45454545454547,8.958981135593996L166.72727272727272,9.206914909716158L168,8.77868210364665L169.27272727272725,8.33917684054801L170.54545454545456,8.620897845498162L171.8181818181818,8.992798506681414L173.0909090909091,8.981526049652262L174.36363636363635,8.41805389949253L175.63636363636365,8.575838157641039L176.9090909090909,8.677260130643845L178.1818181818182,8.756137189588385L179.45454545454544,8.158877808600664L180.72727272727275,7.944761405565901L182,7.989821093423023L183.27272727272728,8.068728292626991L184.54545454545453,7.843339432563095L185.81818181818184,7.640495486557484L187.0909090909091,8.192665039428634L188.36363636363637,7.719372545502024L189.63636363636363,7.460196454610138L190.9090909090909,8.485688641667366L192.1818181818182,7.1108407074851705L193.45454545454547,7.448923997581005L194.72727272727272,7.246080051575394L196,7.516528599496393L197.27272727272728,7.358774481607332L198.54545454545456,7.482711228408975L199.8181818181818,7.291139739432497L201.0909090909091,6.660062987357378L202.36363636363637,6.558641014354572L203.63636363636365,7.03196364854063L204.9090909090909,6.840392159564152L206.1818181818182,7.043236105569763L207.45454545454547,6.750212503331051L208.72727272727275,6.682607901415663L210,6.536126240555735L211.27272727272725,6.423431810523777L212.54545454545453,6.603730842471123L213.8181818181818,6.795302331447601L215.0909090909091,6.671335444386511L216.36363636363635,5.893777031451464L217.63636363636363,6.795302331447601L218.9090909090909,6.705152815473928L220.1818181818182,6.265647552375288L221.45454545454544,6.63754821355854L222.72727272727272,6.276920009404421L224,6.3783419824072265L225.27272727272728,6.491036412439184L226.54545454545453,6.333252154290676L227.8181818181818,6.288192466433554L229.0909090909091,6.333252154290676L230.36363636363637,5.859959660364046L231.63636363636363,6.209315407489033L232.9090909090909,6.276920009404421L234.18181818181816,6.479763955410032L235.45454545454547,6.51358132649745L236.72727272727272,6.63754821355854L238,6.040258692311392L239.27272727272725,5.848687203334913L240.54545454545456,6.254375095346136L241.8181818181818,6.479763955410032L243.0909090909091,6.288192466433554L244.36363636363635,6.558641014354572L245.63636363636365,6.017743918512554L246.9090909090909,6.3783419824072265L248.1818181818182,6.11916589151536L249.45454545454544,6.558641014354572L250.72727272727275,6.479763955410032L252,6.220587864518166L253.27272727272728,6.3107373804918385L254.54545454545453,5.555693741355629L255.81818181818184,6.051531149340525" fill="none"></path></g></g></g></g></g></g><g transform="translate(50, 176)" clip-path="url(#clip_1)"><clipPath id="clip_1"><rect width="280" height="23"></rect></clipPath><g><g><line x1="0" y1="0" x2="0" y2="5" style="visibility: inherit;" fill="rgb(0, 0, 0)" stroke="rgb(204, 204, 204)" stroke-width="1px"></line><line x1="25.454545454545457" y1="0" x2="25.454545454545457" y2="5" style="visibility: inherit;" fill="rgb(0, 0, 0)" stroke="rgb(204, 204, 204)" stroke-width="1px"></line><line x1="50.909090909090914" y1="0" x2="50.909090909090914" y2="5" style="visibility: inherit;" fill="rgb(0, 0, 0)" stroke="rgb(204, 204, 204)" stroke-width="1px"></line><line x1="76.36363636363636" y1="0" x2="76.36363636363636" y2="5" style="visibility: inherit;" fill="rgb(0, 0, 0)" stroke="rgb(204, 204, 204)" stroke-width="1px"></line><line x1="101.81818181818183" y1="0" x2="101.81818181818183" y2="5" style="visibility: inherit;" fill="rgb(0, 0, 0)" stroke="rgb(204, 204, 204)" stroke-width="1px"></line><line x1="127.27272727272727" y1="0" x2="127.27272727272727" y2="5" style="visibility: inherit;" fill="rgb(0, 0, 0)" stroke="rgb(204, 204, 204)" stroke-width="1px"></line><line x1="152.72727272727272" y1="0" x2="152.72727272727272" y2="5" style="visibility: inherit;" fill="rgb(0, 0, 0)" stroke="rgb(204, 204, 204)" stroke-width="1px"></line><line x1="178.1818181818182" y1="0" x2="178.1818181818182" y2="5" style="visibility: inherit;" fill="rgb(0, 0, 0)" stroke="rgb(204, 204, 204)" stroke-width="1px"></line><line x1="203.63636363636365" y1="0" x2="203.63636363636365" y2="5" style="visibility: inherit;" fill="rgb(0, 0, 0)" stroke="rgb(204, 204, 204)" stroke-width="1px"></line><line x1="229.0909090909091" y1="0" x2="229.0909090909091" y2="5" style="visibility: inherit;" fill="rgb(0, 0, 0)" stroke="rgb(204, 204, 204)" stroke-width="1px"></line><line x1="254.54545454545453" y1="0" x2="254.54545454545453" y2="5" style="visibility: inherit;" fill="rgb(0, 0, 0)" stroke="rgb(204, 204, 204)" stroke-width="1px"></line><line x1="280" y1="0" x2="280" y2="5" style="visibility: inherit;" fill="rgb(0, 0, 0)" stroke="rgb(204, 204, 204)" stroke-width="1px"></line></g><g transform="translate(0, 8)"><text style="text-anchor: middle; visibility: hidden; font-family: Roboto, sans-serif; font-size: 12px; font-weight: 200;" x="0" y="0" dx="0em" dy="0.95em" fill="rgb(255, 255, 255)" stroke="none" stroke-width="1px">-20</text><text style="text-anchor: middle; visibility: inherit; font-family: Roboto, sans-serif; font-size: 12px; font-weight: 200;" x="25.454545454545457" y="0" dx="0em" dy="0.95em" fill="rgb(255, 255, 255)" stroke="none" stroke-width="1px">0</text><text style="text-anchor: middle; visibility: inherit; font-family: Roboto, sans-serif; font-size: 12px; font-weight: 200;" x="50.909090909090914" y="0" dx="0em" dy="0.95em" fill="rgb(255, 255, 255)" stroke="none" stroke-width="1px">20</text><text style="text-anchor: middle; visibility: inherit; font-family: Roboto, sans-serif; font-size: 12px; font-weight: 200;" x="76.36363636363636" y="0" dx="0em" dy="0.95em" fill="rgb(255, 255, 255)" stroke="none" stroke-width="1px">40</text><text style="text-anchor: middle; visibility: inherit; font-family: Roboto, sans-serif; font-size: 12px; font-weight: 200;" x="101.81818181818183" y="0" dx="0em" dy="0.95em" fill="rgb(255, 255, 255)" stroke="none" stroke-width="1px">60</text><text style="text-anchor: middle; visibility: inherit; font-family: Roboto, sans-serif; font-size: 12px; font-weight: 200;" x="127.27272727272727" y="0" dx="0em" dy="0.95em" fill="rgb(255, 255, 255)" stroke="none" stroke-width="1px">80</text><text style="text-anchor: middle; visibility: inherit; font-family: Roboto, sans-serif; font-size: 12px; font-weight: 200;" x="152.72727272727272" y="0" dx="0em" dy="0.95em" fill="rgb(255, 255, 255)" stroke="none" stroke-width="1px">100</text><text style="text-anchor: middle; visibility: inherit; font-family: Roboto, sans-serif; font-size: 12px; font-weight: 200;" x="178.1818181818182" y="0" dx="0em" dy="0.95em" fill="rgb(255, 255, 255)" stroke="none" stroke-width="1px">120</text><text style="text-anchor: middle; visibility: inherit; font-family: Roboto, sans-serif; font-size: 12px; font-weight: 200;" x="203.63636363636365" y="0" dx="0em" dy="0.95em" fill="rgb(255, 255, 255)" stroke="none" stroke-width="1px">140</text><text style="text-anchor: middle; visibility: inherit; font-family: Roboto, sans-serif; font-size: 12px; font-weight: 200;" x="229.0909090909091" y="0" dx="0em" dy="0.95em" fill="rgb(255, 255, 255)" stroke="none" stroke-width="1px">160</text><text style="text-anchor: middle; visibility: inherit; font-family: Roboto, sans-serif; font-size: 12px; font-weight: 200;" x="254.54545454545453" y="0" dx="0em" dy="0.95em" fill="rgb(255, 255, 255)" stroke="none" stroke-width="1px">180</text><text style="text-anchor: middle; visibility: hidden; font-family: Roboto, sans-serif; font-size: 12px; font-weight: 200;" x="280" y="0" dx="0em" dy="0.95em" fill="rgb(255, 255, 255)" stroke="none" stroke-width="1px">200</text></g><line x1="0" y1="0" x2="280" y2="0" fill="rgb(0, 0, 0)" stroke="rgb(204, 204, 204)" stroke-width="1px"></line></g></g></g></g></svg>